<?xml version="1.0" encoding="utf-8"?>
<!-- Generator: Adobe Illustrator 21.1.0, SVG Export Plug-In . SVG Version: 6.00 Build 0)  -->
<svg version="1.1" id="Layer_1" xmlns="http://www.w3.org/2000/svg" xmlns:xlink="http://www.w3.org/1999/xlink" x="0px" y="0px"
	 viewBox="0 0 65.1 89.6" style="enable-background:new 0 0 65.1 89.6;" xml:space="preserve">
<style type="text/css">
	.st0{fill:none;stroke:#17BBBD;stroke-miterlimit:10;}
	.st1{fill:#17BBBD;}
</style>
<path class="st0" d="M0,89.1h17.1l-4.3-4.3c-5.4-5.4-8.4-12.6-8.4-20.3l0-1c0.2-5.3,1.8-10.5,4.8-14.9c1.5-2,4.8-7.4,4.4-13.8
	c-0.1-2.1-0.4-3.9-0.9-5.7c3.5,1.5,6.3,4,7.9,7l4.4,8.2l0.3-9.2c0.5-12.7,5.5-24.5,14.1-33.6c-0.5,2.7-0.7,5.4-0.7,8.1
	c0,7.7,2,15.4,5.8,22.2l1.6,2.8l2.3-2.2c1.4-1.3,3.1-2.5,5-3.3c0,0.1,0,0.2-0.1,0.3c0,0,0,0,0,0c-0.1,0.4-0.2,0.9-0.3,1.3l0.1,0
	c-0.2,1.6-0.4,3.6-0.4,4.1c-0.4,6.3,2.9,11.7,4.4,13.8c2.9,4.4,4.6,9.6,4.8,14.9l0,1c0,7.7-3,14.9-8.4,20.3l-4.3,4.3h16"/>
<rect x="32.1" y="63.7" class="st1" width="3.1" height="3.1"/>
<rect x="32.1" y="69.5" class="st1" width="3.1" height="3.1"/>
<rect x="32.1" y="75.6" class="st1" width="3.1" height="3.1"/>
<rect x="32.1" y="81.8" class="st1" width="3.1" height="3.1"/>
</svg>
