<?xml version="1.0" encoding="utf-8"?>
<!-- Generator: Adobe Illustrator 21.1.0, SVG Export Plug-In . SVG Version: 6.00 Build 0)  -->
<svg version="1.1" id="Layer_1" xmlns="http://www.w3.org/2000/svg" xmlns:xlink="http://www.w3.org/1999/xlink" x="0px" y="0px"
	 viewBox="0 0 127.2 88" style="enable-background:new 0 0 127.2 88;" xml:space="preserve">
<style type="text/css">
	.st0{fill:none;stroke:#17BBBD;stroke-linecap:round;stroke-linejoin:round;stroke-miterlimit:10;}
</style>
<g>
	<path class="st0" d="M84.5,74c2.1-6,8-10.3,14.8-10.3c6.8,0,12.6,4.3,14.8,10.3"/>
	<path class="st0" d="M52.1,79.3c0,4.5-3.7,8.2-8.2,8.2c-4.5,0-8.2-3.7-8.2-8.2c0-4.5,3.7-8.2,8.2-8.2
		C48.4,71.1,52.1,74.8,52.1,79.3z"/>
	<path class="st0" d="M25.2,79.3c0,4.5-3.7,8.2-8.2,8.2c-4.5,0-8.2-3.7-8.2-8.2c0-4.5,3.7-8.2,8.2-8.2
		C21.5,71.1,25.2,74.8,25.2,79.3z"/>
	<path class="st0" d="M119.5,15.2c4.9,8.4,4.8,41.3,4.8,41.3h2.3V70l-2.3,4.1v7.1c0,0-9.4,2.2-10,2.3l-2,0.5"/>
	<path class="st0" d="M71.6,50.1V0.5c4.7,2.8,29.6,2.3,40.9,6.3c11.3,3.9,10.9,8.4,10.9,8.4"/>
	<polyline class="st0" points="85.7,82.5 71.6,82.5 71.6,56.4 75.4,56.4 	"/>
	<path class="st0" d="M107.4,79.3c0,4.5-3.7,8.2-8.2,8.2c-4.5,0-8.2-3.7-8.2-8.2c0-4.5,3.7-8.2,8.2-8.2
		C103.8,71.1,107.4,74.8,107.4,79.3z"/>
	<line class="st0" x1="125.4" y1="56.5" x2="71.6" y2="56.5"/>
	<line class="st0" x1="123.5" y1="15.2" x2="71.6" y2="15.2"/>
	<path class="st0" d="M123.9,45.6c0,0-9.2-0.4-10.6-7.3c-1.5-6.9-3.2-22.8-3.2-22.8"/>
	<polyline class="st0" points="110.8,35.2 85.9,35.2 85.9,15.5 	"/>
	<line class="st0" x1="85.9" y1="26.1" x2="85.9" y2="54"/>
	<polyline class="st0" points="124.4,74 118.2,66.8 118.2,56.5 	"/>
	<line class="st0" x1="71.6" y1="76.2" x2="51.6" y2="76.2"/>
	<line class="st0" x1="35.7" y1="76.2" x2="24.4" y2="76.2"/>
	<polyline class="st0" points="71.6,63.9 7.1,63.9 0.5,72.9 	"/>
	<rect x="0.5" y="0.5" class="st0" width="62.2" height="56"/>
</g>
</svg>
