<?xml version="1.0" encoding="utf-8"?>
<!-- Generator: Adobe Illustrator 21.1.0, SVG Export Plug-In . SVG Version: 6.00 Build 0)  -->
<svg version="1.1" id="Layer_1" xmlns="http://www.w3.org/2000/svg" xmlns:xlink="http://www.w3.org/1999/xlink" x="0px" y="0px"
	 viewBox="0 0 115.6 95.4" style="enable-background:new 0 0 115.6 95.4;" xml:space="preserve">
<style type="text/css">
	.st0{fill:none;stroke:#17BBBD;stroke-linecap:round;stroke-linejoin:round;stroke-miterlimit:10;}
</style>
<line class="st0" x1="98.8" y1="19.4" x2="59.8" y2="27.9"/>
<line class="st0" x1="103.6" y1="32.6" x2="59.8" y2="42.1"/>
<line class="st0" x1="113.2" y1="61.5" x2="34.8" y2="78.5"/>
<path class="st0" d="M101.7,80.7c16.5-10.6,13.2-29.5,13.2-29.5L33.6,68.8l-1.7,8.4c0,0-0.4,5.4,6.4,7.5"/>
<path class="st0" d="M59.8,56.6V0.7c0,0,45.2-6,45.2,45.9"/>
<line class="st0" x1="34.3" y1="62" x2="59.8" y2="6.2"/>
<path class="st0" d="M40.4,90.4l0.8-0.1c1-0.2,3.1-0.8,4.5-2.6c1.9-2.4,3.3-2.7,4.5-2.9l0.1,0c1.2-0.1,2.6-0.1,5,1.8
	c1.8,1.4,4,1.5,5,1.5l0.8-0.1c1-0.2,3.1-0.8,4.5-2.6c1.9-2.4,3.2-2.7,4.5-2.9l0.1,0c1.2-0.1,2.6-0.1,5,1.8c1.8,1.4,4,1.5,5,1.5
	l0.8-0.1c1-0.2,3.1-0.8,4.5-2.6c1.9-2.4,3.2-2.7,4.5-2.9l0.1,0c1.2-0.1,2.6-0.1,5,1.8"/>
<path class="st0" d="M0.5,94.9l0.8-0.1c1-0.2,3.1-0.8,4.5-2.6c1.9-2.4,3.3-2.7,4.5-2.9l0.1,0c1.2-0.1,2.6-0.1,5,1.8
	c1.8,1.4,4,1.5,5,1.5l0.8-0.1c1-0.2,3.1-0.8,4.5-2.6c1.9-2.4,3.2-2.7,4.5-2.9l0.1,0c1.2-0.1,2.6-0.1,5,1.8c1.8,1.4,4,1.5,5,1.5
	l0.8-0.1c1-0.2,3.1-0.8,4.5-2.6c1.9-2.4,3.2-2.7,4.5-2.9l0.1,0c1.2-0.1,2.6-0.1,5,1.8"/>
</svg>
