<?xml version="1.0" encoding="utf-8"?>
<!-- Generator: Adobe Illustrator 21.1.0, SVG Export Plug-In . SVG Version: 6.00 Build 0)  -->
<svg version="1.1" id="Arizona_SW_Style" xmlns="http://www.w3.org/2000/svg" xmlns:xlink="http://www.w3.org/1999/xlink" x="0px"
	 y="0px" viewBox="0 0 331.5 38.9" style="enable-background:new 0 0 331.5 38.9;" xml:space="preserve">
<style type="text/css">
	.st0{fill:#A87A3F;}
</style>
<polygon class="st0" points="56.2,34.2 31.7,10.2 7.3,34.2 12.1,34.2 31.7,15 51.3,34.2 "/>
<polygon class="st0" points="108.3,34.2 83.9,10.2 59.3,34.2 64.2,34.2 83.9,15 103.4,34.2 "/>
<polygon class="st0" points="160.9,34.2 136.5,10.2 112.1,34.2 116.8,34.2 136.5,15 156.1,34.2 "/>
<polygon class="st0" points="65.5,7.6 57.7,0 49.9,7.6 57.7,15.1 "/>
<polygon class="st0" points="117.5,7.6 109.8,0 102,7.6 109.8,15.1 "/>
<polyline class="st0" points="32,38.9 39.7,31.3 32,23.7 24.3,31.3 32,38.9 "/>
<polyline class="st0" points="84,38.9 91.9,31.3 84,23.7 76.3,31.3 84,38.9 "/>
<polyline class="st0" points="136.8,38.9 144.5,31.3 136.8,23.7 128.9,31.3 136.8,38.9 "/>
<polyline class="st0" points="0,31.1 2.5,31.1 4.9,31.1 4.9,31.1 31.7,4.9 57.8,30.3 83.9,4.9 110.1,30.6 136.5,4.9 163.4,31.1 
	168.2,31.1 136.5,0.1 110.1,25.9 83.9,0.1 57.8,25.7 31.7,0.1 0,31.1 0,31.1 0,31.1 "/>
<polygon class="st0" points="219.5,34.2 195,10.2 170.6,34.2 175.3,34.2 195,15 214.6,34.2 "/>
<polygon class="st0" points="271.6,34.2 247.2,10.2 222.6,34.2 227.5,34.2 247.2,15 266.7,34.2 "/>
<polygon class="st0" points="324.2,34.2 299.8,10.2 275.4,34.2 280.1,34.2 299.8,15 319.4,34.2 "/>
<polygon class="st0" points="228.8,7.6 220.9,0 213.2,7.6 220.9,15.1 "/>
<polygon class="st0" points="173.2,7.6 165.3,0 157.6,7.6 165.3,15.1 "/>
<polygon class="st0" points="280.8,7.6 273.1,0 265.3,7.6 273.1,15.1 "/>
<polyline class="st0" points="195.3,38.9 203,31.3 195.3,23.7 187.5,31.3 195.3,38.9 "/>
<polyline class="st0" points="247.3,38.9 255.2,31.3 247.3,23.7 239.6,31.3 247.3,38.9 "/>
<polyline class="st0" points="300,38.9 307.8,31.3 300,23.7 292.2,31.3 300,38.9 "/>
<polyline class="st0" points="163.3,31.1 165.8,31.1 168.2,31.1 168.2,31.1 195,4.9 221.1,30.3 247.2,4.9 273.4,30.6 299.8,4.9 
	326.7,31.1 331.5,31.1 299.8,0.1 273.4,25.9 247.2,0.1 221.1,25.7 195,0.1 163.3,31.1 163.3,31.1 163.3,31.1 "/>
</svg>
