<?xml version="1.0" encoding="utf-8"?>
<!-- Generator: Adobe Illustrator 21.1.0, SVG Export Plug-In . SVG Version: 6.00 Build 0)  -->
<svg version="1.1" id="Layer_1" xmlns="http://www.w3.org/2000/svg" xmlns:xlink="http://www.w3.org/1999/xlink" x="0px" y="0px"
	 viewBox="0 0 94.1 87" style="enable-background:new 0 0 94.1 87;" xml:space="preserve">
<style type="text/css">
	.st0{fill:none;stroke:#A87A3F;stroke-width:1.15;stroke-miterlimit:10;}
</style>
<path class="st0" d="M0.5,26.4c0,0,7.8,10.4,9.9,22.5"/>
<path class="st0" d="M1.9,37.8c0,0,9.6,2.8,17.7-7.1s14-19.9,25-24.8"/>
<path class="st0" d="M11.7,15.6c0,0-0.7,24.4,10.5,37.1s21.5,17.6,20,30"/>
<path class="st0" d="M17.1,15.6c0,0-1.3,18,13,25.4s29.5,9.8,32.8,31.4"/>
<path class="st0" d="M2.3,42.9c0,0,14.4,6.9,23.7,18.9s9.7,15.7,23.3,23.1"/>
<path class="st0" d="M6.8,23.9c0,0,9.8,5.3,17.7,14.1S45,56.7,62.1,60.1c17.1,3.3,19.7,11.1,19.7,11.1"/>
<path class="st0" d="M3.3,57.3c0,0,3.5-1.7,11.5-0.6"/>
<path class="st0" d="M10.3,71.9c0,0,4-5.5,5.1-15.5"/>
<path class="st0" d="M7.9,61.4c0,0,15.4-11.2,36.7-21.5s35.6-14.1,40-15"/>
<path class="st0" d="M4.3,50.2c0,0,19.1-4,39-4.9c19.9-0.9,32.5,0,43.7-4.6"/>
<path class="st0" d="M15,77.1c0,0,2.4-3.7,8-6.6"/>
<path class="st0" d="M16.8,84.1c0,0,8.8-16.7,13.2-33.8s11.6-36,20.5-45.3"/>
<path class="st0" d="M13.3,59.3c0,0,8,12.4,25.7,14.7s27.9-1.1,34.1-5.6s6.9-8.9,12.8-9.6"/>
<path class="st0" d="M22.8,84.2c0,0,1.3-8.7-0.1-13.1"/>
<path class="st0" d="M26.9,85.1c0,0,5.9-16.9,3.5-30.2S27.8,18.3,29,7.4"/>
<path class="st0" d="M21.4,7.3c0,0,0.4,8.6-3.5,16.7"/>
<path class="st0" d="M13.5,20.6c0,0,14.1,9.3,28.2,2.3S61,8.5,61,8.5"/>
<path class="st0" d="M30.5,1.5c0,0-1.6,6.7,5.5,14.3"/>
<path class="st0" d="M23.8,12.4c0,0,3.7,1.5,8.9,9.4S47.2,43.3,59.9,47c12.7,3.7,25.8,5.2,30.1,4.6"/>
<path class="st0" d="M42.7,0.6c0,0,0.9,5.7-2.1,13.2"/>
<path class="st0" d="M36.8,5.6c0,0,2.9,12.7,16.1,19.7s36,17,31.7,37.1"/>
<path class="st0" d="M72.7,63.3c0,0,6.9-2,17.6,1"/>
<path class="st0" d="M83.3,48.6c0,0,2.8-2.2,10.7-1.4"/>
<path class="st0" d="M52.7,16.3c0,0,0.7-11.2,4.3-15.9"/>
<path class="st0" d="M59.3,10.5c0,0-5.9-5-7.9-10.1"/>
<path class="st0" d="M30.7,82.7c0,0,7-4.4,9.7-23.5s3.6-21.4,8.7-30.3s14.5-14,16.2-17.6"/>
<path class="st0" d="M48.4,30.7c0,0,20.4-10.9,27.2-21.2"/>
<path class="st0" d="M66.8,18.6c0,0,1.1-9.4,4.7-12.9"/>
<path class="st0" d="M30.6,75.6c0,0,16.4-14.2,24.4-24.7S69.9,38.6,76.1,35s12-7.6,12.9-8.8"/>
<path class="st0" d="M51.4,78.3c0,0,1.5-9.6,0.2-17.1c-1.3-7.5-1.3-18.2,6-29.6s16.2-15.2,16.2-15.2"/>
<path class="st0" d="M39.3,80.5c0,0,19.5-24,23.4-29.3S79.3,28.1,82,22.8"/>
<path class="st0" d="M45.3,86.6c0,0,14.9-15.5,22.6-27s11.4-18.6,20.2-24.1"/>
<path class="st0" d="M82.4,31.4c0,0,5,1.7,7.8-0.2"/>
<path class="st0" d="M75.4,14.7c0,0,0.8,12.2-2.2,27.5s-7.8,28.3-4.3,41.7"/>
<path class="st0" d="M60,73.9c0,0-2.6,5.2-3.6,11.8"/>
<path class="st0" d="M61.8,73.5c0,0,2.5,5.2,2,11.8"/>
<path class="st0" d="M68.2,66.8c0,0,6.1,4.3,8,13.1"/>
<path class="st0" d="M75.5,18.9c0,0,3-2.3,9-3.7"/>
</svg>
