<?xml version="1.0" encoding="utf-8"?>
<!-- Generator: Adobe Illustrator 21.1.0, SVG Export Plug-In . SVG Version: 6.00 Build 0)  -->
<svg version="1.1" id="Layer_1" xmlns="http://www.w3.org/2000/svg" xmlns:xlink="http://www.w3.org/1999/xlink" x="0px" y="0px"
	 viewBox="0 0 51.2 40.6" style="enable-background:new 0 0 51.2 40.6;" xml:space="preserve">
<style type="text/css">
	.st0{fill-rule:evenodd;clip-rule:evenodd;fill:none;stroke:#647883;stroke-linecap:round;stroke-miterlimit:10;}
	.st1{fill-rule:evenodd;clip-rule:evenodd;fill:none;stroke:#647883;stroke-miterlimit:10;}
</style>
<path class="st0" d="M18.4,1.1c5.7-1.4,11.9-0.5,17,2.6c5.1,3,8.8,8.1,10.2,13.8 M20.1,8.3c3.8-1,8-0.3,11.4,1.7l0,0
	c3.4,2,5.9,5.4,6.8,9.3 M21.9,15.5c2-0.5,4.1-0.2,5.8,0.9c1.7,1,3,2.8,3.5,4.7"/>
<path class="st1" d="M14.7,12.8L12,15.4l-0.1,0.2c-1.5,2.7-0.6,6.2,2.1,7.8l13.9,8.4c2.7,1.6,6.2,0.8,7.9-1.8l0.2-0.2l1-3.6
	c0.2-0.8,1-1.2,1.8-1l10.8,3.1c0.8,0.2,1.2,1.1,1,1.8l-1,3.4c-0.9,1.1-1.9,2.1-3,3.1c-3.4,3-8,4.1-12.4,3c-6-1.5-11.5-3.8-16.5-6.8
	c-5-3-9.6-6.9-13.8-11.4c-3-3.3-4.2-8-3.1-12.3C1.2,7.6,1.7,6.2,2.2,5l2.6-2.5c0.6-0.6,1.5-0.6,2.1,0l7.8,8.1
	C15.3,11.3,15.3,12.2,14.7,12.8z"/>
<line class="st1" x1="2.1" y1="5.3" x2="12" y2="15.5"/>
<line class="st1" x1="35.8" y1="29.9" x2="49.4" y2="33.8"/>
<path class="st0" d="M25.6,22.4c-0.3-1-1.3-1.7-2.4-1.4"/>
</svg>
