<?xml version="1.0" encoding="utf-8"?>
<!-- Generator: Adobe Illustrator 21.1.0, SVG Export Plug-In . SVG Version: 6.00 Build 0)  -->
<svg version="1.1" id="Layer_1" xmlns="http://www.w3.org/2000/svg" xmlns:xlink="http://www.w3.org/1999/xlink" x="0px" y="0px"
	 viewBox="0 0 238.1 16.9" style="enable-background:new 0 0 238.1 16.9;" xml:space="preserve">
<style type="text/css">
	.st0{fill:#111E3A;}
</style>
<g>
	<path class="st0" d="M49.4,4.7v7.6c0,0.8,0.4,1,1,1h0.9V3.7h-0.9C49.8,3.7,49.4,4,49.4,4.7z"/>
	<path class="st0" d="M49.4,1V2h0.9c0.8,0,1-0.4,1-1V0h-0.9C49.8,0.1,49.4,0.5,49.4,1z"/>
	<path class="st0" d="M55.8,10.3V0.1h-0.9c-0.8,0-1,0.4-1,1v9.2c0,0.8,0.1,1.5,0.5,1.9c0.4,0.5,0.8,0.9,1.4,1
		c0.4,0.1,0.8,0.1,0.9,0.1c0.4-0.1,0.6-0.4,0.6-0.8v-0.9c-0.4,0-0.8-0.1-0.9-0.4C56,11.1,55.8,10.8,55.8,10.3z"/>
	<path class="st0" d="M66.2,4.4c-0.9-0.8-1.9-1.3-3.2-1.3c-1.4,0-2.3,0.4-3.2,1.3c-0.9,0.8-1.5,1.7-1.5,2.8v2.3
		c0,1.3,0.5,2.1,1.5,2.8s1.9,1.3,3.2,1.3c1,0,2.2-0.4,2.9-1c0.4,0.5,0.6,0.8,1,0.8h0.6V7.3C67.9,6.3,67.2,5.2,66.2,4.4z M66,9.7
		c0,0.6-0.4,1-0.8,1.5c-0.6,0.5-1.4,0.8-1.9,0.8c-0.8,0-1.5-0.1-1.9-0.8c-0.7-0.4-1-0.9-1-1.5V7.3c0-0.6,0.4-1,0.8-1.5
		C61.8,5.3,62.6,5,63.1,5c0.8,0,1.5,0.1,1.9,0.8c0.5,0.4,0.8,0.9,0.8,1.5L66,9.7L66,9.7z"/>
	<path class="st0" d="M81.9,4.7L81.9,4.7v4.9c0,0.8-0.1,1.4-0.5,1.6c-0.4,0.4-0.8,0.5-1.5,0.5c-0.6,0-1-0.1-1.5-0.5
		c-0.4-0.4-0.6-0.9-0.6-1.6V3.7H77c-0.8,0-1,0.4-1,1v4.9c0,0.8-0.1,1.3-0.6,1.6c-0.4,0.4-0.9,0.5-1.5,0.5c-0.8,0-1.3-0.1-1.5-0.5
		c-0.1-0.4-0.5-0.9-0.5-1.6V3.8H71c-0.8,0-1,0.4-1,1v4.9c0,1.4,0.4,2.2,1,2.8c0.8,0.8,1.7,1,2.8,1c1.4,0,2.2-0.4,2.8-1.4
		c0.8,0.9,1.7,1.4,2.8,1.4c1.4,0,2.1-0.4,2.8-1c0.8-0.8,1-1.7,1-2.8V3.9h-0.9C82.3,3.7,81.9,4,81.9,4.7z"/>
	<path class="st0" d="M92.3,4.4l-2.6,7.3l0,0l-2.8-8h-1.4c-0.4,0-0.5,0.1-0.6,0.4c-0.1,0.1-0.1,0.4,0,0.6l2.8,8
		c0.1,0.5,0.6,0.8,1.3,0.9l-0.4,0.9c-0.1,0.1-0.1,0.4-0.5,0.5c-0.1,0.1-0.4,0.1-0.8,0.1v0.8c0,0.5,0.1,0.8,0.6,0.8
		c0.4,0.1,0.8,0,0.9-0.1c0.5-0.1,0.9-0.6,1-0.9c0.1-0.1,0.1-0.4,0.4-0.8c0.1-0.4,0.1-0.5,0.4-0.8l3.9-10.8l0,0h-1.5
		C92.9,3.7,92.5,4,92.3,4.4z"/>
	<path class="st0" d="M102.3,11c-0.1,0.1-0.1,0.1-0.4,0.1c-0.4,0.1-0.6,0.4-0.9,0.4c-0.5,0.1-0.9,0.1-1.5,0.1s-0.9-0.1-1.5-0.4
		c-0.5-0.4-0.8-0.8-0.8-1V9.4c0.1,0.1,0.1,0.1,0.4,0.1c0.1,0,0.1,0,0.4,0h2.3c0.5,0,0.9-0.1,1.4-0.1c0.6-0.1,0.9-0.4,1.4-0.6
		c0.4-0.4,0.6-0.6,0.9-0.9c0.1-0.5,0.4-0.9,0.4-1.5c0-0.6-0.1-1.3-0.6-1.7c-0.4-0.4-0.8-0.8-1.4-1c-0.8-0.4-1.7-0.5-2.6-0.5
		s-1.6,0.1-2.2,0.5c-0.8,0.6-1.5,1-1.7,1.7c-0.1,0.5-0.4,0.9-0.4,1.5v3.1c0,0.6,0.1,1.3,0.4,1.7c0.4,0.6,0.6,0.9,1,1.4
		c0.4,0.4,0.9,0.5,1.5,0.6c0.4,0.1,0.9,0.1,1.5,0.1c0.8,0,1.5-0.1,1.9-0.4c0.8-0.1,1.4-0.6,1.7-0.9c0.4-0.4,0.6-0.8,0.8-1l-0.9-0.6
		C103,10.6,102.6,10.7,102.3,11z M97.8,6.7c0-0.4,0.1-0.8,0.5-0.9c0.4-0.1,0.6-0.4,0.9-0.5c0.4-0.1,0.9-0.1,1.5-0.1
		c0.5,0.1,1.2,0.1,1.5,0.5c0.4,0.1,0.4,0.6,0.4,0.9c-0.4,0.4-0.4,0.8-0.8,0.8c-0.4,0.1-0.6,0.1-0.9,0.1h-3.1L97.8,6.7L97.8,6.7z"/>
	<path class="st0" d="M107.4,4.4C106.5,4.9,106,6,106,6.9l0,0v5.3c0,0.8,0.4,1,1.2,1h0.9V7.1c0-0.5,0.1-0.9,0.5-1.3
		c0.4-0.1,0.6-0.4,0.9-0.4h0.4c0.8,0,0.9-0.4,0.9-1V3.7h-1.4C108.6,3.7,108,4,107.4,4.4z"/>
	<path class="st0" d="M122,3.3c-1,0-1.9,0.4-2.6,0.9c-0.1,0.1-0.1,0.1-0.4,0.4c-0.1-0.1-0.4-0.4-0.4-0.4c-0.8-0.6-1.6-0.9-2.5-0.9
		c-1.4,0-2.2,0.4-2.8,1.3c-0.8,0.8-1.2,1.7-1.2,2.8v4.9c0,0.8,0.4,1,1.2,1h0.9V7.5c0-0.8,0.1-1.4,0.5-1.7c0.4-0.3,0.8-0.5,1.5-0.5
		c0.6,0,1.2,0.1,1.5,0.6c0.4,0.4,0.6,0.9,0.6,1.6v4.9c0,0.8,0.4,1,1.2,1h0.9V7.6c0-0.8,0.1-1.3,0.6-1.6c0.4-0.4,0.8-0.6,1.5-0.6
		c0.8,0,1.3,0.1,1.5,0.5c0.4,0.4,0.5,0.9,0.5,1.7v4.9c0,0.8,0.4,1,1,1h0.9V7.6c0-1.4-0.4-2.2-1.2-2.8C124.2,3.8,123.3,3.3,122,3.3z"
		/>
	<path class="st0" d="M135.8,4.4c-0.9-0.8-1.9-1.3-3.2-1.3c-1.4,0-2.3,0.4-3.2,1.3c-0.9,0.8-1.5,1.7-1.5,2.8v2.3
		c0,1.3,0.5,2.1,1.5,2.8c0.9,0.8,1.9,1.3,3.2,1.3c1.2,0,2.2-0.4,2.9-1c0.4,0.5,0.6,0.8,1,0.8h0.6V7.3C137.1,6.3,136.7,5.2,135.8,4.4
		z M135.2,9.7c0,0.6-0.4,1-0.8,1.5c-0.6,0.5-1.4,0.8-1.9,0.8c-0.8,0-1.5-0.1-1.9-0.8c-0.5-0.4-0.8-0.9-0.8-1.5V7.3
		c0-0.6,0.4-1,0.8-1.5c0.6-0.5,1.4-0.8,1.9-0.8c0.8,0,1.5,0.1,1.9,0.8c0.5,0.4,0.8,0.9,0.8,1.5V9.7z"/>
	<path class="st0" d="M140.5,4.4c-0.9,0.5-1.4,1.6-1.4,2.6v5.3c0,0.8,0.4,1,1,1h0.9V7.1c0-0.5,0.1-0.9,0.5-1.3
		c0.4-0.1,0.6-0.4,0.9-0.4h0.4c0.8,0,0.9-0.4,0.9-1V3.7h-1.4C141.9,3.7,141.1,4,140.5,4.4z"/>
	<path class="st0" d="M150.9,8c0.1-0.1,0.4-0.4,0.4-0.6l2.3-3.9H152c-0.5,0-0.9,0.1-1.3,0.8L149,7.2c-0.3,0.5-0.7,0.5-0.9,0.5h-0.8
		V0.1h-0.9c-0.8,0-1,0.4-1,1l0,0v11.1c0,0.8,0.4,1,1,1h0.9V9.5h2.1c0.5,0,0.9,0.4,1.2,0.8l1,2.4c0.1,0.4,0.6,0.6,1.3,0.6h1.4
		l-1.7-3.9C152.3,8.8,151.7,8.3,150.9,8z"/>
	<path class="st0" d="M161.9,11c-0.1,0.1-0.1,0.1-0.4,0.1c-0.4,0.1-0.6,0.4-0.9,0.4c-0.5,0.1-0.9,0.1-1.5,0.1
		c-0.5,0-0.9-0.1-1.5-0.4c-0.5-0.4-0.8-0.8-0.8-1V9.4c0.1,0.1,0.1,0.1,0.4,0.1c0.1,0,0.1,0,0.4,0h2.3c0.5,0,0.9-0.1,1.4-0.1
		c0.5-0.1,0.9-0.4,1.3-0.6c0.4-0.4,0.6-0.6,0.9-0.9c0.1-0.5,0.4-0.9,0.4-1.5c0-0.6-0.1-1.3-0.6-1.7c-0.4-0.4-0.8-0.8-1.4-1
		c-0.8-0.4-1.7-0.5-2.6-0.5s-1.6,0.1-2.2,0.5c-0.8,0.6-1.4,1-1.6,1.7c-0.2,0.6-0.4,0.9-0.4,1.3v3.2c0,0.6,0.1,1.3,0.4,1.7
		c0.4,0.6,0.6,0.9,1.2,1.4c0.4,0.4,0.9,0.5,1.5,0.6c0.4,0.1,0.9,0.1,1.6,0.1c0.8,0,1.5-0.1,1.9-0.4c0.8-0.1,1.4-0.6,1.7-0.9
		c0.4-0.4,0.6-0.8,0.8-1l-0.9-0.5C162.5,10.6,162.3,10.7,161.9,11z M157.3,6.7c0-0.4,0.1-0.8,0.5-0.9c0.4-0.1,0.6-0.4,0.9-0.5
		c0.4-0.1,0.9-0.1,1.5-0.1c0.5,0.1,1,0.1,1.5,0.5c0.4,0.1,0.4,0.6,0.4,0.9c-0.1,0.4-0.1,0.8-0.6,0.8c-0.4,0.1-0.6,0.1-0.9,0.1h-3.2
		L157.3,6.7L157.3,6.7z"/>
	<path class="st0" d="M167.7,0.1H167c-0.8,0-1,0.4-1,1v9.2c0,0.8,0.1,1.5,0.5,1.9c0.4,0.5,0.8,0.9,1.4,1c0.4,0.1,0.8,0.1,0.9,0.1
		c0.4-0.1,0.6-0.4,0.6-0.8v-0.9c-0.4,0-0.8-0.1-0.9-0.4c-0.4-0.4-0.5-0.8-0.5-1.3V5.6h1.4c0.8,0,1.2-0.4,1.2-1V3.8h-2.2V0.1H167.7z"
		/>
	<path class="st0" d="M171.8,4.7v7.6c0,0.8,0.4,1,1,1h0.9V3.7h-0.9C172.1,3.7,171.8,4,171.8,4.7z"/>
	<path class="st0" d="M171.8,1V2h0.9c0.8,0,1.2-0.4,1.2-1V0H173C172.1,0.1,171.8,0.5,171.8,1z"/>
	<path class="st0" d="M180.5,3.3c-1.3,0-2.2,0.4-3.1,1C176.5,5,176,6,176,7.1v5.2c0,0.8,0.4,1,1.2,1h0.9V7.2c0-0.5,0.1-0.9,0.8-1.5
		c0.6-0.4,1.3-0.8,1.8-0.8c0.8,0,1.5,0.1,1.8,0.8c0.5,0.4,0.8,0.8,0.8,1.5v5.2c0,0.8,0.4,1,1,1h0.9V7.2c0-1-0.5-1.9-1.5-2.8
		C182.7,3.8,181.7,3.3,180.5,3.3z"/>
	<path class="st0" d="M194.9,4.4c-0.9-0.8-1.9-1.3-3.2-1.3c-1.4,0-2.3,0.4-3.2,1.3c-0.9,0.8-1.5,1.7-1.5,2.8v2.3
		c0,1.3,0.5,2.1,1.5,2.8c0.9,0.8,1.9,1.3,3.2,1.3c1.2,0,1.9-0.4,2.7-0.8v0.4c0,0.9-0.5,1.5-1.5,1.7c-0.5,0.1-1.2,0.1-1.7,0.1
		c-0.8,0-1.4-0.1-1.7-0.4l-0.1,0.8c-0.1,0.4-0.1,0.6,0,0.8c0.1,0.1,0.5,0.4,0.9,0.5c0.5,0.1,0.9,0.1,1.6,0.1c0.6,0,1.3-0.1,1.7-0.1
		c0.9-0.4,1.9-0.9,2.5-1.9c0.4-0.5,0.4-1,0.4-1.7v-6C196.2,6.3,195.7,5.2,194.9,4.4z M194.4,9.7c0,0.6-0.4,1-0.8,1.5
		c-0.6,0.5-1.4,0.8-1.9,0.8c-0.8,0-1.5-0.1-1.9-0.8c-0.5-0.4-0.8-0.9-0.8-1.5V7.3c0-0.6,0.4-1,0.8-1.5c0.6-0.5,1.4-0.8,1.9-0.8
		c0.8,0,1.5,0.1,1.9,0.8c0.5,0.4,0.8,0.9,0.8,1.5V9.7z"/>
	<path class="st0" d="M198.5,12.3v1.3h0.9c0.8,0,1.2-0.4,1.2-1v-1.5h-0.9C198.9,11.1,198.5,11.5,198.5,12.3z"/>
	<path class="st0" d="M205.3,5.9c0.5-0.4,1.3-0.8,1.8-0.8c0.8,0,1.5,0.1,1.8,0.8C209,6,209,6,209.3,6.3c0.4,0.4,0.8,0.5,1.4,0.1
		l0.9-0.5c-0.1-0.6-0.6-1-1.3-1.6c-0.9-0.8-1.9-1-3.1-1c-1.3,0-2.2,0.4-3.1,1c-0.9,0.8-1.5,1.7-1.5,2.8v2.6c0,1,0.5,1.9,1.5,2.8
		c0.9,0.8,1.8,1,3.1,1c1.4,0,2.2-0.4,3.1-1c0.5-0.5,0.9-0.9,1.3-1.6l-0.9-0.5c-0.5-0.4-0.9-0.1-1.4,0.1c-0.1,0.1-0.1,0.1-0.4,0.4
		c-0.5,0.4-1.3,0.6-1.8,0.6c-0.8,0-1.5-0.1-1.8-0.6c-0.5-0.4-0.8-0.8-0.8-1.5V7C204.6,6.7,204.8,6.3,205.3,5.9z"/>
	<path class="st0" d="M220.9,4.4c-0.9-0.8-1.9-1.3-3.2-1.3c-1.4,0-2.3,0.4-3.2,1.3c-0.9,0.8-1.5,1.7-1.5,2.8v2.3
		c0,1.3,0.5,2.1,1.5,2.8c0.9,0.8,1.9,1.3,3.2,1.3c1.3,0,2.3-0.4,3.2-1.3c0.9-0.8,1.5-1.7,1.5-2.8V7.3C222.1,6.3,221.6,5.2,220.9,4.4
		z M220.3,9.7c0,0.6-0.4,1-0.8,1.5c-0.6,0.5-1.4,0.8-1.9,0.8c-0.8,0-1.5-0.1-1.9-0.8c-0.5-0.4-0.8-0.9-0.8-1.5V7.3
		c0-0.6,0.4-1,0.8-1.5c0.6-0.5,1.4-0.8,1.9-0.8c0.8,0,1.5,0.1,1.9,0.8c0.5,0.4,0.8,0.9,0.8,1.5V9.7z"/>
	<path class="st0" d="M236.9,4.4c-0.8-0.8-1.7-1.3-2.8-1.3c-1,0-1.9,0.4-2.6,0.9c-0.1,0.1-0.1,0.1-0.4,0.4c-0.1-0.1-0.4-0.4-0.4-0.4
		c-0.8-0.6-1.6-0.9-2.4-0.9c-1.4,0-2.2,0.4-2.8,1.3c-0.7,0.8-1.2,1.7-1.2,2.8v4.9c0,0.8,0.4,1,1.2,1h0.9V7.3c0-0.8,0.1-1.4,0.5-1.7
		c0.4-0.4,0.8-0.5,1.5-0.5c0.6,0,1.2,0.1,1.5,0.6c0.4,0.4,0.6,0.9,0.6,1.6v5c0,0.8,0.4,1,1,1h0.9V7.5c0-0.8,0.1-1.3,0.6-1.6
		c0.4-0.4,0.8-0.6,1.5-0.6c0.7,0,1.3,0.1,1.5,0.5c0.4,0.4,0.5,0.9,0.5,1.7v4.9c0,0.8,0.4,1,1,1h0.9V7.6
		C237.9,6.2,237.5,5.2,236.9,4.4z"/>
	<path class="st0" d="M2.8,7.9c-0.6-0.3-1-0.7-1-1.5s0.4-0.9,0.9-0.9c1,0,1.1,0.9,1.1,1.6h1.7c0-0.9,0.1-3.1-2.7-3.1
		C1,4.2,0.2,4.9,0.2,6.7c0,0.5,0.1,0.9,0.5,1.5c0.8,0.9,1.8,1.5,2.8,2.1c0.6,0.3,0.8,0.7,0.8,1.3c0,0.8-0.4,1-1,1
		c-0.9,0-1.3-0.8-1-1.6v-0.6H0v0.9c0,1.7,0.8,2.8,2.8,2.8c1.7,0,2.8-0.9,2.8-2.7c0-0.8-0.1-1.5-0.8-1.9C4.4,8.9,3.5,8,2.8,7.9z"/>
	<rect x="7.6" y="4.4" class="st0" width="1.7" height="9.4"/>
	<polygon class="st0" points="11.1,5.8 13.2,5.8 13.2,13.8 14.9,13.8 14.9,5.8 16.9,5.8 16.9,4.4 11.1,4.4 	"/>
	<polygon class="st0" points="18.4,13.8 23.5,13.8 23.5,12.4 20.3,12.4 20.3,9.6 23.1,9.6 23.1,8 20.3,8 20.3,5.8 23.5,5.8 
		23.5,4.4 18.4,4.4 	"/>
	<path class="st0" d="M33,8.8L33,8.8c0.9-0.4,1.3-1.3,1.3-1.9s-0.2-1.3-0.6-1.7c-0.5-0.8-1.4-0.8-1.9-0.8H29v9.4h3.2
		c1.4,0,1.9-0.5,2.3-1.7c0.1-0.4,0.1-0.8,0.1-1.3C34.4,9.9,34,8.9,33,8.8z M30.6,5.8h0.8c0.8,0,0.9,0.4,0.9,1c0,0.5,0,0.8-0.1,0.9
		c-0.4,0.4-0.9,0.4-1.4,0.4h-0.4C30.6,8.3,30.6,5.8,30.6,5.8z M32.2,12.4c-0.4,0.1-0.8,0.1-1,0.1l0,0h-0.4V9.7h0.8
		c1,0,1.4,0.4,1.4,1.5C32.6,11.5,32.4,12.1,32.2,12.4z"/>
	<path class="st0" d="M39.7,6.7c-0.1,0.5-0.5,1.1-0.6,1.7l0,0C39,7.9,39,7.4,38.7,6.9l-1-2.4h-1.9l2.4,5.3v4h1.7v-4l2.4-5.3h-1.9
		L39.7,6.7z"/>
</g>
</svg>
