<?xml version="1.0" encoding="utf-8"?>
<!-- Generator: Adobe Illustrator 21.1.0, SVG Export Plug-In . SVG Version: 6.00 Build 0)  -->
<svg version="1.1" id="Layer_1" xmlns="http://www.w3.org/2000/svg" xmlns:xlink="http://www.w3.org/1999/xlink" x="0px" y="0px"
	 viewBox="0 0 482.5 25.2" style="enable-background:new 0 0 482.5 25.2;" xml:space="preserve">
<g>
	<path d="M19.5,18.1c0,2.2-0.8,3.8-2.4,4.9c-1.6,1.1-3.8,1.6-6.5,1.6H0V24l2.8-0.5V1.7L0,1.3V0.6h9.1c3.2,0,5.4,0.4,6.8,1.3
		c1.4,0.9,2,2.3,2,4.3c0,2.9-1.8,4.7-5.5,5.5v0.2C17.2,12.5,19.5,14.6,19.5,18.1z M9.1,1.3H6.1v10.3h3.3c1.6,0,2.8-0.5,3.7-1.3
		c0.9-0.9,1.3-2.2,1.3-3.8V6.3C14.4,3,12.6,1.3,9.1,1.3z M10.6,12.4H6.1v11.5h4.5c1.7,0,3-0.5,4-1.5c0.9-1,1.4-2.4,1.4-4.2v-0.3
		c0-1.8-0.5-3.2-1.4-4.1C13.6,12.8,12.3,12.4,10.6,12.4z"/>
	<path d="M35.2,7.8H36v9.5h-0.8l-1.8-4.4h-3.9v11h9.4l2.5-6.6h0.8v7.3H23.5V24l2.8-0.5V1.7l-2.8-0.4V0.6h18.1v6.9h-0.8l-2.3-6.1
		h-8.9v10.8h3.9L35.2,7.8z"/>
	<path d="M65.1,0h0.6v7.4h-0.6l-2-5c-1.4-1.2-3.2-1.8-5.2-1.8s-3.7,0.8-5.1,2.4c-1.4,1.6-2.1,3.9-2.1,6.7v5.5c0,2.9,0.6,5.1,1.9,6.7
		c1.3,1.6,3,2.4,5.1,2.4c1.7,0,3.1-0.6,4-1.7c0.9-1.2,1.4-2.7,1.4-4.7v-3.4l-2.8-0.4v-0.7h9v0.7l-2.8,0.4v3.4c0,2-0.7,3.7-2.2,5.1
		c-1.5,1.4-3.7,2.1-6.6,2.1c-3.3,0-5.9-1.2-7.9-3.5c-2-2.3-3-5.4-3-9.1s1-6.8,3.1-9.1C52,1.2,54.7,0,58,0c2,0,3.8,0.5,5.2,1.6
		L65.1,0z"/>
	<path d="M76.2,24v0.6h-6.4V24l2.9-1.2L81.4,0h0.5L90,23.5l2.8,0.5v0.6H84V24l2.5-0.4l-2.6-7.1h-8l-2.4,6.3L76.2,24z M80.1,5.3
		l-3.9,10.6h7.5L80.1,5.3z"/>
	<path d="M97.6,22.8V1.7l-2.8-0.4V0.6h6.6l7.5,19.3l7.7-19.3h6.1v0.7L120,1.7v21.8l2.8,0.5v0.6H114V24l2.8-0.5V2.6l-8.9,22.3h-0.5
		L98.4,1.7v21.1l2.9,1.2v0.6h-6.4V24L97.6,22.8z"/>
	<path d="M138.1,22.8V1.7l-2.8-0.4V0.6h6.6l7.5,19.3l7.7-19.3h6.1v0.7l-2.8,0.4v21.8l2.8,0.5v0.6h-8.8V24l2.8-0.5V2.6l-8.9,22.3
		h-0.5l-8.9-23.2v21.1l2.9,1.2v0.6h-6.4V24L138.1,22.8z"/>
	<path d="M171.4,24v0.6H165V24l2.9-1.2L176.6,0h0.5l8.2,23.5l2.8,0.5v0.6h-8.8V24l2.5-0.4l-2.6-7.1h-8l-2.4,6.3L171.4,24z
		 M175.3,5.3l-3.9,10.6h7.5L175.3,5.3z"/>
	<path d="M210.8,22.5l0.5,0.5c-1.1,1.2-2.4,1.8-3.8,1.8c-1.1,0-2-0.3-2.5-0.8s-0.9-1.5-1.1-2.8l-0.6-4c-0.4-2.9-2-4.3-4.8-4.3h-2.3
		v10.6l2.8,0.5v0.6h-8.8V24l2.8-0.5V1.7l-2.8-0.4V0.6h8.4c3.3,0,5.6,0.5,7.1,1.5c1.5,1,2.2,2.6,2.2,4.6c0,3.4-2.1,5.4-6.2,6v0.2
		c3.1,0.4,5,2.2,5.5,5.2l0.4,2.6c0.2,1,0.3,1.7,0.5,2.1c0.2,0.5,0.6,0.8,1.1,0.8S210.2,23.2,210.8,22.5z M198.5,1.3h-2.3v10.9h3.4
		c1.5,0,2.6-0.4,3.4-1.3c0.8-0.9,1.2-2.2,1.2-3.9V6.3C204.1,3,202.3,1.3,198.5,1.3z"/>
	<path d="M235.2,24.6h-8.9V24l2.7-0.4l-7.9-11.9l-1.8,1.8v10l2.8,0.5v0.6h-8.8V24l2.8-0.5V1.7l-2.8-0.4V0.6h8.8v0.7l-2.8,0.4v10.8
		l9.8-10l-3.3-1.3V0.6h6.9v0.7l-2.5,1.3l-6.8,6.8l9.6,14.2l2,0.5V24.6z"/>
	<path d="M252,0h0.7v6.1H252l-2.2-4.4c-1.5-0.7-3.1-1.1-4.9-1.1c-1.8,0-3.1,0.4-4.1,1.3c-1,0.9-1.5,2.1-1.5,3.5
		c0,1.1,0.4,1.9,1.1,2.5c0.7,0.6,1.8,1.1,3.1,1.5l5.4,1.4c1.7,0.4,3,1.2,3.9,2.3s1.3,2.7,1.3,4.9c0,2.2-0.7,3.9-2.1,5.2
		c-1.4,1.3-3.2,1.9-5.5,1.9c-1.9,0-3.7-0.5-5.5-1.6l-2.5,1.3h-0.7v-7.7h0.7l2.6,5.6c1.7,1.2,3.5,1.8,5.4,1.8c1.9,0,3.5-0.5,4.6-1.4
		s1.7-2.2,1.7-3.9c0-1.2-0.4-2.2-1.1-2.9s-1.9-1.3-3.6-1.7l-5-1.3c-1.7-0.5-3-1.2-3.9-2.4c-0.9-1.1-1.3-2.4-1.3-3.9
		c0-2.1,0.6-3.8,1.9-5.1c1.2-1.3,3-1.9,5.2-1.9c1.8,0,3.5,0.3,4.9,0.9L252,0z"/>
	<path d="M278.8,15.9c-2,0-3,0.5-3,1.7c0,0.6,0.3,0.8,1,0.8s1.1-0.3,1.4-0.8c1,0.2,1.5,0.8,1.5,1.7c0,0.5-0.2,0.9-0.5,1.3
		s-0.8,0.5-1.5,0.5c-0.6,0-1.2-0.3-1.7-1c-0.5-0.7-0.8-1.5-0.8-2.6s0.4-2,1.3-2.9c0.9-0.8,2-1.3,3.5-1.3c0.9,0,2,0.1,3.2,0.3
		c1.2,0.2,2.2,0.3,3,0.3c0.8,0,1.4-0.1,2-0.4c0.6-0.3,0.9-0.7,0.9-1.2c0-0.6-0.3-0.9-0.9-0.9s-1.1,0.3-1.3,0.8
		c-1-0.2-1.5-0.8-1.5-1.7c0-0.5,0.2-0.9,0.5-1.3c0.4-0.4,0.8-0.5,1.5-0.5c0.6,0,1.2,0.3,1.7,0.9s0.7,1.3,0.7,2.3
		c0,3.1-1.5,4.7-4.5,4.7c-0.9,0-1.6,0-2.1-0.1c0.2,0.8,0.2,1.5,0.2,2.2c0,2.1-0.6,3.7-1.7,4.8c-1.2,1.1-2.7,1.7-4.7,1.7
		c-3.2,0-5.7-0.6-7.2-1.9s-2.4-3-2.4-5.1c0-2.1,0.8-3.8,2.3-4.9c1.5-1.1,3.5-1.8,6-1.9v-0.1c-2.5-0.3-4.3-0.9-5.5-1.8
		c-1.2-0.9-1.8-2.2-1.8-4s0.7-3.1,2-4.1c1.3-0.9,3.2-1.4,5.7-1.4c1.6,0,3,0.4,4.1,1.2c1.1,0.8,1.6,1.8,1.6,3.1
		c0,0.7-0.2,1.2-0.6,1.5s-0.8,0.6-1.3,0.6s-0.9-0.2-1.2-0.5s-0.5-0.7-0.5-1.3c0.8-0.4,1.3-1,1.3-1.9c0-0.6-0.3-1.1-0.8-1.5
		c-0.5-0.4-1.3-0.6-2.2-0.6c-1.4,0-2.4,0.4-3.3,1.2c-0.8,0.8-1.2,1.9-1.2,3.2c0,1.9,0.6,3.3,1.7,4.2s2.8,1.4,5,1.5v0.7
		c-4.7,0.3-7.1,2.5-7.1,6.5c0,2,0.5,3.6,1.6,4.7c1.1,1.2,2.5,1.7,4.1,1.7c1.6,0,3-0.5,4-1.5c1-1,1.5-2.4,1.5-4.3
		c0-0.7-0.1-1.5-0.3-2.4c-0.3,0-0.7-0.1-1.1-0.2C280.1,16,279.4,15.9,278.8,15.9z"/>
	<path d="M319.6,7.3l-2.2-5.9h-5v22.2l2.8,0.5v0.6h-8.8V24l2.8-0.5V1.3h-5l-2.3,5.9H301V0.6h19.5v6.7H319.6z"/>
	<path d="M344.5,22.5l0.5,0.5c-1.1,1.2-2.4,1.8-3.8,1.8c-1.1,0-2-0.3-2.5-0.8s-0.9-1.5-1.1-2.8l-0.6-4c-0.4-2.9-2-4.3-4.8-4.3h-2.3
		v10.6l2.8,0.5v0.6h-8.8V24l2.8-0.5V1.7l-2.8-0.4V0.6h8.4c3.3,0,5.6,0.5,7.1,1.5c1.5,1,2.2,2.6,2.2,4.6c0,3.4-2.1,5.4-6.2,6v0.2
		c3.1,0.4,5,2.2,5.5,5.2l0.4,2.6c0.2,1,0.3,1.7,0.5,2.1c0.2,0.5,0.6,0.8,1.1,0.8S343.9,23.2,344.5,22.5z M332.2,1.3h-2.3v10.9h3.4
		c1.5,0,2.6-0.4,3.4-1.3c0.8-0.9,1.2-2.2,1.2-3.9V6.3C337.9,3,336,1.3,332.2,1.3z"/>
	<path d="M351.6,24v0.6h-6.4V24l2.9-1.2L356.8,0h0.5l8.2,23.5l2.8,0.5v0.6h-8.8V24l2.5-0.4l-2.5-7.1h-8l-2.4,6.3L351.6,24z
		 M355.5,5.3l-3.9,10.6h7.5L355.5,5.3z"/>
	<path d="M388.3,18c0,2.4-0.7,4.2-2,5.4c-1.3,1.2-3.5,1.8-6.5,1.8s-5.2-0.7-6.5-2c-1.4-1.3-2-3-2-5.2V1.7l-2.8-0.4V0.6h8.8v0.7
		l-2.8,0.4V18c0,4.1,2.2,6.1,6.7,6.1c4.2,0,6.4-2,6.4-6.1V2.4l-2.8-1.2V0.6h6.4v0.7l-2.9,1.2V18z"/>
	<path d="M394.6,0.6h8.8v0.7l-2.8,0.4v22.2h9l2.5-6.6h0.8v7.3h-18.3V24l2.8-0.5V1.7l-2.8-0.4V0.6z"/>
	<path d="M431.2,0h0.7v6.1h-0.7l-2.2-4.4c-1.5-0.7-3.1-1.1-4.9-1.1c-1.8,0-3.1,0.4-4.1,1.3c-1,0.9-1.5,2.1-1.5,3.5
		c0,1.1,0.4,1.9,1.1,2.5c0.7,0.6,1.8,1.1,3.1,1.5l5.4,1.4c1.7,0.4,3,1.2,3.9,2.3c0.8,1.1,1.3,2.7,1.3,4.9c0,2.2-0.7,3.9-2.1,5.2
		s-3.2,1.9-5.5,1.9c-1.9,0-3.7-0.5-5.5-1.6l-2.5,1.3h-0.7v-7.7h0.7l2.6,5.6c1.7,1.2,3.5,1.8,5.4,1.8s3.5-0.5,4.6-1.4
		s1.7-2.2,1.7-3.9c0-1.2-0.4-2.2-1.1-2.9s-1.9-1.3-3.6-1.7l-5-1.3c-1.7-0.5-3-1.2-3.9-2.4c-0.9-1.1-1.3-2.4-1.3-3.9
		c0-2.1,0.6-3.8,1.9-5.1c1.2-1.3,3-1.9,5.2-1.9c1.8,0,3.5,0.3,4.9,0.9L431.2,0z"/>
	<path d="M449,7.8h0.8v9.5H449l-1.8-4.4h-3.9v11h9.4l2.5-6.6h0.8v7.3h-18.7V24l2.8-0.5V1.7l-2.8-0.4V0.6h18.1v6.9h-0.8l-2.3-6.1
		h-8.9v10.8h3.9L449,7.8z"/>
	<path d="M463.2,22.8V2.4l-2.8-1.2V0.6h5.6l12.9,18.1V2.4l-2.8-1.2V0.6h6.4v0.7l-2.8,1.2v22.2h-0.8l-15-21v19.2l2.9,1.2v0.6h-6.4V24
		L463.2,22.8z"/>
</g>
</svg>
