<svg id="motor" data-name="Layer 1" xmlns="http://www.w3.org/2000/svg" viewBox="0 0 153.5 65.26"><defs><style></style></defs><title>cr-icon-04</title><path class="motor-cls-1" d="M102.3,35.5a15.47,15.47,0,0,1,4.3-.7,14,14,0,1,1-9.5,3.7" transform="translate(0 0.06)"/><path class="motor-cls-1" d="M106.6,56.6a7.8,7.8,0,1,1,7.8-7.8A7.94,7.94,0,0,1,106.6,56.6Z" transform="translate(0 0.06)"/><polyline class="motor-cls-1" points="84 11.26 82.6 8.86 69.8 6.55"/><line class="motor-cls-1" x1="100.4" y1="43.86" x2="94" y2="33.06"/><line class="motor-cls-1" x1="105" y1="40.76" x2="98.6" y2="30.16"/><path class="motor-cls-1" d="M32,44.7a8.15,8.15,0,0,1,6.9-3.9,7.93,7.93,0,0,1,8,7.5v.5" transform="translate(0 0.06)"/><path class="motor-cls-1" d="M51.1,55.8a14.05,14.05,0,0,1-26.2-5.6m1-6.4A14,14,0,0,1,53,48.9v.9" transform="translate(0 0.06)"/><path class="motor-cls-1" d="M71.9,54h-.3a41.17,41.17,0,0,1-8.3-1.4c-1.1-.3-2.2-.6-3.1-.8-9-1.9-18.1-4-27-5.9C29,45,24.8,44,20.6,43.1l-1.2-.3A2.61,2.61,0,0,0,16.1,45a2.91,2.91,0,0,0,2.2,3.3l1.2.3c4.5,1,48,10.8,48.4,10.9a12.42,12.42,0,0,0,3.3.4h.9a12.47,12.47,0,0,0,9.2-4.2,13.12,13.12,0,0,0,3-6" transform="translate(0 0.06)"/><path class="motor-cls-1" d="M91.6,4.5A3,3,0,0,0,90,4a3.08,3.08,0,0,0-1.3.3,2.79,2.79,0,0,0-1.5,2.4v4.6a9.7,9.7,0,0,0-1.7.1,12.29,12.29,0,0,0-2.5.5,17,17,0,0,0-4.1,1.5,55.1,55.1,0,0,0-5.8,3.4c-7,4.6-11.7,4.7-19.7,3.5-7-1-21.5-3.8-27,2.5-1.1,1.2,3.4,5.7,5.2,5.8h.5a35.42,35.42,0,0,1,4.5-.2c9.1,0,15.5,3.1,20.5,10.6,3,4.6,6.8,10.3,14.3,10.3,8,0,12.9-6,17.3-11.2,1.6-1.9,3.1-3.7,4.7-5.3a5.72,5.72,0,0,1,.8-.7A13.44,13.44,0,0,1,95.6,31a8,8,0,0,1,1.4-.9,10.48,10.48,0,0,1,5.4-1.5h.6a2.73,2.73,0,0,0,1.9-.8,3,3,0,0,0,.8-2C105.8,16.6,96.5,7.8,91.6,4.5Z" transform="translate(0 0.06)"/><line class="motor-cls-1" x1="70.9" y1="43.36" x2="79.8" y2="39.26"/><line class="motor-cls-1" x1="70.9" y1="37.16" x2="79.8" y2="33.06"/><line class="motor-cls-1" x1="70.9" y1="31.06" x2="79.8" y2="26.96"/><line class="motor-cls-1" x1="95.3" y1="22.56" x2="104.4" y2="22.56"/><line class="motor-cls-1" x1="102.3" y1="17.16" x2="90.8" y2="17.16"/><line class="motor-cls-2" x1="4.9" y1="37.06" x2="8.6" y2="37.06"/><line class="motor-cls-2" x1="28" y1="3.46" x2="26.1" y2="0.26"/><line class="motor-cls-2" x1="22.5" y1="7.36" x2="20.1" y2="4.56"/><line class="motor-cls-2" x1="17.7" y1="12.16" x2="14.9" y2="9.76"/><line class="motor-cls-2" x1="13.8" y1="17.66" x2="10.6" y2="15.86"/><line class="motor-cls-2" x1="10.9" y1="23.86" x2="7.5" y2="22.56"/><line class="motor-cls-2" x1="9.2" y1="30.36" x2="5.6" y2="29.66"/><line class="motor-cls-2" x1="129.5" y1="64.76" x2="153.5" y2="64.76"/><line class="motor-cls-2" y1="64.76" x2="22.1" y2="64.76"/><line class="motor-cls-2" x1="53.5" y1="64.76" x2="98.1" y2="64.76"/></svg>