<svg id="fire" data-name="Layer 1" xmlns="http://www.w3.org/2000/svg" viewBox="0 0 65.2 89.67"><defs><style></style></defs><title>cr-icon-02</title><path class="fire-cls-1" d="M0,89.1H17.1l-4.3-4.3A28.51,28.51,0,0,1,4.4,64.5v-1A28.32,28.32,0,0,1,9.2,48.6c1.5-2,4.8-7.4,4.4-13.8a25.18,25.18,0,0,0-.9-5.7,16,16,0,0,1,7.9,7L25,44.3l.3-9.2A51.6,51.6,0,0,1,39.4,1.5a44.32,44.32,0,0,0-.7,8.1,45.68,45.68,0,0,0,5.8,22.2l1.6,2.8,2.3-2.2a17.39,17.39,0,0,1,5-3.3.37.37,0,0,1-.1.3h0c-.1.4-.2.9-.3,1.3h.1c-.2,1.6-.4,3.6-.4,4.1-.4,6.3,2.9,11.7,4.4,13.8a29.24,29.24,0,0,1,4.8,14.9v1a28.51,28.51,0,0,1-8.4,20.3l-4.3,4.3h16" transform="translate(0 0.07)"/><rect class="cls-2" x="32.1" y="63.77" width="3.1" height="3.1"/><rect class="cls-2" x="32.1" y="69.57" width="3.1" height="3.1"/><rect class="cls-2" x="32.1" y="75.67" width="3.1" height="3.1"/><rect class="cls-2" x="32.1" y="81.87" width="3.1" height="3.1"/></svg>