<svg id="new_phone" data-name="Layer 1" xmlns="http://www.w3.org/2000/svg" viewBox="0 0 51.25 40.56"><defs><style></style></defs><title>icon-phone</title><path class="new_phone-cls-1" d="M18.4,1.1a22.57,22.57,0,0,1,17,2.6A22.29,22.29,0,0,1,45.6,17.5M20.1,8.3A15.2,15.2,0,0,1,31.5,10h0a14.68,14.68,0,0,1,6.8,9.3M21.9,15.5a7.36,7.36,0,0,1,5.8.9,7.91,7.91,0,0,1,3.5,4.7" transform="translate(0.1 0.04)"/><path class="new_phone-cls-2" d="M14.7,12.8,12,15.4l-.1.2A5.82,5.82,0,0,0,14,23.4l13.9,8.4A5.88,5.88,0,0,0,35.8,30l.2-.2,1-3.6a1.43,1.43,0,0,1,1.8-1l10.8,3.1a1.47,1.47,0,0,1,1,1.8l-1,3.4a29.12,29.12,0,0,1-3,3.1,13.65,13.65,0,0,1-12.4,3,60.37,60.37,0,0,1-16.5-6.8A64.41,64.41,0,0,1,3.9,21.4,13.5,13.5,0,0,1,.8,9.1,32.63,32.63,0,0,1,2.2,5L4.8,2.5a1.45,1.45,0,0,1,2.1,0l7.8,8.1A1.57,1.57,0,0,1,14.7,12.8Z" transform="translate(0.1 0.04)"/><line class="new_phone-cls-2" x1="2.2" y1="5.34" x2="12.1" y2="15.54"/><line class="new_phone-cls-2" x1="35.9" y1="29.94" x2="49.5" y2="33.84"/><path class="new_phone-cls-1" d="M25.6,22.4A2,2,0,0,0,23.2,21" transform="translate(0.1 0.04)"/></svg>