<svg id="logo" data-name="Layer 1" xmlns="http://www.w3.org/2000/svg" viewBox="0 0 482.5 25.2"><title>logo</title><path d="M19.5,18.1A5.52,5.52,0,0,1,17.1,23a11.38,11.38,0,0,1-6.5,1.6H0V24l2.8-.5V1.7L0,1.3V.6H9.1c3.2,0,5.4.4,6.8,1.3s2,2.3,2,4.3c0,2.9-1.8,4.7-5.5,5.5v.2C17.2,12.5,19.5,14.6,19.5,18.1ZM9.1,1.3h-3V11.6H9.4a5.35,5.35,0,0,0,3.7-1.3,5.17,5.17,0,0,0,1.3-3.8V6.3C14.4,3,12.6,1.3,9.1,1.3Zm1.5,11.1H6.1V23.9h4.5a5.35,5.35,0,0,0,4-1.5A6.07,6.07,0,0,0,16,18.2v-.3a5.64,5.64,0,0,0-1.4-4.1A5.3,5.3,0,0,0,10.6,12.4Z" transform="translate(0 0)"/><path d="M35.2,7.8H36v9.5h-.8l-1.8-4.4H29.5v11h9.4l2.5-6.6h.8v7.3H23.5V24l2.8-.5V1.7l-2.8-.4V.6H41.6V7.5h-.8L38.5,1.4H29.6V12.2h3.9Z" transform="translate(0 0)"/><path d="M65.1,0h.6V7.4h-.6l-2-5A7.83,7.83,0,0,0,57.9.6,6.54,6.54,0,0,0,52.8,3a10,10,0,0,0-2.1,6.7v5.5c0,2.9.6,5.1,1.9,6.7a6.26,6.26,0,0,0,5.1,2.4,5,5,0,0,0,4-1.7,7.51,7.51,0,0,0,1.4-4.7V14.5l-2.8-.4v-.7h9v.7l-2.8.4v3.4A6.67,6.67,0,0,1,64.3,23q-2.25,2.1-6.6,2.1a10,10,0,0,1-7.9-3.5,13.49,13.49,0,0,1-3-9.1,13.06,13.06,0,0,1,3.1-9.1A10.78,10.78,0,0,1,58,0a8.26,8.26,0,0,1,5.2,1.6Z" transform="translate(0 0)"/><path d="M76.2,24v.6H69.8V24l2.9-1.2L81.4,0h.5L90,23.5l2.8.5v.6H84V24l2.5-.4-2.6-7.1h-8l-2.4,6.3ZM80.1,5.3,76.2,15.9h7.5Z" transform="translate(0 0)"/><path d="M97.6,22.8V1.7l-2.8-.4V.6h6.6l7.5,19.3L116.6.6h6.1v.7l-2.7.4V23.5l2.8.5v.6H114V24l2.8-.5V2.6l-8.9,22.3h-.5l-9-23.2V22.8l2.9,1.2v.6H94.9V24Z" transform="translate(0 0)"/><path d="M138.1,22.8V1.7l-2.8-.4V.6h6.6l7.5,19.3L157.1.6h6.1v.7l-2.8.4V23.5l2.8.5v.6h-8.8V24l2.8-.5V2.6l-8.9,22.3h-.5L138.9,1.7V22.8l2.9,1.2v.6h-6.4V24Z" transform="translate(0 0)"/><path d="M171.4,24v.6H165V24l2.9-1.2L176.6,0h.5l8.2,23.5,2.8.5v.6h-8.8V24l2.5-.4-2.6-7.1h-8l-2.4,6.3Zm3.9-18.7-3.9,10.6h7.5Z" transform="translate(0 0)"/><path d="M210.8,22.5l.5.5a5.08,5.08,0,0,1-3.8,1.8A3.56,3.56,0,0,1,205,24a5.26,5.26,0,0,1-1.1-2.8l-.6-4c-.4-2.9-2-4.3-4.8-4.3h-2.3V23.5l2.8.5v.6h-8.8V24l2.8-.5V1.7l-2.8-.4V.6h8.4c3.3,0,5.6.5,7.1,1.5a5.18,5.18,0,0,1,2.2,4.6c0,3.4-2.1,5.4-6.2,6v.2a5.88,5.88,0,0,1,5.5,5.2l.4,2.6a10.75,10.75,0,0,0,.5,2.1,1.17,1.17,0,0,0,1.1.8C209.7,23.6,210.2,23.2,210.8,22.5ZM198.5,1.3h-2.3V12.2h3.4a4.24,4.24,0,0,0,3.4-1.3A5.69,5.69,0,0,0,204.2,7V6.3C204.1,3,202.3,1.3,198.5,1.3Z" transform="translate(0 0)"/><path d="M235.2,24.6h-8.9V24l2.7-.4-7.9-11.9-1.8,1.8v10l2.8.5v.6h-8.8V24l2.8-.5V1.7l-2.8-.4V.6h8.8v.7l-2.8.4V12.5l9.8-10-3.3-1.3V.6h6.9v.7l-2.5,1.3-6.8,6.8L233,23.6l2,.5v.5Z" transform="translate(0 0)"/><path d="M252,0h.7V6.1H252l-2.2-4.4A11.36,11.36,0,0,0,244.9.6a5.78,5.78,0,0,0-4.1,1.3,4.54,4.54,0,0,0-1.5,3.5,3.1,3.1,0,0,0,1.1,2.5,9,9,0,0,0,3.1,1.5l5.4,1.4a6.94,6.94,0,0,1,3.9,2.3,7.55,7.55,0,0,1,1.3,4.9,6.71,6.71,0,0,1-2.1,5.2,7.68,7.68,0,0,1-5.5,1.9,10.28,10.28,0,0,1-5.5-1.6l-2.5,1.3h-.7V17.1h.7l2.6,5.6a9.21,9.21,0,0,0,5.4,1.8,7.21,7.21,0,0,0,4.6-1.4,4.78,4.78,0,0,0,1.7-3.9,4,4,0,0,0-1.1-2.9,7.54,7.54,0,0,0-3.6-1.7l-5-1.3a7.06,7.06,0,0,1-3.9-2.4A5.93,5.93,0,0,1,237.9,7a6.86,6.86,0,0,1,1.9-5.1A6.8,6.8,0,0,1,245,0a12.59,12.59,0,0,1,4.9.9Z" transform="translate(0 0)"/><path d="M278.8,15.9c-2,0-3,.5-3,1.7,0,.6.3.8,1,.8a1.49,1.49,0,0,0,1.4-.8,1.64,1.64,0,0,1,1.5,1.7,2.11,2.11,0,0,1-.5,1.3,1.72,1.72,0,0,1-1.5.5,2.09,2.09,0,0,1-1.7-1,4.24,4.24,0,0,1-.8-2.6,3.89,3.89,0,0,1,1.3-2.9,5,5,0,0,1,3.5-1.3,20,20,0,0,1,3.2.3,18.86,18.86,0,0,0,3,.3,4.21,4.21,0,0,0,2-.4,1.35,1.35,0,0,0,.9-1.2.8.8,0,0,0-.9-.9,1.34,1.34,0,0,0-1.3.8,1.64,1.64,0,0,1-1.5-1.7,2.11,2.11,0,0,1,.5-1.3,1.84,1.84,0,0,1,1.5-.5,2.23,2.23,0,0,1,1.7.9,3.33,3.33,0,0,1,.7,2.3c0,3.1-1.5,4.7-4.5,4.7a12.17,12.17,0,0,1-2.1-.1,8.58,8.58,0,0,1,.2,2.2,6.52,6.52,0,0,1-1.7,4.8,6.6,6.6,0,0,1-4.7,1.7c-3.2,0-5.7-.6-7.2-1.9a6.55,6.55,0,0,1-2.4-5.1,5.81,5.81,0,0,1,2.3-4.9,10.69,10.69,0,0,1,6-1.9v-.1a11.43,11.43,0,0,1-5.5-1.8,4.64,4.64,0,0,1-1.8-4,4.85,4.85,0,0,1,2-4.1A10,10,0,0,1,276.1,0a6.86,6.86,0,0,1,4.1,1.2,3.59,3.59,0,0,1,1.6,3.1,1.75,1.75,0,0,1-.6,1.5,2.23,2.23,0,0,1-1.3.6,1.66,1.66,0,0,1-1.2-.5,1.73,1.73,0,0,1-.5-1.3,2.05,2.05,0,0,0,1.3-1.9,1.9,1.9,0,0,0-.8-1.5,3.59,3.59,0,0,0-2.2-.6,4.62,4.62,0,0,0-3.3,1.2A4.38,4.38,0,0,0,272,5a5.14,5.14,0,0,0,1.7,4.2,8.48,8.48,0,0,0,5,1.5v.7c-4.7.3-7.1,2.5-7.1,6.5a6.39,6.39,0,0,0,1.6,4.7,5.3,5.3,0,0,0,4.1,1.7,5.51,5.51,0,0,0,4-1.5,5.77,5.77,0,0,0,1.5-4.3,11.21,11.21,0,0,0-.3-2.4,5.16,5.16,0,0,1-1.1-.2A21.63,21.63,0,0,1,278.8,15.9Z" transform="translate(0 0)"/><path d="M319.6,7.3l-2.2-5.9h-5V23.6l2.8.5v.6h-8.8V24l2.8-.5V1.3h-5l-2.3,5.9H301V.6h19.5V7.3Z" transform="translate(0 0)"/><path d="M344.5,22.5l.5.5a5.08,5.08,0,0,1-3.8,1.8,3.56,3.56,0,0,1-2.5-.8,5.26,5.26,0,0,1-1.1-2.8l-.6-4c-.4-2.9-2-4.3-4.8-4.3h-2.3V23.5l2.8.5v.6h-8.8V24l2.8-.5V1.7l-2.8-.4V.6h8.4c3.3,0,5.6.5,7.1,1.5a5.18,5.18,0,0,1,2.2,4.6c0,3.4-2.1,5.4-6.2,6v.2a5.88,5.88,0,0,1,5.5,5.2l.4,2.6a10.75,10.75,0,0,0,.5,2.1,1.17,1.17,0,0,0,1.1.8C343.4,23.6,343.9,23.2,344.5,22.5ZM332.2,1.3h-2.3V12.2h3.4a4.24,4.24,0,0,0,3.4-1.3A5.69,5.69,0,0,0,337.9,7V6.3C337.9,3,336,1.3,332.2,1.3Z" transform="translate(0 0)"/><path d="M351.6,24v.6h-6.4V24l2.9-1.2L356.8,0h.5l8.2,23.5,2.8.5v.6h-8.8V24l2.5-.4-2.5-7.1h-8l-2.4,6.3Zm3.9-18.7-3.9,10.6h7.5Z" transform="translate(0 0)"/><path d="M388.3,18a7,7,0,0,1-2,5.4c-1.3,1.2-3.5,1.8-6.5,1.8s-5.2-.7-6.5-2a6.64,6.64,0,0,1-2-5.2V1.7l-2.8-.4V.6h8.8v.7l-2.8.4V18c0,4.1,2.2,6.1,6.7,6.1,4.2,0,6.4-2,6.4-6.1V2.4l-2.8-1.2V.6h6.4v.7l-2.9,1.2V18Z" transform="translate(0 0)"/><path d="M394.6.6h8.8v.7l-2.8.4V23.9h9l2.5-6.6h.8v7.3H394.6V24l2.8-.5V1.7l-2.8-.4Z" transform="translate(0 0)"/><path d="M431.2,0h.7V6.1h-.7L429,1.7A11.36,11.36,0,0,0,424.1.6,5.78,5.78,0,0,0,420,1.9a4.54,4.54,0,0,0-1.5,3.5,3.1,3.1,0,0,0,1.1,2.5,9,9,0,0,0,3.1,1.5l5.4,1.4a6.94,6.94,0,0,1,3.9,2.3,8.19,8.19,0,0,1,1.3,4.9,6.71,6.71,0,0,1-2.1,5.2,7.68,7.68,0,0,1-5.5,1.9,10.28,10.28,0,0,1-5.5-1.6l-2.5,1.3H417V17.1h.7l2.6,5.6a9.21,9.21,0,0,0,5.4,1.8,7.21,7.21,0,0,0,4.6-1.4,4.78,4.78,0,0,0,1.7-3.9,4,4,0,0,0-1.1-2.9,7.54,7.54,0,0,0-3.6-1.7l-5-1.3a7.06,7.06,0,0,1-3.9-2.4A5.93,5.93,0,0,1,417.1,7,6.86,6.86,0,0,1,419,1.9,6.8,6.8,0,0,1,424.2,0a12.59,12.59,0,0,1,4.9.9Z" transform="translate(0 0)"/><path d="M449,7.8h.8v9.5H449l-1.8-4.4h-3.9v11h9.4l2.5-6.6h.8v7.3H437.3V24l2.8-.5V1.7l-2.8-.4V.6h18.1V7.5h-.8l-2.3-6.1h-8.9V12.2h3.9Z" transform="translate(0 0)"/><path d="M463.2,22.8V2.4l-2.8-1.2V.6H466l12.9,18.1V2.4l-2.8-1.2V.6h6.4v.7l-2.8,1.2V24.7h-.8l-15-21V22.9l2.9,1.2v.6h-6.4V24Z" transform="translate(0 0)"/></svg>