<svg id="boat" data-name="Layer 1" xmlns="http://www.w3.org/2000/svg" viewBox="0 0 115.67 95.41"><defs><style></style></defs><title>cr-icon-03</title><line class="boat-cls-1" x1="98.8" y1="19.41" x2="59.8" y2="27.91"/><line class="boat-cls-1" x1="103.6" y1="32.61" x2="59.8" y2="42.11"/><line class="boat-cls-1" x1="113.2" y1="61.51" x2="34.8" y2="78.51"/><path class="boat-cls-1" d="M101.7,80.7c16.5-10.6,13.2-29.5,13.2-29.5L33.6,68.8l-1.7,8.4s-.4,5.4,6.4,7.5" transform="translate(0 0.01)"/><path class="boat-cls-1" d="M59.8,56.6V.7S105-5.3,105,46.6" transform="translate(0 0.01)"/><line class="boat-cls-1" x1="34.3" y1="62.01" x2="59.8" y2="6.21"/><path class="boat-cls-1" d="M40.4,90.4l.8-.1a7.62,7.62,0,0,0,4.5-2.6c1.9-2.4,3.3-2.7,4.5-2.9h.1c1.2-.1,2.6-.1,5,1.8a8.16,8.16,0,0,0,5,1.5l.8-.1a7.62,7.62,0,0,0,4.5-2.6c1.9-2.4,3.2-2.7,4.5-2.9h.1c1.2-.1,2.6-.1,5,1.8a8.16,8.16,0,0,0,5,1.5l.8-.1a7.62,7.62,0,0,0,4.5-2.6c1.9-2.4,3.2-2.7,4.5-2.9h.1c1.2-.1,2.6-.1,5,1.8" transform="translate(0 0.01)"/><path class="boat-cls-1" d="M.5,94.9l.8-.1a7.62,7.62,0,0,0,4.5-2.6c1.9-2.4,3.3-2.7,4.5-2.9h.1c1.2-.1,2.6-.1,5,1.8a8.16,8.16,0,0,0,5,1.5l.8-.1a7.62,7.62,0,0,0,4.5-2.6c1.9-2.4,3.2-2.7,4.5-2.9h.1c1.2-.1,2.6-.1,5,1.8a8.16,8.16,0,0,0,5,1.5l.8-.1a7.62,7.62,0,0,0,4.5-2.6c1.9-2.4,3.2-2.7,4.5-2.9h.1c1.2-.1,2.6-.1,5,1.8" transform="translate(0 0.01)"/></svg>