<svg id="new_traffic" data-name="Layer 1" xmlns="http://www.w3.org/2000/svg" viewBox="0 0 109.44 111.17"><defs><style></style></defs><title>cr-icon-06</title><path class="new_traffic-cls-1" d="M55.5,10A10.37,10.37,0,0,0,45,20.5a10.5,10.5,0,0,0,21,0A10.31,10.31,0,0,0,55.5,10Zm0,19.2a8.58,8.58,0,0,1-8.7-8.7,8.7,8.7,0,0,1,17.4,0A8.58,8.58,0,0,1,55.5,29.2Z" transform="translate(-0.03 -0.07)"/><path class="new_traffic-cls-1" d="M80.8,37.6H76.6a.9.9,0,0,0,0,1.8h4.2a.93.93,0,0,1,.9.6,1,1,0,0,1-.2,1l-8.7,8.6a2.67,2.67,0,0,0-.7,1.8v4.9h0a.9.9,0,1,0,1.8,0h0V51.5a.76.76,0,0,1,.2-.5l8.7-8.6a2.79,2.79,0,0,0,.6-3A2.58,2.58,0,0,0,80.8,37.6Z" transform="translate(-0.03 -0.07)"/><path class="new_traffic-cls-1" d="M43.9,87.7V84.8H39.5a1.32,1.32,0,0,1-1.3-1.3v-7a2.41,2.41,0,0,0-.7-1.8l-8.6-8.6a1,1,0,0,1-.2-1,.93.93,0,0,1,.9-.6h4.3a.9.9,0,0,0,0-1.8H29.6A2.76,2.76,0,0,0,27,64.4a2.79,2.79,0,0,0,.6,3L36.2,76a.59.59,0,0,1,.2.5v7a3.16,3.16,0,0,0,3.2,3.2H42v1.1a2.48,2.48,0,0,0,2.5,2.5h5v19h1.9V88.4H44.6A.68.68,0,0,1,43.9,87.7Z" transform="translate(-0.03 -0.07)"/><path class="new_traffic-cls-1" d="M55.5,35.2A10.5,10.5,0,1,0,66,45.7,10.37,10.37,0,0,0,55.5,35.2Zm0,19.3a8.7,8.7,0,1,1,8.7-8.7A8.58,8.58,0,0,1,55.5,54.5Z" transform="translate(-0.03 -0.07)"/><path class="new_traffic-cls-1" d="M80.1,62.6H76.6a.9.9,0,0,0,0,1.8h3.5a.93.93,0,0,1,.9.6,1,1,0,0,1-.2,1l-8.6,8.6a2.67,2.67,0,0,0-.7,1.8v7a1.32,1.32,0,0,1-1.3,1.3H66.5v2.9a.68.68,0,0,1-.7.7H59v20.9h1.9v-19h5a2.48,2.48,0,0,0,2.5-2.5V86.6h1.8a3.16,3.16,0,0,0,3.2-3.2v-7a.76.76,0,0,1,.2-.5l8.6-8.6a2.79,2.79,0,0,0,.6-3A3,3,0,0,0,80.1,62.6Z" transform="translate(-0.03 -0.07)"/><path class="new_traffic-cls-1" d="M55.5,60.5A10.5,10.5,0,1,0,66,71,10.37,10.37,0,0,0,55.5,60.5Zm0,19.2A8.7,8.7,0,1,1,64.2,71,8.58,8.58,0,0,1,55.5,79.7Z" transform="translate(-0.03 -0.07)"/><path class="new_traffic-cls-1" d="M36.6,25.9a.59.59,0,0,1,.2.5v4.8h0a.9.9,0,1,0,1.8,0h0V26.3a2.41,2.41,0,0,0-.7-1.8L29.4,16a1,1,0,0,1-.2-1,.93.93,0,0,1,.9-.6h8.1a.9.9,0,0,0,0-1.8H30a2.76,2.76,0,0,0-2.6,1.7,2.79,2.79,0,0,0,.6,3Z" transform="translate(-0.03 -0.07)"/><path class="new_traffic-cls-1" d="M36.4,50.9a.59.59,0,0,1,.2.5v4.9h0a.9.9,0,1,0,1.8,0h0V51.4a2.41,2.41,0,0,0-.7-1.8L29.1,41a1,1,0,0,1-.2-1,.93.93,0,0,1,.9-.6h4.3a.9.9,0,0,0,0-1.8H29.8a2.76,2.76,0,0,0-2.6,1.7,2.79,2.79,0,0,0,.6,3Z" transform="translate(-0.03 -0.07)"/><rect class="new_traffic-cls-1" x="100.7" y="34.8" width="3.7" height="1.9" transform="translate(-4.77 52.53) rotate(-28.14)"/><rect class="new_traffic-cls-1" x="100.25" y="75" width="1.9" height="3.7" transform="translate(-17.52 122.19) rotate(-58.15)"/><rect class="new_traffic-cls-1" x="103.46" y="68.65" width="1.9" height="3.7" transform="translate(0.09 141.1) rotate(-68.15)"/><rect class="new_traffic-cls-1" x="105.62" y="61.79" width="1.9" height="3.7" transform="translate(22.35 154.78) rotate(-78.13)"/><rect class="new_traffic-cls-1" x="106.4" y="54.61" width="1.9" height="3.7" transform="translate(47.33 161.81) rotate(-88.1)"/><rect class="new_traffic-cls-1" x="105.1" y="48.41" width="3.7" height="1.9" transform="translate(-5.94 15.58) rotate(-8.14)"/><rect class="new_traffic-cls-1" x="103.5" y="41.41" width="3.7" height="1.9" transform="translate(-7.98 34.86) rotate(-18.15)"/><rect class="new_traffic-cls-1" x="6.07" y="33.85" width="1.9" height="3.7" transform="translate(-27.8 24.98) rotate(-61.86)"/><rect class="new_traffic-cls-1" x="6.52" y="75.98" width="3.7" height="1.9" transform="translate(-39.36 15.94) rotate(-31.85)"/><rect class="new_traffic-cls-1" x="3.22" y="69.61" width="3.7" height="1.9" transform="translate(-25.91 6.88) rotate(-21.83)"/><rect class="new_traffic-cls-1" x="1.11" y="62.71" width="3.7" height="1.9" transform="translate(-13.06 1.9) rotate(-11.87)"/><rect class="new_traffic-cls-1" x="0.3" y="55.6" width="3.7" height="1.9" transform="translate(-1.88 0.03) rotate(-1.87)"/><rect class="new_traffic-cls-1" x="1.6" y="47.48" width="1.9" height="3.7" transform="translate(-46.67 44.8) rotate(-81.86)"/><rect class="new_traffic-cls-1" x="3.21" y="40.52" width="1.9" height="3.7" transform="translate(-37.42 33.06) rotate(-71.85)"/><path class="new_traffic-cls-1" d="M37.9,14.6a.9.9,0,0,0,.9-.9h0V8a1.32,1.32,0,0,1,1.3-1.3h3.7V2.8a.68.68,0,0,1,.7-.7H65.8a.68.68,0,0,1,.7.7V6.7h4.2A1.32,1.32,0,0,1,72,8v5.7h0a.9.9,0,1,0,1.8,0h0V8a3.16,3.16,0,0,0-3.2-3.2H68.2v-2A2.48,2.48,0,0,0,65.7.3H44.5A2.48,2.48,0,0,0,42,2.8v2H40.2A3.16,3.16,0,0,0,37,8v5.7A.9.9,0,0,0,37.9,14.6Z" transform="translate(-0.03 -0.07)"/><path class="new_traffic-cls-1" d="M72.9,14.4h7.9a.93.93,0,0,1,.9.6,1,1,0,0,1-.2,1l-8.6,8.6a2.67,2.67,0,0,0-.7,1.8v4.9h0a.9.9,0,1,0,1.8,0h0V26.4a.76.76,0,0,1,.2-.5l8.6-8.6a2.79,2.79,0,0,0,.6-3,2.62,2.62,0,0,0-2.6-1.7H72.9a.9.9,0,0,0-.9.9C71.9,14,72.3,14.4,72.9,14.4Z" transform="translate(-0.03 -0.07)"/><rect class="new_traffic-cls-1" x="54.87" y="92.93" width="0.9" height="18"/></svg>