<svg id="google" data-name="Layer 1" xmlns="http://www.w3.org/2000/svg" viewBox="0 0 25.63 16.24"><defs><style></style></defs><title>social-g</title><path class="google-cls-1" d="M0,7.7a8.12,8.12,0,0,0,5.2,8c3.2,1.2,7.2.4,9.2-2.5a9.88,9.88,0,0,0,1.5-6.3H8.1V9.7c1.5.1,3.1,0,4.7.1-.7,3.4-5.4,4.5-7.8,2.3A5.24,5.24,0,0,1,5.2,4c1.8-1.5,4.5-1.1,6.3.1L13.6,2A8.66,8.66,0,0,0,8.1,0,8.12,8.12,0,0,0,0,7.7" transform="translate(0.03 0.01)"/><path class="google-cls-1" d="M21,4.6V6.9H18.7V9.2H21v2.3h2.3V9.2h2.3V7H23.3V4.7H21Z" transform="translate(0.03 0.01)"/></svg>