<svg id="new_pattern" data-name="Arizona SW Style" xmlns="http://www.w3.org/2000/svg" viewBox="0 0 119.9 27.7"><defs><style>.new_pattern-cls-1{fill:#89cdce;}</style></defs><title>icon-angles</title><polygon class="new_pattern-cls-1" points="40.1 24.4 22.6 7.3 5.2 24.4 8.6 24.4 22.6 10.7 36.6 24.4 40.1 24.4"/><polygon class="new_pattern-cls-1" points="77.2 24.4 59.8 7.3 42.3 24.4 45.8 24.4 59.8 10.7 73.7 24.4 77.2 24.4"/><polygon class="new_pattern-cls-1" points="114.7 24.4 97.3 7.3 79.9 24.4 83.3 24.4 97.3 10.7 111.3 24.4 114.7 24.4"/><polygon class="new_pattern-cls-1" points="46.7 5.4 41.1 0 35.6 5.4 41.1 10.8 46.7 5.4"/><polygon class="new_pattern-cls-1" points="83.8 5.4 78.3 0 72.7 5.4 78.3 10.8 83.8 5.4"/><polyline class="new_pattern-cls-1" points="22.8 27.7 28.3 22.3 22.8 16.9 17.3 22.3 22.8 27.7"/><polyline class="new_pattern-cls-1" points="59.9 27.7 65.5 22.3 59.9 16.9 54.4 22.3 59.9 27.7"/><polyline class="new_pattern-cls-1" points="97.5 27.7 103 22.3 97.5 16.9 91.9 22.3 97.5 27.7"/><polyline class="new_pattern-cls-1" points="1.8 22.2 3.5 22.2 3.5 22.2 22.6 3.5 41.2 21.6 59.8 3.5 78.5 21.8 97.3 3.5 116.5 22.2 119.9 22.2 97.3 0.1 78.5 18.5 59.8 0.1 41.2 18.3 22.6 0.1 0 22.2 0 22.2 0 22.2 0 22.2 0 22.2"/></svg>