<svg id="cactus" data-name="—ÎÓÈ_2" xmlns="http://www.w3.org/2000/svg" viewBox="0 0 327.58 609.76"><title>Vector Smart Object</title><rect x="95.74" y="420.32" width="4.67" height="9.34"/><rect x="86.4" y="420.32" width="4.67" height="9.34"/><rect x="77.1" y="420.32" width="4.67" height="9.34"/><rect x="67.76" y="420.32" width="4.67" height="9.34"/><rect x="57.47" y="422.86" width="9.26" height="4.67" transform="translate(-369.6 421.21) rotate(-81.29)"/><rect x="47.64" y="420.6" width="9.36" height="4.67" transform="translate(-368.46 342.99) rotate(-72.27)"/><rect x="38.38" y="416.84" width="9.29" height="4.67" transform="translate(-353.14 269.2) rotate(-63.44)"/><rect x="29.73" y="411.68" width="9.32" height="4.67" transform="translate(-325.7 202.39) rotate(-54.79)"/><rect x="22.01" y="405.3" width="9.35" height="4.67" transform="translate(-287.04 142.61) rotate(-45.99)"/><rect x="15.35" y="397.79" width="9.3" height="4.67" transform="translate(-238.85 91.67) rotate(-37.01)"/><rect x="9.83" y="389.38" width="9.36" height="4.67" transform="translate(-187.69 53.72) rotate(-28.59)"/><rect x="5.84" y="380.2" width="9.28" height="4.67" transform="translate(-130.62 25.03) rotate(-19.74)"/><rect x="3.18" y="370.49" width="9.32" height="4.67" transform="translate(-71.05 6.93) rotate(-10.69)"/><rect x="2.09" y="360.54" width="9.3" height="4.67" transform="matrix(1, -0.04, 0.04, 1, -14.76, -0.54)"/><rect y="350.03" width="9.34" height="4.67"/><rect y="340.69" width="9.34" height="4.67"/><rect y="331.4" width="9.34" height="4.67"/><rect y="322.06" width="9.34" height="4.67"/><rect y="312.72" width="9.34" height="4.67"/><rect y="303.38" width="9.34" height="4.67"/><rect y="294.08" width="9.34" height="4.67"/><rect y="284.74" width="9.34" height="4.67"/><rect y="275.4" width="9.34" height="4.67"/><rect y="266.06" width="9.34" height="4.67"/><rect y="256.77" width="9.34" height="4.67"/><rect y="247.43" width="9.34" height="4.67"/><rect y="238.09" width="9.34" height="4.67"/><rect y="228.75" width="9.34" height="4.67"/><rect y="219.41" width="9.34" height="4.67"/><rect y="210.11" width="9.34" height="4.67"/><rect y="200.77" width="9.34" height="4.67"/><rect x="5.39" y="189.04" width="4.67" height="9.31" transform="translate(-183.72 151.58) rotate(-75.47)"/><rect x="9.78" y="179.12" width="4.67" height="9.34" transform="translate(-150.03 91.8) rotate(-56.62)"/><rect x="17.2" y="171.25" width="4.67" height="9.29" transform="translate(-104.94 47.14) rotate(-37.45)"/><rect x="26.78" y="166.14" width="4.67" height="9.35" transform="translate(-54.27 16.84) rotate(-18.34)"/><rect x="35.4" y="163.46" width="4.67" height="9.34"/><rect x="44.72" y="166.91" width="9.31" height="4.67" transform="translate(-124.73 206.45) rotate(-86.25)"/><rect x="55.27" y="169.38" width="9.29" height="4.67" transform="translate(-123.54 158.42) rotate(-66.89)"/><rect x="64.38" y="175.27" width="9.36" height="4.67" transform="translate(-111.19 109.23) rotate(-48.05)"/><rect x="71.15" y="183.7" width="9.32" height="4.67" transform="translate(-82.06 58.31) rotate(-28.72)"/><rect x="74.69" y="193.97" width="9.34" height="4.67" transform="translate(-34.21 15.34) rotate(-9.78)"/><rect x="73.18" y="203.06" width="9.34" height="4.67"/><rect x="73.18" y="212.35" width="9.34" height="4.67"/><rect x="73.18" y="221.7" width="9.34" height="4.67"/><rect x="73.18" y="231.04" width="9.34" height="4.67"/><rect x="73.18" y="240.38" width="9.34" height="4.67"/><rect x="73.18" y="249.72" width="9.34" height="4.67"/><rect x="73.18" y="259.01" width="9.34" height="4.67"/><rect x="73.18" y="268.35" width="9.34" height="4.67"/><rect x="73.18" y="277.69" width="9.34" height="4.67"/><rect x="73.18" y="287.03" width="9.34" height="4.67"/><rect x="73.18" y="296.33" width="9.34" height="4.67"/><rect x="73.18" y="305.67" width="9.34" height="4.67"/><rect x="73.18" y="315.01" width="9.34" height="4.67"/><rect x="75.23" y="325.14" width="9.35" height="4.67" transform="translate(-13.47 2.01) rotate(-2.02)"/><rect x="76.94" y="332.33" width="9.38" height="4.67" transform="translate(-136.09 65.09) rotate(-25.06)"/><rect x="81.4" y="338.28" width="9.32" height="4.67" transform="matrix(0.67, -0.74, 0.74, 0.67, -226.33, 175.06)"/><rect x="87.77" y="342.04" width="9.33" height="4.67" transform="translate(-265.28 318.77) rotate(-71.02)"/><rect x="95.74" y="339.76" width="4.67" height="9.34"/><rect x="221.84" y="256.86" width="4.67" height="9.34"/><rect x="231.18" y="256.86" width="4.67" height="9.34"/><rect x="240.56" y="256.86" width="4.67" height="9.34"/><rect x="249.9" y="256.86" width="4.67" height="9.34"/><rect x="261.55" y="257.67" width="4.67" height="9.31" transform="translate(-18.53 16.75) rotate(-3.73)"/><rect x="271.5" y="256.26" width="4.67" height="9.33" transform="translate(-51.73 64.03) rotate(-12.43)"/><rect x="281.11" y="253.29" width="4.67" height="9.33" transform="matrix(0.93, -0.37, 0.37, 0.93, -76.68, 120.48)"/><rect x="290.15" y="248.85" width="4.67" height="9.38" transform="translate(-90.26 182.78) rotate(-30.54)"/><rect x="298.44" y="243.17" width="4.67" height="9.36" transform="translate(-90.96 245.71) rotate(-39.32)"/><rect x="305.7" y="236.24" width="4.67" height="9.29" transform="translate(-79.04 307.92) rotate(-48.04)"/><rect x="311.84" y="228.29" width="4.67" height="9.31" transform="translate(-54.61 367.74) rotate(-56.87)"/><rect x="316.7" y="219.46" width="4.67" height="9.28" transform="translate(-18.71 421.29) rotate(-65.64)"/><rect x="320.09" y="209.99" width="4.67" height="9.31" transform="translate(27.79 467.39) rotate(-74.58)"/><rect x="322.05" y="200.13" width="4.67" height="9.31" transform="translate(81.53 502.37) rotate(-83.37)"/><rect x="318.18" y="191.57" width="9.34" height="4.67"/><rect x="318.18" y="182.23" width="9.34" height="4.67"/><rect x="318.18" y="172.89" width="9.34" height="4.67"/><rect x="318.18" y="163.5" width="9.34" height="4.67"/><rect x="318.18" y="154.16" width="9.34" height="4.67"/><rect x="318.18" y="144.82" width="9.34" height="4.67"/><rect x="318.18" y="135.48" width="9.34" height="4.67"/><rect x="318.18" y="126.14" width="9.34" height="4.67"/><rect x="318.18" y="116.76" width="9.34" height="4.67"/><rect x="318.18" y="107.42" width="9.34" height="4.67"/><rect x="318.18" y="98.08" width="9.34" height="4.67"/><rect x="318.18" y="88.73" width="9.34" height="4.67"/><rect x="318.18" y="79.39" width="9.34" height="4.67"/><rect x="318.18" y="70.01" width="9.34" height="4.67"/><rect x="318.18" y="60.67" width="9.34" height="4.67"/><rect x="318.18" y="51.32" width="9.34" height="4.67"/><rect x="318.18" y="41.98" width="9.34" height="4.67"/><rect x="320.02" y="33.25" width="9.37" height="4.67" transform="translate(-3.84 26.4) rotate(-4.82)"/><rect x="317.34" y="22.72" width="9.32" height="4.67" transform="translate(16.05 133.26) rotate(-24.21)"/><rect x="311.3" y="13.68" width="9.35" height="4.67" transform="translate(72.46 219.39) rotate(-43.14)"/><rect x="302.69" y="7.1" width="9.34" height="4.67" transform="translate(154.06 276.14) rotate(-62.28)"/><rect x="292.39" y="3.73" width="9.3" height="4.67" transform="translate(245.85 298.07) rotate(-81.64)"/><rect x="282.64" width="4.67" height="9.34"/><rect x="274.25" y="1.99" width="4.67" height="9.32" transform="translate(4.23 64.41) rotate(-13.64)"/><rect x="264.3" y="6.27" width="4.67" height="9.35" transform="translate(35 145.9) rotate(-32.98)"/><rect x="256.27" y="13.6" width="4.67" height="9.31" transform="translate(82.71 209.53) rotate(-51.91)"/><rect x="251.13" y="23.12" width="4.67" height="9.34" transform="translate(142.8 257.45) rotate(-71.03)"/><rect x="245" y="35.17" width="9.34" height="4.67"/><rect x="245" y="44.51" width="9.34" height="4.67"/><rect x="245" y="53.85" width="9.34" height="4.67"/><rect x="245" y="63.19" width="9.34" height="4.67"/><rect x="245" y="72.58" width="9.34" height="4.67"/><rect x="245" y="81.92" width="9.34" height="4.67"/><rect x="245" y="91.26" width="9.34" height="4.67"/><rect x="245" y="100.6" width="9.34" height="4.67"/><rect x="245" y="109.94" width="9.34" height="4.67"/><rect x="245" y="119.32" width="9.34" height="4.67"/><rect x="245" y="128.66" width="9.34" height="4.67"/><rect x="245" y="138" width="9.34" height="4.67"/><rect x="245" y="147.35" width="9.34" height="4.67"/><rect x="245" y="156.69" width="9.34" height="4.67"/><rect x="248.66" y="163.46" width="4.67" height="9.33" transform="matrix(0.26, -0.97, 0.97, 0.26, 22.32, 366.83)"/><rect x="245.34" y="170.1" width="4.67" height="9.31" transform="translate(-44.65 260.89) rotate(-51.91)"/><rect x="239.76" y="174.93" width="4.67" height="9.37" transform="translate(-58.89 140.12) rotate(-29.24)"/><rect x="232.69" y="177.18" width="4.67" height="9.34" transform="translate(-19.78 24.66) rotate(-6.02)"/><rect x="221.84" y="176.3" width="4.67" height="9.34"/><rect x="95.74" y="598.21" width="9.34" height="4.67"/><rect x="95.74" y="588.87" width="9.34" height="4.67"/><rect x="95.74" y="579.58" width="9.34" height="4.67"/><rect x="95.74" y="570.24" width="9.34" height="4.67"/><rect x="95.74" y="560.94" width="9.34" height="4.67"/><rect x="95.74" y="551.6" width="9.34" height="4.67"/><rect x="95.74" y="542.31" width="9.34" height="4.67"/><rect x="95.74" y="532.97" width="9.34" height="4.67"/><rect x="95.74" y="523.67" width="9.34" height="4.67"/><rect x="95.74" y="514.33" width="9.34" height="4.67"/><rect x="95.74" y="505.04" width="9.34" height="4.67"/><rect x="95.74" y="495.7" width="9.34" height="4.67"/><rect x="95.74" y="486.41" width="9.34" height="4.67"/><rect x="95.74" y="477.06" width="9.34" height="4.67"/><rect x="95.74" y="467.77" width="9.34" height="4.67"/><rect x="95.74" y="458.43" width="9.34" height="4.67"/><rect x="95.74" y="449.14" width="9.34" height="4.67"/><rect x="95.74" y="439.8" width="9.34" height="4.67"/><rect x="95.74" y="383.89" width="9.34" height="4.67"/><rect x="95.74" y="346.62" width="9.34" height="4.67"/><rect x="95.74" y="327.99" width="9.34" height="4.67"/><rect x="95.74" y="318.7" width="9.34" height="4.67"/><rect x="95.74" y="309.4" width="9.34" height="4.67"/><rect x="95.74" y="300.06" width="9.34" height="4.67"/><rect x="95.74" y="290.77" width="9.34" height="4.67"/><rect x="95.74" y="281.43" width="9.34" height="4.67"/><rect x="95.74" y="272.14" width="9.34" height="4.67"/><rect x="95.74" y="262.79" width="9.34" height="4.67"/><rect x="95.74" y="253.5" width="9.34" height="4.67"/><rect x="95.74" y="244.16" width="9.34" height="4.67"/><rect x="95.74" y="234.87" width="9.34" height="4.67"/><rect x="95.74" y="225.53" width="9.34" height="4.67"/><rect x="95.74" y="216.23" width="9.34" height="4.67"/><rect x="95.74" y="206.89" width="9.34" height="4.67"/><rect x="95.74" y="197.6" width="9.34" height="4.67"/><rect x="95.74" y="188.26" width="9.34" height="4.67"/><rect x="95.74" y="178.96" width="9.34" height="4.67"/><rect x="95.74" y="169.62" width="9.34" height="4.67"/><rect x="95.74" y="160.33" width="9.34" height="4.67"/><rect x="95.74" y="150.99" width="9.34" height="4.67"/><rect x="95.74" y="141.69" width="9.34" height="4.67"/><rect x="95.74" y="132.35" width="9.34" height="4.67"/><rect x="95.74" y="123.06" width="9.34" height="4.67"/><rect x="100.14" y="112.27" width="4.67" height="9.3" transform="translate(-19.48 214.82) rotate(-88.27)"/><rect x="101.31" y="102.2" width="4.67" height="9.31" transform="translate(-24.25 185.29) rotate(-78.12)"/><rect x="104.33" y="92.51" width="4.67" height="9.3" transform="translate(-25.85 157.66) rotate(-67.56)"/><rect x="109.06" y="83.51" width="4.67" height="9.31" transform="translate(-25.32 132.27) rotate(-56.87)"/><rect x="115.32" y="75.52" width="4.67" height="9.28" transform="matrix(0.68, -0.73, 0.73, 0.68, -23.3, 110.16)"/><rect x="122.91" y="68.79" width="4.67" height="9.28" transform="translate(-21.14 87.65) rotate(-36.4)"/><rect x="131.57" y="63.58" width="4.67" height="9.25" transform="translate(-18.35 64.75) rotate(-26.05)"/><rect x="141.08" y="59.95" width="4.67" height="9.27" transform="translate(-14.16 40.46) rotate(-15.79)"/><rect x="151.07" y="58.1" width="4.67" height="9.33" transform="translate(-7.02 13.05) rotate(-5.16)"/><rect x="158.79" y="56.84" width="4.67" height="9.34"/><rect x="168.2" y="60.43" width="9.33" height="4.67" transform="translate(93.63 228.66) rotate(-85.12)"/><rect x="178.2" y="62.27" width="9.3" height="4.67" transform="translate(69.88 222.65) rotate(-74.55)"/><rect x="187.69" y="65.84" width="9.29" height="4.67" transform="translate(45.08 210.51) rotate(-64.14)"/><rect x="196.35" y="71.1" width="9.29" height="4.67" transform="translate(20.57 190.57) rotate(-53.58)"/><rect x="203.95" y="77.83" width="9.28" height="4.67" transform="translate(-0.43 163.3) rotate(-43.14)"/><rect x="210.21" y="85.81" width="9.33" height="4.67" transform="translate(-15.52 129.28) rotate(-32.76)"/><rect x="214.94" y="94.83" width="9.3" height="4.67" transform="translate(-22.46 90.03) rotate(-22.4)"/><rect x="217.94" y="104.52" width="9.31" height="4.67" transform="translate(-19.18 46.93) rotate(-11.84)"/><rect x="219.12" y="114.6" width="9.29" height="4.67" transform="translate(-4.9 4.72) rotate(-1.45)"/><rect x="217.17" y="123.06" width="9.34" height="4.67"/><rect x="217.17" y="132.35" width="9.34" height="4.67"/><rect x="217.17" y="141.69" width="9.34" height="4.67"/><rect x="217.17" y="150.99" width="9.34" height="4.67"/><rect x="217.17" y="160.33" width="9.34" height="4.67"/><rect x="217.17" y="272.14" width="9.34" height="4.67"/><rect x="217.17" y="281.43" width="9.34" height="4.67"/><rect x="217.17" y="290.77" width="9.34" height="4.67"/><rect x="217.17" y="300.06" width="9.34" height="4.67"/><rect x="217.17" y="309.4" width="9.34" height="4.67"/><rect x="217.17" y="318.7" width="9.34" height="4.67"/><rect x="217.17" y="327.99" width="9.34" height="4.67"/><rect x="217.17" y="337.33" width="9.34" height="4.67"/><rect x="217.17" y="346.62" width="9.34" height="4.67"/><rect x="217.17" y="355.96" width="9.34" height="4.67"/><rect x="217.17" y="365.26" width="9.34" height="4.67"/><rect x="217.17" y="374.6" width="9.34" height="4.67"/><rect x="217.17" y="383.89" width="9.34" height="4.67"/><rect x="217.17" y="393.23" width="9.34" height="4.67"/><rect x="217.17" y="402.53" width="9.34" height="4.67"/><rect x="217.17" y="411.87" width="9.34" height="4.67"/><rect x="217.17" y="421.16" width="9.34" height="4.67"/><rect x="217.17" y="430.5" width="9.34" height="4.67"/><rect x="217.17" y="439.8" width="9.34" height="4.67"/><rect x="217.17" y="449.14" width="9.34" height="4.67"/><rect x="217.17" y="458.43" width="9.34" height="4.67"/><rect x="217.17" y="467.77" width="9.34" height="4.67"/><rect x="217.17" y="477.06" width="9.34" height="4.67"/><rect x="217.17" y="486.41" width="9.34" height="4.67"/><rect x="217.17" y="495.7" width="9.34" height="4.67"/><rect x="217.17" y="505.04" width="9.34" height="4.67"/><rect x="217.17" y="514.33" width="9.34" height="4.67"/><rect x="217.17" y="523.67" width="9.34" height="4.67"/><rect x="217.17" y="532.97" width="9.34" height="4.67"/><rect x="217.17" y="542.31" width="9.34" height="4.67"/><rect x="217.17" y="551.6" width="9.34" height="4.67"/><rect x="217.17" y="560.94" width="9.34" height="4.67"/><rect x="217.17" y="570.24" width="9.34" height="4.67"/><rect x="217.17" y="579.58" width="9.34" height="4.67"/><rect x="217.17" y="588.87" width="9.34" height="4.67"/><rect x="217.17" y="598.21" width="9.34" height="4.67"/><path d="M107.08,423.67h-35A63.11,63.11,0,0,1,9,360.62V201.84a30.39,30.39,0,0,1,30.35-30.36h7.8a30.4,30.4,0,0,1,30.36,30.36V326.77a21,21,0,0,0,21,21h8.55v4.67H98.53a25.71,25.71,0,0,1-25.68-25.68V201.84a25.72,25.72,0,0,0-25.69-25.69h-7.8a25.71,25.71,0,0,0-25.68,25.69V360.62A58.44,58.44,0,0,0,72.05,419h35Z" transform="translate(-2 -1)"/><path d="M107.08,389.44h-4.67a63.12,63.12,0,0,1-63-63.05V173.81H44V326.39a58.45,58.45,0,0,0,58.38,58.38h4.67Z" transform="translate(-2 -1)"/><path d="M259.47,260.21h-40.3v-4.67h40.3a58.44,58.44,0,0,0,58.38-58.37V38.38a25.72,25.72,0,0,0-25.69-25.69h-7.8a25.71,25.71,0,0,0-25.68,25.69V163.31A25.72,25.72,0,0,1,233,189H219.17v-4.67H233a21,21,0,0,0,21-21V38.38A30.39,30.39,0,0,1,284.36,8h7.8a30.4,30.4,0,0,1,30.36,30.36V197.17A63.11,63.11,0,0,1,259.47,260.21Z" transform="translate(-2 -1)"/><path d="M228.51,226.73h-9.34v-4.67h9.34a58.44,58.44,0,0,0,58.37-58.38V10.36h4.67V163.68A63.11,63.11,0,0,1,228.51,226.73Z" transform="translate(-2 -1)"/><path d="M221.5,608.52h-4.67V118.57a49.1,49.1,0,0,0-49-49h-9.34a49.09,49.09,0,0,0-49,49v490h-4.67V118.57a53.76,53.76,0,0,1,53.7-53.71h9.34a53.77,53.77,0,0,1,53.71,53.71Z" transform="translate(-2 -1)"/><path d="M141.35,608.52h-3.9V116a93.44,93.44,0,0,1,13.49-48.36l3.35,2A89.48,89.48,0,0,0,141.35,116Z" transform="translate(-2 -1)"/><path d="M188.85,608.52h-3.91V116A89.54,89.54,0,0,0,172,69.7l3.35-2A93.5,93.5,0,0,1,188.85,116Z" transform="translate(-2 -1)"/><rect x="69.22" y="605.28" width="185.22" height="4.48"/></svg>