<svg id="steth" data-name="Layer 1" xmlns="http://www.w3.org/2000/svg" viewBox="0 0 83.5 81.8"><defs><style></style></defs><title>results-icon-03</title><path class="steth-cls-1" d="M70.9,8.1a11.13,11.13,0,0,0-1.2,22.2h.4V72.4a8,8,0,0,1-2.2,5.5,7.26,7.26,0,0,1-5.2,2.2H61.6a7.44,7.44,0,0,1-5.2-2.2,8,8,0,0,1-2.2-5.5V56.9a9.47,9.47,0,0,0-2.6-6.6,8.47,8.47,0,0,0-6.3-2.7,8.62,8.62,0,0,0-6.1,2.5,9.52,9.52,0,0,0-2.8,6.8V72.4a7.56,7.56,0,0,1-7.3,7.7H25.7a7.56,7.56,0,0,1-7.3-7.7V56h.5A17.75,17.75,0,0,0,35.3,38.4v-26a9.82,9.82,0,0,0-9.8-9.8H25l-.1-.5V0H23.3V6.8h1.6V4.2h.5a8.26,8.26,0,0,1,8.3,8.2v26a16,16,0,0,1-32,0v-26A8.24,8.24,0,0,1,9.9,4.2h.5l.1.5V6.8H12V0H10.4V2.6H9.9A9.84,9.84,0,0,0,0,12.4v26A17.68,17.68,0,0,0,16.4,56h.5V72.4a9.14,9.14,0,0,0,8.9,9.3h3.4a9.29,9.29,0,0,0,9-9.3V56.9a7.56,7.56,0,0,1,7.3-7.7,7.26,7.26,0,0,1,5.2,2.2A9,9,0,0,1,52.8,57V72.5a9.47,9.47,0,0,0,2.6,6.6,8.47,8.47,0,0,0,6.3,2.7h1.1a8.86,8.86,0,0,0,6.3-2.7,9.47,9.47,0,0,0,2.6-6.6V30.4h.4A11.16,11.16,0,0,0,82,19.3,11,11,0,0,0,70.9,8.1Zm0,15.2a4,4,0,1,1,4-4A4,4,0,0,1,70.9,23.3Zm1.4,5.4-.6.1V24.9l.4-.1a5.66,5.66,0,0,0,4.4-5.5,5.6,5.6,0,1,0-11.2,0,5.66,5.66,0,0,0,4.5,5.5l.4.1v3.9l-.6-.1a9.5,9.5,0,1,1,10.8-9.4A9.39,9.39,0,0,1,72.3,28.7Z"/><line class="steth-cls-2" x1="3.8" y1="62.9" x2="3.8" y2="65.5"/><line class="steth-cls-2" x1="3.8" y1="68.1" x2="3.8" y2="70.7"/><line class="steth-cls-2" x1="3.8" y1="73.3" x2="3.8" y2="75.9"/><line class="steth-cls-2" x1="3.8" y1="78.5" x2="3.8" y2="81.1"/><line class="steth-cls-2" x1="82.5" y1="33.1" x2="82.5" y2="35.7"/><line class="steth-cls-2" x1="82.5" y1="38.3" x2="82.5" y2="40.9"/><line class="steth-cls-2" x1="82.5" y1="43.5" x2="82.5" y2="46.1"/><line class="steth-cls-2" x1="82.5" y1="48.7" x2="82.5" y2="51.3"/></svg>