<svg id="twitter" data-name="Layer 1" xmlns="http://www.w3.org/2000/svg" viewBox="0 0 20.8 16.8"><defs><style></style></defs><title>social-t</title><path class="twitter-cls-1" d="M20.8,2a10.88,10.88,0,0,1-2.4.7A4.15,4.15,0,0,0,20.3.3a7.94,7.94,0,0,1-2.7,1A4.82,4.82,0,0,0,14.4,0a4.27,4.27,0,0,0-4.3,4.3,3.4,3.4,0,0,0,.1,1A12.26,12.26,0,0,1,1.4.8,4.65,4.65,0,0,0,.9,2.9,4.17,4.17,0,0,0,2.8,6.4,3.83,3.83,0,0,1,.9,5.9V6a4.3,4.3,0,0,0,3.4,4.2,4.1,4.1,0,0,1-1.1.1,2.2,2.2,0,0,1-.8-.1,4.33,4.33,0,0,0,4,3A9.45,9.45,0,0,1,1,15a3.4,3.4,0,0,1-1-.1A12.09,12.09,0,0,0,18.6,4.7V4.1A6.3,6.3,0,0,0,20.8,2"/></svg>