<svg id="sp_two" data-name="Layer 1" xmlns="http://www.w3.org/2000/svg" viewBox="0 0 72.06 134"><defs><style>.sp_two-cls-1{fill:#a87a3f;}</style></defs><title>sp-icon-02</title><rect class="sp_two-cls-1" x="21.02" y="92.4" width="1" height="2.1"/><rect class="sp_two-cls-1" x="19.02" y="92.4" width="1" height="2.1"/><rect class="sp_two-cls-1" x="16.92" y="92.4" width="1" height="2.1"/><rect class="sp_two-cls-1" x="14.92" y="92.4" width="1" height="2.1"/><rect class="sp_two-cls-1" x="12.2" y="92.71" width="2" height="1" transform="translate(-80.92 92.15) rotate(-81.29)"/><rect class="sp_two-cls-1" x="9.99" y="92.21" width="2.1" height="1" transform="translate(-80.61 75) rotate(-72.27)"/><rect class="sp_two-cls-1" x="8.02" y="91.4" width="2" height="1" transform="translate(-77.2 58.87) rotate(-63.43)"/><rect class="sp_two-cls-1" x="6.06" y="90.23" width="2" height="1" transform="translate(-71.12 44.19) rotate(-54.79)"/><rect class="sp_two-cls-1" x="4.35" y="88.8" width="2.1" height="1" transform="translate(-62.56 31.14) rotate(-45.99)"/><rect class="sp_two-cls-1" x="2.91" y="87.23" width="2" height="1" transform="translate(-52.02 20.04) rotate(-37.02)"/><rect class="sp_two-cls-1" x="1.67" y="85.3" width="2.1" height="1" transform="translate(-40.72 11.77) rotate(-28.59)"/><rect class="sp_two-cls-1" x="0.79" y="83.32" width="2" height="1" transform="translate(-28.19 5.53) rotate(-19.74)"/><rect class="sp_two-cls-1" x="0.3" y="81.2" width="2" height="1" transform="translate(-15.13 1.66) rotate(-10.7)"/><rect class="sp_two-cls-1" y="79" width="2" height="1" transform="translate(-2.77 0.08) rotate(-2.01)"/><rect class="sp_two-cls-1" x="0.02" y="76.9" width="2.1" height="1"/><rect class="sp_two-cls-1" x="0.02" y="74.9" width="2.1" height="1"/><rect class="sp_two-cls-1" x="0.02" y="72.8" width="2.1" height="1"/><rect class="sp_two-cls-1" x="0.02" y="70.8" width="2.1" height="1"/><rect class="sp_two-cls-1" x="0.02" y="68.7" width="2.1" height="1"/><rect class="sp_two-cls-1" x="0.02" y="66.7" width="2.1" height="1"/><rect class="sp_two-cls-1" x="0.02" y="64.6" width="2.1" height="1"/><rect class="sp_two-cls-1" x="0.02" y="62.6" width="2.1" height="1"/><rect class="sp_two-cls-1" x="0.02" y="60.5" width="2.1" height="1"/><rect class="sp_two-cls-1" x="0.02" y="58.5" width="2.1" height="1"/><rect class="sp_two-cls-1" x="0.02" y="56.4" width="2.1" height="1"/><rect class="sp_two-cls-1" x="0.02" y="54.4" width="2.1" height="1"/><rect class="sp_two-cls-1" x="0.02" y="52.3" width="2.1" height="1"/><rect class="sp_two-cls-1" x="0.02" y="50.3" width="2.1" height="1"/><rect class="sp_two-cls-1" x="0.02" y="48.2" width="2.1" height="1"/><rect class="sp_two-cls-1" x="0.02" y="46.2" width="2.1" height="1"/><rect class="sp_two-cls-1" x="0.02" y="44.1" width="2.1" height="1"/><rect class="sp_two-cls-1" x="0.7" y="41.39" width="1" height="2" transform="matrix(0.25, -0.97, 0.97, 0.25, -40.11, 32.91)"/><rect class="sp_two-cls-1" x="1.7" y="39.12" width="1" height="2.1" transform="translate(-32.54 19.91) rotate(-56.63)"/><rect class="sp_two-cls-1" x="3.29" y="37.44" width="1" height="2" transform="translate(-22.58 10.23) rotate(-37.45)"/><rect class="sp_two-cls-1" x="5.41" y="36.32" width="1" height="2.1" transform="translate(-11.44 3.76) rotate(-18.34)"/><rect class="sp_two-cls-1" x="7.82" y="35.9" width="1" height="2.1"/><rect class="sp_two-cls-1" x="9.44" y="36.48" width="2" height="1" transform="translate(-27.13 44.98) rotate(-86.24)"/><rect class="sp_two-cls-1" x="11.7" y="37.03" width="2" height="1" transform="translate(-26.78 34.49) rotate(-66.9)"/><rect class="sp_two-cls-1" x="13.69" y="38.29" width="2.1" height="1" transform="translate(-23.94 23.82) rotate(-48.04)"/><rect class="sp_two-cls-1" x="15.18" y="40.12" width="2" height="1" transform="translate(-17.51 12.77) rotate(-28.72)"/><rect class="sp_two-cls-1" x="16" y="42.39" width="2.1" height="1" transform="translate(-7.02 3.52) rotate(-9.78)"/><rect class="sp_two-cls-1" x="16.12" y="44.6" width="2.1" height="1"/><rect class="sp_two-cls-1" x="16.12" y="46.7" width="2.1" height="1"/><rect class="sp_two-cls-1" x="16.12" y="48.7" width="2.1" height="1"/><rect class="sp_two-cls-1" x="16.12" y="50.8" width="2.1" height="1"/><rect class="sp_two-cls-1" x="16.12" y="52.8" width="2.1" height="1"/><rect class="sp_two-cls-1" x="16.12" y="54.9" width="2.1" height="1"/><rect class="sp_two-cls-1" x="16.12" y="56.9" width="2.1" height="1"/><rect class="sp_two-cls-1" x="16.12" y="59" width="2.1" height="1"/><rect class="sp_two-cls-1" x="16.12" y="61" width="2.1" height="1"/><rect class="sp_two-cls-1" x="16.12" y="63.1" width="2.1" height="1"/><rect class="sp_two-cls-1" x="16.12" y="65.1" width="2.1" height="1"/><rect class="sp_two-cls-1" x="16.12" y="67.2" width="2.1" height="1"/><rect class="sp_two-cls-1" x="16.12" y="69.2" width="2.1" height="1"/><rect class="sp_two-cls-1" x="16.1" y="71.2" width="2.1" height="1" transform="translate(-2.49 0.65) rotate(-2.01)"/><rect class="sp_two-cls-1" x="16.49" y="72.78" width="2.1" height="1" transform="translate(-29.37 14.33) rotate(-25.06)"/><rect class="sp_two-cls-1" x="17.4" y="74.16" width="2" height="1" transform="translate(-49.31 38.24) rotate(-47.89)"/><rect class="sp_two-cls-1" x="18.77" y="74.95" width="2.1" height="1" transform="translate(-57.96 69.65) rotate(-71.02)"/><rect class="sp_two-cls-1" x="21.02" y="74.7" width="1" height="2.1"/><rect class="sp_two-cls-1" x="48.72" y="56.4" width="1" height="2.1"/><rect class="sp_two-cls-1" x="50.82" y="56.4" width="1" height="2.1"/><rect class="sp_two-cls-1" x="52.92" y="56.4" width="1" height="2.1"/><rect class="sp_two-cls-1" x="54.92" y="56.4" width="1" height="2.1"/><rect class="sp_two-cls-1" x="57" y="56.4" width="1" height="2" transform="translate(-3.6 3.86) rotate(-3.73)"/><rect class="sp_two-cls-1" x="59.2" y="56.11" width="1" height="2" transform="translate(-10.87 14.19) rotate(-12.43)"/><rect class="sp_two-cls-1" x="61.3" y="55.42" width="1" height="2.1" transform="translate(-16.35 26.49) rotate(-21.44)"/><rect class="sp_two-cls-1" x="63.33" y="54.51" width="1" height="2.1" transform="translate(-19.36 40.14) rotate(-30.54)"/><rect class="sp_two-cls-1" x="65.12" y="53.23" width="1" height="2.1" transform="translate(-19.52 53.87) rotate(-39.32)"/><rect class="sp_two-cls-1" x="66.71" y="51.74" width="1" height="2" transform="translate(-16.93 67.45) rotate(-48.04)"/><rect class="sp_two-cls-1" x="68.04" y="49.93" width="1" height="2" transform="translate(-11.55 80.49) rotate(-56.87)"/><rect class="sp_two-cls-1" x="69.16" y="47.98" width="1" height="2" transform="translate(-3.67 92.23) rotate(-65.64)"/><rect class="sp_two-cls-1" x="69.86" y="45.94" width="1" height="2" transform="translate(6.43 102.29) rotate(-74.59)"/><rect class="sp_two-cls-1" x="70.35" y="43.82" width="1" height="2" transform="translate(18.17 110.03) rotate(-83.37)"/><rect class="sp_two-cls-1" x="69.92" y="42.1" width="2.1" height="1"/><rect class="sp_two-cls-1" x="69.92" y="40" width="2.1" height="1"/><rect class="sp_two-cls-1" x="69.92" y="38" width="2.1" height="1"/><rect class="sp_two-cls-1" x="69.92" y="35.9" width="2.1" height="1"/><rect class="sp_two-cls-1" x="69.92" y="33.9" width="2.1" height="1"/><rect class="sp_two-cls-1" x="69.92" y="31.8" width="2.1" height="1"/><rect class="sp_two-cls-1" x="69.92" y="29.8" width="2.1" height="1"/><rect class="sp_two-cls-1" x="69.92" y="27.7" width="2.1" height="1"/><rect class="sp_two-cls-1" x="69.92" y="25.7" width="2.1" height="1"/><rect class="sp_two-cls-1" x="69.92" y="23.6" width="2.1" height="1"/><rect class="sp_two-cls-1" x="69.92" y="21.6" width="2.1" height="1"/><rect class="sp_two-cls-1" x="69.92" y="19.5" width="2.1" height="1"/><rect class="sp_two-cls-1" x="69.92" y="17.4" width="2.1" height="1"/><rect class="sp_two-cls-1" x="69.92" y="15.4" width="2.1" height="1"/><rect class="sp_two-cls-1" x="69.92" y="13.3" width="2.1" height="1"/><rect class="sp_two-cls-1" x="69.92" y="11.3" width="2.1" height="1"/><rect class="sp_two-cls-1" x="69.92" y="9.2" width="2.1" height="1"/><rect class="sp_two-cls-1" x="69.9" y="7.1" width="2.1" height="1" transform="translate(-0.37 5.98) rotate(-4.82)"/><rect class="sp_two-cls-1" x="69.31" y="4.8" width="2" height="1" transform="translate(4.03 29.31) rotate(-24.22)"/><rect class="sp_two-cls-1" x="67.99" y="2.76" width="2.1" height="1" transform="translate(16.44 48.08) rotate(-43.13)"/><rect class="sp_two-cls-1" x="66.02" y="1.28" width="2.1" height="1" transform="translate(34.32 60.33) rotate(-62.29)"/><rect class="sp_two-cls-1" x="63.81" y="0.64" width="2" height="1" transform="matrix(0.15, -0.99, 0.99, 0.15, 54.27, 65.1)"/><rect class="sp_two-cls-1" x="62.12" width="1" height="2.1"/><rect class="sp_two-cls-1" x="59.79" y="0.21" width="1" height="2" transform="translate(1.43 14.26) rotate(-13.64)"/><rect class="sp_two-cls-1" x="57.64" y="1.22" width="1" height="2.1" transform="translate(8.15 32.01) rotate(-32.98)"/><rect class="sp_two-cls-1" x="55.9" y="2.78" width="1" height="2" transform="translate(18.65 45.84) rotate(-51.91)"/><rect class="sp_two-cls-1" x="54.8" y="4.91" width="1" height="2.1" transform="translate(31.7 56.32) rotate(-71.03)"/><rect class="sp_two-cls-1" x="53.82" y="7.7" width="2.1" height="1"/><rect class="sp_two-cls-1" x="53.82" y="9.8" width="2.1" height="1"/><rect class="sp_two-cls-1" x="53.82" y="11.8" width="2.1" height="1"/><rect class="sp_two-cls-1" x="53.82" y="13.9" width="2.1" height="1"/><rect class="sp_two-cls-1" x="53.82" y="15.9" width="2.1" height="1"/><rect class="sp_two-cls-1" x="53.82" y="18" width="2.1" height="1"/><rect class="sp_two-cls-1" x="53.82" y="20.1" width="2.1" height="1"/><rect class="sp_two-cls-1" x="53.82" y="22.1" width="2.1" height="1"/><rect class="sp_two-cls-1" x="53.82" y="24.2" width="2.1" height="1"/><rect class="sp_two-cls-1" x="53.82" y="26.2" width="2.1" height="1"/><rect class="sp_two-cls-1" x="53.82" y="28.3" width="2.1" height="1"/><rect class="sp_two-cls-1" x="53.82" y="30.3" width="2.1" height="1"/><rect class="sp_two-cls-1" x="53.82" y="32.4" width="2.1" height="1"/><rect class="sp_two-cls-1" x="53.82" y="34.4" width="2.1" height="1"/><rect class="sp_two-cls-1" x="54.19" y="35.73" width="1" height="2" transform="translate(5.22 80.22) rotate(-75.2)"/><rect class="sp_two-cls-1" x="53.51" y="37.18" width="1" height="2" transform="translate(-9.34 57.13) rotate(-51.91)"/><rect class="sp_two-cls-1" x="52.21" y="38.22" width="1" height="2.1" transform="translate(-12.45 30.75) rotate(-29.24)"/><rect class="sp_two-cls-1" x="50.7" y="38.7" width="1" height="2.1" transform="translate(-3.87 5.59) rotate(-6.02)"/><rect class="sp_two-cls-1" x="48.72" y="38.7" width="1" height="2.1"/><rect class="sp_two-cls-1" x="21.02" y="131.4" width="2.1" height="1"/><rect class="sp_two-cls-1" x="21.02" y="129.4" width="2.1" height="1"/><rect class="sp_two-cls-1" x="21.02" y="127.4" width="2.1" height="1"/><rect class="sp_two-cls-1" x="21.02" y="125.3" width="2.1" height="1"/><rect class="sp_two-cls-1" x="21.02" y="123.3" width="2.1" height="1"/><rect class="sp_two-cls-1" x="21.02" y="121.2" width="2.1" height="1"/><rect class="sp_two-cls-1" x="21.02" y="119.2" width="2.1" height="1"/><rect class="sp_two-cls-1" x="21.02" y="117.1" width="2.1" height="1"/><rect class="sp_two-cls-1" x="21.02" y="115.1" width="2.1" height="1"/><rect class="sp_two-cls-1" x="21.02" y="113" width="2.1" height="1"/><rect class="sp_two-cls-1" x="21.02" y="111" width="2.1" height="1"/><rect class="sp_two-cls-1" x="21.02" y="108.9" width="2.1" height="1"/><rect class="sp_two-cls-1" x="21.02" y="106.9" width="2.1" height="1"/><rect class="sp_two-cls-1" x="21.02" y="104.8" width="2.1" height="1"/><rect class="sp_two-cls-1" x="21.02" y="102.8" width="2.1" height="1"/><rect class="sp_two-cls-1" x="21.02" y="100.7" width="2.1" height="1"/><rect class="sp_two-cls-1" x="21.02" y="98.7" width="2.1" height="1"/><rect class="sp_two-cls-1" x="21.02" y="96.6" width="2.1" height="1"/><rect class="sp_two-cls-1" x="21.02" y="72.1" width="2.1" height="1"/><rect class="sp_two-cls-1" x="21.02" y="70" width="2.1" height="1"/><rect class="sp_two-cls-1" x="21.02" y="68" width="2.1" height="1"/><rect class="sp_two-cls-1" x="21.02" y="65.9" width="2.1" height="1"/><rect class="sp_two-cls-1" x="21.02" y="63.9" width="2.1" height="1"/><rect class="sp_two-cls-1" x="21.02" y="61.8" width="2.1" height="1"/><rect class="sp_two-cls-1" x="21.02" y="59.8" width="2.1" height="1"/><rect class="sp_two-cls-1" x="21.02" y="57.7" width="2.1" height="1"/><rect class="sp_two-cls-1" x="21.02" y="55.7" width="2.1" height="1"/><rect class="sp_two-cls-1" x="21.02" y="53.6" width="2.1" height="1"/><rect class="sp_two-cls-1" x="21.02" y="51.6" width="2.1" height="1"/><rect class="sp_two-cls-1" x="21.02" y="49.6" width="2.1" height="1"/><rect class="sp_two-cls-1" x="21.02" y="47.5" width="2.1" height="1"/><rect class="sp_two-cls-1" x="21.02" y="45.5" width="2.1" height="1"/><rect class="sp_two-cls-1" x="21.02" y="43.4" width="2.1" height="1"/><rect class="sp_two-cls-1" x="21.02" y="41.4" width="2.1" height="1"/><rect class="sp_two-cls-1" x="21.02" y="39.3" width="2.1" height="1"/><rect class="sp_two-cls-1" x="21.02" y="37.3" width="2.1" height="1"/><rect class="sp_two-cls-1" x="21.02" y="35.2" width="2.1" height="1"/><rect class="sp_two-cls-1" x="21.02" y="33.2" width="2.1" height="1"/><rect class="sp_two-cls-1" x="21.02" y="31.1" width="2.1" height="1"/><rect class="sp_two-cls-1" x="21.02" y="29.1" width="2.1" height="1"/><rect class="sp_two-cls-1" x="21.02" y="27" width="2.1" height="1"/><rect class="sp_two-cls-1" x="21.51" y="24.45" width="1" height="2" transform="translate(-4.07 46.68) rotate(-88.27)"/><rect class="sp_two-cls-1" x="21.77" y="22.28" width="1" height="2" transform="translate(-5.08 40.28) rotate(-78.12)"/><rect class="sp_two-cls-1" x="22.47" y="20.12" width="1" height="2" transform="translate(-5.3 34.29) rotate(-67.56)"/><rect class="sp_two-cls-1" x="23.47" y="18.16" width="1" height="2" transform="translate(-5.16 28.76) rotate(-56.87)"/><rect class="sp_two-cls-1" x="24.91" y="16.41" width="1" height="2" transform="translate(-4.65 24.04) rotate(-46.84)"/><rect class="sp_two-cls-1" x="26.59" y="14.89" width="1" height="2" transform="translate(-4.13 19.18) rotate(-36.4)"/><rect class="sp_two-cls-1" x="28.51" y="13.79" width="1" height="2" transform="translate(-3.53 14.24) rotate(-26.05)"/><rect class="sp_two-cls-1" x="30.61" y="12.99" width="1" height="2" transform="translate(-2.62 8.99) rotate(-15.79)"/><rect class="sp_two-cls-1" x="32.8" y="12.5" width="1" height="2.1" transform="translate(-1.07 3.05) rotate(-5.16)"/><rect class="sp_two-cls-1" x="34.92" y="12.5" width="1" height="2.1"/><rect class="sp_two-cls-1" x="36.57" y="13.12" width="2" height="1" transform="translate(20.83 49.89) rotate(-85.13)"/><rect class="sp_two-cls-1" x="38.75" y="13.52" width="2" height="1" transform="translate(15.67 48.6) rotate(-74.56)"/><rect class="sp_two-cls-1" x="40.76" y="14.26" width="2" height="1" transform="translate(10.28 45.89) rotate(-64.13)"/><rect class="sp_two-cls-1" x="42.7" y="15.43" width="2" height="1" transform="translate(4.96 41.63) rotate(-53.58)"/><rect class="sp_two-cls-1" x="44.4" y="16.9" width="2" height="1" transform="translate(0.39 35.74) rotate(-43.13)"/><rect class="sp_two-cls-1" x="45.68" y="18.65" width="2" height="1" transform="translate(-2.92 28.3) rotate(-32.75)"/><rect class="sp_two-cls-1" x="46.79" y="20.6" width="2" height="1" transform="translate(-4.42 19.81) rotate(-22.4)"/><rect class="sp_two-cls-1" x="47.39" y="22.72" width="2" height="1" transform="translate(-3.71 10.41) rotate(-11.83)"/><rect class="sp_two-cls-1" x="47.7" y="25" width="2" height="1" transform="translate(-0.62 1.25) rotate(-1.46)"/><rect class="sp_two-cls-1" x="47.72" y="27" width="2.1" height="1"/><rect class="sp_two-cls-1" x="47.72" y="29.1" width="2.1" height="1"/><rect class="sp_two-cls-1" x="47.72" y="31.1" width="2.1" height="1"/><rect class="sp_two-cls-1" x="47.72" y="33.2" width="2.1" height="1"/><rect class="sp_two-cls-1" x="47.72" y="35.2" width="2.1" height="1"/><rect class="sp_two-cls-1" x="47.72" y="59.8" width="2.1" height="1"/><rect class="sp_two-cls-1" x="47.72" y="61.8" width="2.1" height="1"/><rect class="sp_two-cls-1" x="47.72" y="63.9" width="2.1" height="1"/><rect class="sp_two-cls-1" x="47.72" y="65.9" width="2.1" height="1"/><rect class="sp_two-cls-1" x="47.72" y="68" width="2.1" height="1"/><rect class="sp_two-cls-1" x="47.72" y="70" width="2.1" height="1"/><rect class="sp_two-cls-1" x="47.72" y="72.1" width="2.1" height="1"/><rect class="sp_two-cls-1" x="47.72" y="74.1" width="2.1" height="1"/><rect class="sp_two-cls-1" x="47.72" y="76.2" width="2.1" height="1"/><rect class="sp_two-cls-1" x="47.72" y="78.2" width="2.1" height="1"/><rect class="sp_two-cls-1" x="47.72" y="80.3" width="2.1" height="1"/><rect class="sp_two-cls-1" x="47.72" y="82.3" width="2.1" height="1"/><rect class="sp_two-cls-1" x="47.72" y="84.4" width="2.1" height="1"/><rect class="sp_two-cls-1" x="47.72" y="86.4" width="2.1" height="1"/><rect class="sp_two-cls-1" x="47.72" y="88.4" width="2.1" height="1"/><rect class="sp_two-cls-1" x="47.72" y="90.5" width="2.1" height="1"/><rect class="sp_two-cls-1" x="47.72" y="92.5" width="2.1" height="1"/><rect class="sp_two-cls-1" x="47.72" y="94.6" width="2.1" height="1"/><rect class="sp_two-cls-1" x="47.72" y="96.6" width="2.1" height="1"/><rect class="sp_two-cls-1" x="47.72" y="98.7" width="2.1" height="1"/><rect class="sp_two-cls-1" x="47.72" y="100.7" width="2.1" height="1"/><rect class="sp_two-cls-1" x="47.72" y="102.8" width="2.1" height="1"/><rect class="sp_two-cls-1" x="47.72" y="104.8" width="2.1" height="1"/><rect class="sp_two-cls-1" x="47.72" y="106.9" width="2.1" height="1"/><rect class="sp_two-cls-1" x="47.72" y="108.9" width="2.1" height="1"/><rect class="sp_two-cls-1" x="47.72" y="111" width="2.1" height="1"/><rect class="sp_two-cls-1" x="47.72" y="113" width="2.1" height="1"/><rect class="sp_two-cls-1" x="47.72" y="115.1" width="2.1" height="1"/><rect class="sp_two-cls-1" x="47.72" y="117.1" width="2.1" height="1"/><rect class="sp_two-cls-1" x="47.72" y="119.2" width="2.1" height="1"/><rect class="sp_two-cls-1" x="47.72" y="121.2" width="2.1" height="1"/><rect class="sp_two-cls-1" x="47.72" y="123.3" width="2.1" height="1"/><rect class="sp_two-cls-1" x="47.72" y="125.3" width="2.1" height="1"/><rect class="sp_two-cls-1" x="47.72" y="127.4" width="2.1" height="1"/><rect class="sp_two-cls-1" x="47.72" y="129.4" width="2.1" height="1"/><rect class="sp_two-cls-1" x="47.72" y="131.4" width="2.1" height="1"/><path class="sp_two-cls-1" d="M23.1,92.9H15.4A13.93,13.93,0,0,1,1.5,79V44.1a6.7,6.7,0,0,1,6.7-6.7H9.9a6.7,6.7,0,0,1,6.7,6.7V71.6a4.65,4.65,0,0,0,4.6,4.6h1.9v1H21.2a5.59,5.59,0,0,1-5.6-5.6V44.1A5.59,5.59,0,0,0,10,38.5H8.2a5.59,5.59,0,0,0-5.6,5.6V79A12.82,12.82,0,0,0,15.4,91.8h7.7Z" transform="translate(0.02)"/><path class="sp_two-cls-1" d="M23.1,85.4h-1A13.93,13.93,0,0,1,8.2,71.5V38h1V71.5A12.82,12.82,0,0,0,22,84.3h1v1.1Z" transform="translate(0.02)"/><path class="sp_two-cls-1" d="M56.6,57H47.7V56h8.9A12.82,12.82,0,0,0,69.4,43.2V8.2a5.59,5.59,0,0,0-5.6-5.6H62a5.59,5.59,0,0,0-5.6,5.6V35.7a5.59,5.59,0,0,1-5.6,5.6h-3v-1h3a4.65,4.65,0,0,0,4.6-4.6V8.2a6.7,6.7,0,0,1,6.7-6.7h1.7a6.7,6.7,0,0,1,6.7,6.7V43.1A14.07,14.07,0,0,1,56.6,57" transform="translate(0.02)"/><path class="sp_two-cls-1" d="M49.8,49.6H47.7v-1h2.1A12.82,12.82,0,0,0,62.6,35.8V2.1h1V35.8A13.83,13.83,0,0,1,49.8,49.6" transform="translate(0.02)"/><path class="sp_two-cls-1" d="M48.2,133.5h-1V25.8A10.82,10.82,0,0,0,36.4,15H34.3A10.82,10.82,0,0,0,23.5,25.8V133.5h-1V25.8A11.82,11.82,0,0,1,34.3,14h2.1A11.82,11.82,0,0,1,48.2,25.8Z" transform="translate(0.02)"/><path class="sp_two-cls-1" d="M30.6,133.5h-.9V25.3a20,20,0,0,1,3-10.6l.7.4a19.35,19.35,0,0,0-2.8,10.2Z" transform="translate(0.02)"/><path class="sp_two-cls-1" d="M41.1,133.5h-.9V25.3a20.31,20.31,0,0,0-2.8-10.2l.7-.4a21,21,0,0,1,3,10.6Z" transform="translate(0.02)"/><rect class="sp_two-cls-1" x="15.22" y="133" width="40.7" height="1"/></svg>