<svg id="truck" data-name="Layer 1" xmlns="http://www.w3.org/2000/svg" viewBox="0 0 127.1 88"><defs><style></style></defs><title>cr-icon-01</title><path class="truck-cls-1" d="M84.5,74a15.78,15.78,0,0,1,29.6,0"/><path class="truck-cls-1" d="M52.1,79.3a8.2,8.2,0,1,1-8.2-8.2A8.24,8.24,0,0,1,52.1,79.3Z"/><path class="truck-cls-1" d="M25.2,79.3A8.2,8.2,0,1,1,17,71.1,8.24,8.24,0,0,1,25.2,79.3Z"/><path class="truck-cls-1" d="M119.5,15.2c4.9,8.4,4.8,41.3,4.8,41.3h2.3V70l-2.3,4.1v7.1s-9.4,2.2-10,2.3l-2,.5"/><path class="truck-cls-1" d="M71.6,50.1V.5c4.7,2.8,29.6,2.3,40.9,6.3s10.9,8.4,10.9,8.4"/><polyline class="truck-cls-1" points="85.7 82.5 71.6 82.5 71.6 56.4 75.4 56.4"/><path class="truck-cls-1" d="M107.4,79.3a8.2,8.2,0,1,1-8.2-8.2A8.24,8.24,0,0,1,107.4,79.3Z"/><line class="truck-cls-1" x1="125.4" y1="56.5" x2="71.6" y2="56.5"/><line class="truck-cls-1" x1="123.5" y1="15.2" x2="71.6" y2="15.2"/><path class="truck-cls-1" d="M123.9,45.6s-9.2-.4-10.6-7.3-3.2-22.8-3.2-22.8"/><polyline class="truck-cls-1" points="110.8 35.2 85.9 35.2 85.9 15.5"/><line class="truck-cls-1" x1="85.9" y1="26.1" x2="85.9" y2="54"/><polyline class="truck-cls-1" points="124.4 74 118.2 66.8 118.2 56.5"/><line class="truck-cls-1" x1="71.6" y1="76.2" x2="51.6" y2="76.2"/><line class="truck-cls-1" x1="35.7" y1="76.2" x2="24.4" y2="76.2"/><polyline class="truck-cls-1" points="71.6 63.9 7.1 63.9 0.5 72.9"/><rect class="truck-cls-1" x="0.5" y="0.5" width="62.2" height="56"/></svg>