<svg id="new_construction" data-name="Layer 1" xmlns="http://www.w3.org/2000/svg" viewBox="0 0 89.11 87.23"><defs><style>.new_construction-cls-1{fill:#29b6b9;}</style></defs><title>cr-icon-05</title><path class="new_construction-cls-1" d="M15.4,73.7,56.9,32.3h0a.91.91,0,0,0,.3-.7,1,1,0,0,0-1-1,1.14,1.14,0,0,0-.8.3L13.9,72.2a1.05,1.05,0,0,0,.7,1.8A1.14,1.14,0,0,0,15.4,73.7Z" transform="translate(0.01 0.02)"/><path class="new_construction-cls-1" d="M74.3,34.9a1.09,1.09,0,0,0,0,1.5l3.2,3.2a1.08,1.08,0,0,0,.7.3.91.91,0,0,0,.7-.3l9.9-9.9a1.09,1.09,0,0,0,0-1.5L85.6,25a1,1,0,0,0-1.4,0l-.6.6a1.93,1.93,0,0,1-2.8,0l-.1-.1a2,2,0,0,1,0-2.7l.6-.6a1.08,1.08,0,0,0,.3-.7.91.91,0,0,0-.3-.7l-2.6-2.6,2.8-2.8a1.08,1.08,0,0,0,.3-.7.91.91,0,0,0-.3-.7L73.4,5.9a1,1,0,0,0-1.4,0L69.2,8.7,65,4.4a14.91,14.91,0,0,0-21.2,0,1.08,1.08,0,0,0-.3.7,1.08,1.08,0,0,0,.3.7l3,3a1.08,1.08,0,0,0,.7.3.91.91,0,0,0,.7-.3l.1-.1a4.71,4.71,0,0,1,3.3-1.4,4.53,4.53,0,0,1,3.3,1.4,4.89,4.89,0,0,1,0,6.9,1.09,1.09,0,0,0,0,1.5l2.8,2.8L41.3,36.6,27.2,22.5A13.76,13.76,0,0,0,9.8,5.9a1,1,0,0,0-.7.7,1.16,1.16,0,0,0,.2,1l8,8-1.5,5.5-5.5,1.5-8-8a1,1,0,0,0-1-.3,1.21,1.21,0,0,0-.7.7A13.7,13.7,0,0,0,13.8,32.8a12.67,12.67,0,0,0,3.4-.4L31.3,46.5,3.1,74.7a1.09,1.09,0,0,0,0,1.5,1.08,1.08,0,0,0,.7.3,1.08,1.08,0,0,0,.7-.3L59.2,21.5l2.6,2.6,1.5,1.5,2.6,2.6L11.3,82.8a1.05,1.05,0,0,0,.7,1.8,1.08,1.08,0,0,0,.7-.3L40.9,56.1,54.8,70a13.17,13.17,0,0,0-.4,3.4A13.78,13.78,0,0,0,72.2,86.6a1.21,1.21,0,0,0,.7-.7,1,1,0,0,0-.3-1l-8-8,1.5-5.5,5.5-1.5,8,8a1,1,0,0,0,1,.3,1,1,0,0,0,.7-.7A13.7,13.7,0,0,0,68.1,59.7h0a12.67,12.67,0,0,0-3.4.4L50.8,46.2,67.4,29.6,70,32.2a1.09,1.09,0,0,0,1.5,0l.6-.6a1.93,1.93,0,0,1,2.8,0l.1.1a2,2,0,0,1,0,2.7ZM17.2,30.3h0a13.32,13.32,0,0,1-3.4.5,11.73,11.73,0,0,1-8.3-3.4,11.86,11.86,0,0,1-3.3-10l7.1,7.1a1,1,0,0,0,1,.3L17,23a1,1,0,0,0,.7-.7l1.8-6.6a1,1,0,0,0-.3-1L12.1,7.6a12.06,12.06,0,0,1,10,3.3,11.71,11.71,0,0,1,0,16.6A14,14,0,0,1,17.2,30.3ZM32.8,45.1,19.4,31.7a14.4,14.4,0,0,0,4.2-2.9,15,15,0,0,0,2.9-4.2L39.9,38ZM68.1,61.7a11.73,11.73,0,0,1,8.3,3.4,11.86,11.86,0,0,1,3.3,10L72.6,68a1,1,0,0,0-1-.3L65,69.5a1,1,0,0,0-.7.7l-1.8,6.6a1,1,0,0,0,.3,1l7.1,7.1a12.06,12.06,0,0,1-10-3.3,11.6,11.6,0,0,1,8.2-19.9Zm-5.6-.9a14.4,14.4,0,0,0-4.2,2.9,13.71,13.71,0,0,0-2.9,4.2l-13-13.3,7-7ZM72.7,8.1l2.6,2.6,1.5,1.5,2.6,2.6-2.1,2-2.6-2.6-1.5-1.5-2.6-2.6Zm.7,20.8a4.49,4.49,0,0,0-2.7,1l-6.6-6.6h0l-7-7a7,7,0,0,0-.7-9.1,6.73,6.73,0,0,0-4.8-2,7.06,7.06,0,0,0-4.2,1.4L46,5.2a12.84,12.84,0,0,1,17.5.7L79.2,21.6a4,4,0,0,0,.1,5.5l.1.1a4,4,0,0,0,2.8,1.2,4.49,4.49,0,0,0,2.7-1l1.8,1.8-8.4,8.4-1.8-1.8a4,4,0,0,0-.1-5.5l-.1-.1A3.74,3.74,0,0,0,73.4,28.9Z" transform="translate(0.01 0.02)"/><rect class="new_construction-cls-1" x="54.56" y="59.4" width="1.6" height="3.1" transform="translate(-26.88 57.35) rotate(-45.23)"/><rect class="new_construction-cls-1" x="50.13" y="54.81" width="1.6" height="3.1" transform="translate(-24.94 52.91) rotate(-45.28)"/><rect class="new_construction-cls-1" x="31.6" y="36.17" width="1.6" height="3.1" transform="translate(-17.19 34.2) rotate(-45.25)"/><polygon class="new_construction-cls-1" points="28.51 34.73 29.61 33.63 27.41 31.43 26.31 32.52 28.51 34.73"/></svg>