<svg id="tumbleweed" data-name="Layer 1" xmlns="http://www.w3.org/2000/svg" viewBox="0 0 94.02 86.95"><defs><style>.tumbleweed-cls-1{fill:none;stroke:#a87a3f;stroke-miterlimit:10;stroke-width:1.15px;}</style></defs><title>icon-tumbleweed</title><path class="tumbleweed-cls-1" d="M.5,26.4s7.8,10.4,9.9,22.5" transform="translate(-0.04 -0.05)"/><path class="tumbleweed-cls-1" d="M1.9,37.8s9.6,2.8,17.7-7.1,14-19.9,25-24.8" transform="translate(-0.04 -0.05)"/><path class="tumbleweed-cls-1" d="M11.7,15.6S11,40,22.2,52.7s21.5,17.6,20,30" transform="translate(-0.04 -0.05)"/><path class="tumbleweed-cls-1" d="M17.1,15.6s-1.3,18,13,25.4,29.5,9.8,32.8,31.4" transform="translate(-0.04 -0.05)"/><path class="tumbleweed-cls-1" d="M2.3,42.9S16.7,49.8,26,61.8s9.7,15.7,23.3,23.1" transform="translate(-0.04 -0.05)"/><path class="tumbleweed-cls-1" d="M6.8,23.9A74.55,74.55,0,0,1,24.5,38C32.4,46.8,45,56.7,62.1,60.1S81.8,71.2,81.8,71.2" transform="translate(-0.04 -0.05)"/><path class="tumbleweed-cls-1" d="M3.3,57.3s3.5-1.7,11.5-.6" transform="translate(-0.04 -0.05)"/><path class="tumbleweed-cls-1" d="M10.3,71.9s4-5.5,5.1-15.5" transform="translate(-0.04 -0.05)"/><path class="tumbleweed-cls-1" d="M7.9,61.4A265.87,265.87,0,0,1,44.6,39.9c21.3-10.3,35.6-14.1,40-15" transform="translate(-0.04 -0.05)"/><path class="tumbleweed-cls-1" d="M4.3,50.2a278.19,278.19,0,0,1,39-4.9c19.9-.9,32.5,0,43.7-4.6" transform="translate(-0.04 -0.05)"/><path class="tumbleweed-cls-1" d="M15,77.1a22,22,0,0,1,8-6.6" transform="translate(-0.04 -0.05)"/><path class="tumbleweed-cls-1" d="M16.8,84.1S25.6,67.4,30,50.3,41.6,14.3,50.5,5" transform="translate(-0.04 -0.05)"/><path class="tumbleweed-cls-1" d="M13.3,59.3S21.3,71.7,39,74s27.9-1.1,34.1-5.6,6.9-8.9,12.8-9.6" transform="translate(-0.04 -0.05)"/><path class="tumbleweed-cls-1" d="M22.8,84.2s1.3-8.7-.1-13.1" transform="translate(-0.04 -0.05)"/><path class="tumbleweed-cls-1" d="M26.9,85.1s5.9-16.9,3.5-30.2S27.8,18.3,29,7.4" transform="translate(-0.04 -0.05)"/><path class="tumbleweed-cls-1" d="M21.4,7.3A38.94,38.94,0,0,1,17.9,24" transform="translate(-0.04 -0.05)"/><path class="tumbleweed-cls-1" d="M13.5,20.6s14.1,9.3,28.2,2.3S61,8.5,61,8.5" transform="translate(-0.04 -0.05)"/><path class="tumbleweed-cls-1" d="M30.5,1.5S28.9,8.2,36,15.8" transform="translate(-0.04 -0.05)"/><path class="tumbleweed-cls-1" d="M23.8,12.4s3.7,1.5,8.9,9.4S47.2,43.3,59.9,47,85.7,52.2,90,51.6" transform="translate(-0.04 -0.05)"/><path class="tumbleweed-cls-1" d="M42.7.6a27.35,27.35,0,0,1-2.1,13.2" transform="translate(-0.04 -0.05)"/><path class="tumbleweed-cls-1" d="M36.8,5.6A32.61,32.61,0,0,0,52.9,25.3c13.2,7,36,17,31.7,37.1" transform="translate(-0.04 -0.05)"/><path class="tumbleweed-cls-1" d="M72.7,63.3s6.9-2,17.6,1" transform="translate(-0.04 -0.05)"/><path class="tumbleweed-cls-1" d="M83.3,48.6s2.8-2.2,10.7-1.4" transform="translate(-0.04 -0.05)"/><path class="tumbleweed-cls-1" d="M52.7,16.3S53.4,5.1,57,.4" transform="translate(-0.04 -0.05)"/><path class="tumbleweed-cls-1" d="M59.3,10.5S53.4,5.5,51.4.4" transform="translate(-0.04 -0.05)"/><path class="tumbleweed-cls-1" d="M30.7,82.7s7-4.4,9.7-23.5S44,37.8,49.1,28.9s14.5-14,16.2-17.6" transform="translate(-0.04 -0.05)"/><path class="tumbleweed-cls-1" d="M48.4,30.7S68.8,19.8,75.6,9.5" transform="translate(-0.04 -0.05)"/><path class="tumbleweed-cls-1" d="M66.8,18.6s1.1-9.4,4.7-12.9" transform="translate(-0.04 -0.05)"/><path class="tumbleweed-cls-1" d="M30.6,75.6S47,61.4,55,50.9,69.9,38.6,76.1,35s12-7.6,12.9-8.8" transform="translate(-0.04 -0.05)"/><path class="tumbleweed-cls-1" d="M51.4,78.3s1.5-9.6.2-17.1a40.46,40.46,0,0,1,6-29.6c7.3-11.4,16.2-15.2,16.2-15.2" transform="translate(-0.04 -0.05)"/><path class="tumbleweed-cls-1" d="M39.3,80.5s19.5-24,23.4-29.3S79.3,28.1,82,22.8" transform="translate(-0.04 -0.05)"/><path class="tumbleweed-cls-1" d="M45.3,86.6s14.9-15.5,22.6-27S79.3,41,88.1,35.5" transform="translate(-0.04 -0.05)"/><path class="tumbleweed-cls-1" d="M82.4,31.4s5,1.7,7.8-.2" transform="translate(-0.04 -0.05)"/><path class="tumbleweed-cls-1" d="M75.4,14.7a118.36,118.36,0,0,1-2.2,27.5c-3,15.3-7.8,28.3-4.3,41.7" transform="translate(-0.04 -0.05)"/><path class="tumbleweed-cls-1" d="M60,73.9a44.15,44.15,0,0,0-3.6,11.8" transform="translate(-0.04 -0.05)"/><path class="tumbleweed-cls-1" d="M61.8,73.5a25.48,25.48,0,0,1,2,11.8" transform="translate(-0.04 -0.05)"/><path class="tumbleweed-cls-1" d="M68.2,66.8a22.7,22.7,0,0,1,8,13.1" transform="translate(-0.04 -0.05)"/><path class="tumbleweed-cls-1" d="M75.5,18.9a25.25,25.25,0,0,1,9-3.7" transform="translate(-0.04 -0.05)"/></svg>