<svg id="car" data-name="Layer 1" xmlns="http://www.w3.org/2000/svg" viewBox="0 0 154.1 65.54"><defs><style>}</style></defs><title>results-icon-01</title><path class="car-cls-1" d="M121.7,57.6h2a10,10,0,0,0,10-10.1V44.4l-1.1-2.1h0a14.94,14.94,0,0,0-12.4-14.8l-16.1-3.1-1.8-.1-.9-.9C81.7-2.4,42.7-2.1,23.9,24.3H18.8v2.8l1.9,2.7V41l-1.9,3.9v6.5a6.27,6.27,0,0,0,6.3,6.3h3.6" transform="translate(0 0.04)"/><line class="car-cls-1" x1="50" y1="57.64" x2="100.4" y2="57.64"/><circle class="car-cls-1" cx="111.5" cy="53.94" r="11.1"/><circle class="car-cls-1" cx="39.2" cy="53.94" r="11.1"/><path class="car-cls-1" d="M63.3,9.5V35.4A14.77,14.77,0,0,0,78.1,50.2H93" transform="translate(0 0.04)"/><path class="car-cls-1" d="M118.9,26.1v5.6a7.38,7.38,0,0,0,7.4,7.4h5.6" transform="translate(0 0.04)"/><line class="car-cls-1" x1="58.1" y1="28.14" x2="28.1" y2="28.04"/><line class="car-cls-1" x1="94.8" y1="28.04" x2="68.9" y2="28.04"/><circle class="car-cls-1" cx="111.5" cy="53.94" r="3.7"/><circle class="car-cls-1" cx="39.2" cy="53.94" r="3.7"/><path class="car-cls-1" d="M93,52.1h0a16.73,16.73,0,0,1,16.7-16.7h0" transform="translate(0 0.04)"/><line class="car-cls-1" x1="4.9" y1="37.24" x2="8.6" y2="37.24"/><line class="car-cls-1" x1="28.1" y1="3.54" x2="26.3" y2="0.24"/><line class="car-cls-1" x1="22.5" y1="7.44" x2="20.2" y2="4.54"/><line class="car-cls-1" x1="17.8" y1="12.14" x2="14.9" y2="9.84"/><line class="car-cls-1" x1="13.9" y1="17.74" x2="10.7" y2="15.94"/><line class="car-cls-1" x1="11" y1="23.94" x2="7.5" y2="22.64"/><line class="car-cls-1" x1="9.2" y1="30.44" x2="5.6" y2="29.84"/><line class="car-cls-1" x1="130" y1="65.04" x2="154.1" y2="65.04"/><line class="car-cls-1" y1="65.04" x2="22.2" y2="65.04"/><line class="car-cls-1" x1="53.7" y1="65.04" x2="98.5" y2="65.04"/></svg>