<?xml version="1.0" encoding="utf-8"?>
<!-- Generator: Adobe Illustrator 21.1.0, SVG Export Plug-In . SVG Version: 6.00 Build 0)  -->
<svg version="1.1" id="Layer_1" xmlns="http://www.w3.org/2000/svg" xmlns:xlink="http://www.w3.org/1999/xlink" x="0px" y="0px"
	 viewBox="0 0 83.5 81.8" style="enable-background:new 0 0 83.5 81.8;" xml:space="preserve">
<style type="text/css">
	.st0{fill:#17BBBD;}
	.st1{fill:none;stroke:#17BBBD;stroke-width:2;stroke-miterlimit:10;}
</style>
<path class="st0" d="M70.9,8.1c-6.1,0-11.1,5-11.1,11.1c0,5.7,4.3,10.5,9.9,11.1l0.4,0l0,42.1c0,2.1-0.8,4-2.2,5.5
	c-1.4,1.4-3.2,2.2-5.2,2.2l-1.1,0c-1.9,0-3.8-0.8-5.2-2.2c-1.4-1.5-2.2-3.4-2.2-5.5l0-15.5c0-2.5-0.9-4.8-2.6-6.6
	c-1.7-1.8-3.9-2.7-6.3-2.7c-2.3,0-4.5,0.9-6.1,2.5c-1.8,1.8-2.8,4.2-2.8,6.8l0,15.5c0,4.2-3.3,7.7-7.3,7.7l-3.4,0
	c-4,0-7.3-3.5-7.3-7.7l0-16.4l0.5,0c9.2-0.7,16.4-8.4,16.4-17.6v-26c0-5.4-4.4-9.8-9.8-9.8H25l-0.1-0.5V0h-1.6v6.8h1.6V4.2h0.5
	c4.6,0,8.3,3.7,8.3,8.2v26c0,8.8-7.2,16-16,16s-16-7.2-16-16v-26c0-4.5,3.7-8.2,8.2-8.2h0.5l0.1,0.5v2.1H12V0h-1.6v2.6H9.9
	C4.4,2.6,0,7,0,12.4v26C0,47.6,7.2,55.4,16.4,56l0.5,0l0,16.4c0,5.1,4,9.3,8.9,9.3l3.4,0c4.9,0,8.9-4.2,9-9.3l0-15.5
	c0-4.2,3.3-7.7,7.3-7.7c2,0,3.8,0.8,5.2,2.2C52,53,52.8,55,52.8,57l0,15.5c0,2.5,0.9,4.8,2.6,6.6c1.7,1.8,3.9,2.7,6.3,2.7l1.1,0
	c2.4,0,4.6-1,6.3-2.7c1.7-1.8,2.6-4.1,2.6-6.6l0-42.1l0.4,0c5.6-0.6,9.9-5.4,9.9-11.1C82.1,13.1,77.1,8.1,70.9,8.1z M70.9,23.3
	c-2.2,0-4-1.8-4-4c0-2.2,1.8-4,4-4c2.2,0,4,1.8,4,4C74.9,21.5,73.1,23.3,70.9,23.3z M72.3,28.7l-0.6,0.1l0-3.9l0.4-0.1
	c2.6-0.6,4.4-2.9,4.4-5.5c0-3.1-2.5-5.6-5.6-5.6c-3.1,0-5.6,2.5-5.6,5.6c0,2.6,1.9,5,4.5,5.5l0.4,0.1l0,3.9l-0.6-0.1
	c-4.7-0.7-8.2-4.7-8.2-9.4c0-5.3,4.3-9.5,9.5-9.5c5.3,0,9.5,4.3,9.5,9.5C80.5,24,77,28,72.3,28.7z"/>
<line class="st1" x1="3.8" y1="62.9" x2="3.8" y2="65.5"/>
<line class="st1" x1="3.8" y1="68.1" x2="3.8" y2="70.7"/>
<line class="st1" x1="3.8" y1="73.3" x2="3.8" y2="75.9"/>
<line class="st1" x1="3.8" y1="78.5" x2="3.8" y2="81.1"/>
<line class="st1" x1="82.5" y1="33.1" x2="82.5" y2="35.7"/>
<line class="st1" x1="82.5" y1="38.3" x2="82.5" y2="40.9"/>
<line class="st1" x1="82.5" y1="43.5" x2="82.5" y2="46.1"/>
<line class="st1" x1="82.5" y1="48.7" x2="82.5" y2="51.3"/>
</svg>
