<?xml version="1.0" encoding="utf-8"?>
<!-- Generator: Adobe Illustrator 21.1.0, SVG Export Plug-In . SVG Version: 6.00 Build 0)  -->
<svg version="1.1" id="Layer_1" xmlns="http://www.w3.org/2000/svg" xmlns:xlink="http://www.w3.org/1999/xlink" x="0px" y="0px"
	 viewBox="0 0 102.2 67.6" style="enable-background:new 0 0 102.2 67.6;" xml:space="preserve">
<style type="text/css">
	.st0{fill:none;stroke:#17BBBD;stroke-miterlimit:10;}
</style>
<line class="st0" x1="89.2" y1="52.2" x2="85.3" y2="48.3"/>
<line class="st0" x1="96.2" y1="43" x2="91.4" y2="40.2"/>
<line class="st0" x1="1.1" y1="9.4" x2="6.5" y2="10.8"/>
<line class="st0" x1="100.7" y1="32.3" x2="95.3" y2="30.9"/>
<line class="st0" x1="0" y1="20.8" x2="5.5" y2="20.8"/>
<line class="st0" x1="102.2" y1="20.8" x2="96.6" y2="20.8"/>
<line class="st0" x1="1.5" y1="32.3" x2="6.9" y2="30.9"/>
<line class="st0" x1="100.7" y1="9.4" x2="95.3" y2="10.8"/>
<line class="st0" x1="5.9" y1="43" x2="10.7" y2="40.2"/>
<line class="st0" x1="13" y1="52.2" x2="16.9" y2="48.3"/>
<polyline class="st0" points="50.9,67.1 53.9,45 44.2,33.1 51,25.8 46.5,15.7 "/>
<path class="st0" d="M65.6,0.5c-5.5,0-10.7,2.5-14.3,6.9L51,7.8l-0.3-0.4C47.1,3,41.9,0.5,36.4,0.5c-10.3,0-18.7,8.9-18.7,19.8
	c0,4.5,1.4,8.8,4,12.3c0.7,0.9,21.9,26.2,28.3,34c0.5,0.6,1.3,0.6,1.6,0.1l0.2-0.3c8.3-9.9,27.6-33,28.1-33.6
	c0.1-0.1,0.1-0.1,0.1-0.2c2.7-3.6,4-7.8,4-12.2C84.4,9.4,75.9,0.5,65.6,0.5z"/>
</svg>
