<?xml version="1.0" encoding="utf-8"?>
<!-- Generator: Adobe Illustrator 21.1.0, SVG Export Plug-In . SVG Version: 6.00 Build 0)  -->
<svg version="1.1" id="Layer_1" xmlns="http://www.w3.org/2000/svg" xmlns:xlink="http://www.w3.org/1999/xlink" x="0px" y="0px"
	 viewBox="0 0 154.1 65.6" style="enable-background:new 0 0 154.1 65.6;" xml:space="preserve">
<style type="text/css">
	.st0{fill:none;stroke:#17BBBD;stroke-miterlimit:10;}
</style>
<g>
	<g>
		<path class="st0" d="M121.7,57.6h2c5.6,0,10-4.5,10-10.1v-3.1l-1.1-2.1l0,0c0-7.3-5.2-13.6-12.4-14.8l-16.1-3.1l-1.8-0.1l-0.9-0.9
			C81.7-2.4,42.7-2.1,23.9,24.3h-5.1v2.8l1.9,2.7V41l-1.9,3.9v6.5c0,3.5,2.8,6.3,6.3,6.3l0,0h3.6"/>
		<line class="st0" x1="50" y1="57.6" x2="100.4" y2="57.6"/>
	</g>
	<circle class="st0" cx="111.5" cy="53.9" r="11.1"/>
	<circle class="st0" cx="39.2" cy="53.9" r="11.1"/>
	<path class="st0" d="M63.3,9.5v22.2v3.7c0,8.2,6.6,14.8,14.8,14.8H93"/>
	<path class="st0" d="M118.9,26.1v5.6c0,4.1,3.3,7.4,7.4,7.4h5.6"/>
	<line class="st0" x1="58.1" y1="28.1" x2="28.1" y2="28"/>
	<line class="st0" x1="94.8" y1="28" x2="68.9" y2="28"/>
	<circle class="st0" cx="111.5" cy="53.9" r="3.7"/>
	<circle class="st0" cx="39.2" cy="53.9" r="3.7"/>
	<path class="st0" d="M93,52.1L93,52.1c0-9.2,7.5-16.7,16.7-16.7l0,0"/>
</g>
<g>
	<line class="st0" x1="4.9" y1="37.2" x2="8.6" y2="37.2"/>
</g>
<g>
	<line class="st0" x1="28.1" y1="3.5" x2="26.3" y2="0.2"/>
</g>
<g>
	<line class="st0" x1="22.5" y1="7.4" x2="20.2" y2="4.5"/>
</g>
<g>
	<line class="st0" x1="17.8" y1="12.1" x2="14.9" y2="9.8"/>
</g>
<g>
	<line class="st0" x1="13.9" y1="17.7" x2="10.7" y2="15.9"/>
</g>
<g>
	<line class="st0" x1="11" y1="23.9" x2="7.5" y2="22.6"/>
</g>
<g>
	<line class="st0" x1="9.2" y1="30.4" x2="5.6" y2="29.8"/>
</g>
<line class="st0" x1="130" y1="65" x2="154.1" y2="65"/>
<line class="st0" x1="0" y1="65" x2="22.2" y2="65"/>
<line class="st0" x1="53.7" y1="65" x2="98.5" y2="65"/>
</svg>
