<?xml version="1.0" encoding="utf-8"?>
<!-- Generator: Adobe Illustrator 21.1.0, SVG Export Plug-In . SVG Version: 6.00 Build 0)  -->
<svg version="1.1" id="Layer_1" xmlns="http://www.w3.org/2000/svg" xmlns:xlink="http://www.w3.org/1999/xlink" x="0px" y="0px"
	 viewBox="0 0 20.8 16.9" style="enable-background:new 0 0 20.8 16.9;" xml:space="preserve">
<style type="text/css">
	.st0{fill:#111627;}
</style>
<path class="st0" d="M20.8,2c-0.8,0.3-1.6,0.6-2.4,0.7c0.9-0.5,1.6-1.4,1.9-2.4c-0.8,0.5-1.7,0.8-2.7,1C16.7,0.5,15.6,0,14.4,0
	c-2.4,0-4.3,1.9-4.3,4.3c0,0.3,0,0.7,0.1,1C6.7,5.1,3.5,3.4,1.4,0.8C1.1,1.4,0.9,2.1,0.9,2.9c0,1.5,0.8,2.8,1.9,3.5
	c-0.7,0-1.4-0.2-1.9-0.5c0,0,0,0,0,0.1c0,2.1,1.5,3.8,3.4,4.2c-0.4,0.1-0.7,0.1-1.1,0.1c-0.3,0-0.5,0-0.8-0.1c0.5,1.7,2.1,2.9,4,3
	C4.8,14.3,3,15,1,15c-0.3,0-0.7,0-1-0.1c1.9,1.2,4.1,1.9,6.5,1.9c7.8,0,12.1-6.5,12.1-12.1c0-0.2,0-0.4,0-0.6
	C19.5,3.6,20.2,2.9,20.8,2"/>
</svg>
