<?xml version="1.0" encoding="utf-8"?>
<!-- Generator: Adobe Illustrator 21.1.0, SVG Export Plug-In . SVG Version: 6.00 Build 0)  -->
<svg version="1.1" id="Layer_1" xmlns="http://www.w3.org/2000/svg" xmlns:xlink="http://www.w3.org/1999/xlink" x="0px" y="0px"
	 viewBox="0 0 17.3 17.2" style="enable-background:new 0 0 17.3 17.2;" xml:space="preserve">
<style type="text/css">
	.st0{fill:#111627;}
</style>
<path class="st0" d="M0.3,5.7h3.6v11.5H0.3V5.7z M2.1,0c1.1,0,2.1,0.9,2.1,2.1c0,1.1-0.9,2.1-2.1,2.1C0.9,4.2,0,3.2,0,2.1
	C0,0.9,0.9,0,2.1,0"/>
<path class="st0" d="M6.1,5.7h3.4v1.6h0c0.5-0.9,1.6-1.9,3.4-1.9c3.6,0,4.3,2.4,4.3,5.5v6.3h-3.6v-5.6c0-1.3,0-3.1-1.9-3.1
	c-1.9,0-2.1,1.5-2.1,3v5.7H6.1V5.7z"/>
</svg>
