<?xml version="1.0" encoding="utf-8"?>
<!-- Generator: Adobe Illustrator 21.1.0, SVG Export Plug-In . SVG Version: 6.00 Build 0)  -->
<svg version="1.1" id="Layer_1" xmlns="http://www.w3.org/2000/svg" xmlns:xlink="http://www.w3.org/1999/xlink" x="0px" y="0px"
	 viewBox="0 0 25.6 16.3" style="enable-background:new 0 0 25.6 16.3;" xml:space="preserve">
<style type="text/css">
	.st0{fill:#111627;}
</style>
<path class="st0" d="M0,7.7c-0.3,3.4,2,6.8,5.2,8c3.2,1.2,7.2,0.4,9.2-2.5c1.3-1.8,1.6-4.1,1.5-6.3c-2.6,0-5.2,0-7.8,0
	c0,0.9,0,1.8,0,2.8c1.5,0.1,3.1,0,4.7,0.1c-0.7,3.4-5.4,4.5-7.8,2.3c-2.5-2-2.4-6.3,0.2-8.1C7,2.5,9.7,2.9,11.5,4.1
	c0.7-0.7,1.4-1.4,2.1-2.1C12,0.8,10.1-0.1,8.1,0C3.9-0.1,0.1,3.5,0,7.7"/>
<path class="st0" d="M21,4.6c0,0.8,0,1.5,0,2.3c-0.8,0-1.5,0-2.3,0v2.3c0.8,0,1.5,0,2.3,0c0,0.8,0,1.5,0,2.3h2.3c0-0.8,0-1.5,0-2.3
	c0.8,0,1.5,0,2.3,0V7c-0.8,0-1.5,0-2.3,0c0-0.8,0-1.5,0-2.3H21z"/>
</svg>
