<?xml version="1.0" encoding="utf-8"?>
<!-- Generator: Adobe Illustrator 21.1.0, SVG Export Plug-In . SVG Version: 6.00 Build 0)  -->
<svg version="1.1" id="Layer_1" xmlns="http://www.w3.org/2000/svg" xmlns:xlink="http://www.w3.org/1999/xlink" x="0px" y="0px"
	 viewBox="0 0 72 134" style="enable-background:new 0 0 72 134;" xml:space="preserve">
<style type="text/css">
	.st0{fill:#A87A3F;}
</style>
<rect x="21" y="92.4" class="st0" width="1" height="2.1"/>
<rect x="19" y="92.4" class="st0" width="1" height="2.1"/>
<rect x="16.9" y="92.4" class="st0" width="1" height="2.1"/>
<rect x="14.9" y="92.4" class="st0" width="1" height="2.1"/>
<rect x="12.2" y="92.7" transform="matrix(0.1514 -0.9885 0.9885 0.1514 -80.9278 92.1496)" class="st0" width="2" height="1"/>
<rect x="10" y="92.2" transform="matrix(0.3045 -0.9525 0.9525 0.3045 -80.6185 75.0115)" class="st0" width="2.1" height="1"/>
<rect x="8" y="91.4" transform="matrix(0.4472 -0.8944 0.8944 0.4472 -77.2017 58.8563)" class="st0" width="2" height="1"/>
<rect x="6.1" y="90.2" transform="matrix(0.5766 -0.817 0.817 0.5766 -71.1332 44.2378)" class="st0" width="2" height="1"/>
<rect x="4.4" y="88.8" transform="matrix(0.6948 -0.7192 0.7192 0.6948 -62.6073 31.1712)" class="st0" width="2.1" height="1"/>
<rect x="2.9" y="87.2" transform="matrix(0.7984 -0.6021 0.6021 0.7984 -52.0081 20.0615)" class="st0" width="2" height="1"/>
<rect x="1.7" y="85.3" transform="matrix(0.878 -0.4786 0.4786 0.878 -40.7555 11.7885)" class="st0" width="2.1" height="1"/>
<rect x="0.8" y="83.3" transform="matrix(0.9412 -0.3378 0.3378 0.9412 -28.209 5.5568)" class="st0" width="2" height="1"/>
<rect x="0.3" y="81.2" transform="matrix(0.9826 -0.1857 0.1857 0.9826 -15.1482 1.6589)" class="st0" width="2" height="1"/>
<rect x="0" y="79" transform="matrix(0.9994 -3.512618e-02 3.512618e-02 0.9994 -2.7924 8.564295e-02)" class="st0" width="2" height="1"/>
<rect y="76.9" class="st0" width="2.1" height="1"/>
<rect y="74.9" class="st0" width="2.1" height="1"/>
<rect y="72.8" class="st0" width="2.1" height="1"/>
<rect y="70.8" class="st0" width="2.1" height="1"/>
<rect y="68.7" class="st0" width="2.1" height="1"/>
<rect y="66.7" class="st0" width="2.1" height="1"/>
<rect y="64.6" class="st0" width="2.1" height="1"/>
<rect y="62.6" class="st0" width="2.1" height="1"/>
<rect y="60.5" class="st0" width="2.1" height="1"/>
<rect y="58.5" class="st0" width="2.1" height="1"/>
<rect y="56.4" class="st0" width="2.1" height="1"/>
<rect y="54.4" class="st0" width="2.1" height="1"/>
<rect y="52.3" class="st0" width="2.1" height="1"/>
<rect y="50.3" class="st0" width="2.1" height="1"/>
<rect y="48.2" class="st0" width="2.1" height="1"/>
<rect y="46.2" class="st0" width="2.1" height="1"/>
<rect y="44.1" class="st0" width="2.1" height="1"/>
<rect x="0.7" y="41.3" transform="matrix(0.2509 -0.968 0.968 0.2509 -40.045 32.9341)" class="st0" width="1" height="2"/>
<rect x="1.7" y="39.1" transform="matrix(0.5501 -0.8351 0.8351 0.5501 -32.5414 19.9239)" class="st0" width="1" height="2.1"/>
<rect x="3.3" y="37.4" transform="matrix(0.7938 -0.6081 0.6081 0.7938 -22.5762 10.2655)" class="st0" width="1" height="2"/>
<rect x="5.4" y="36.3" transform="matrix(0.9492 -0.3147 0.3147 0.9492 -11.4403 3.7709)" class="st0" width="1" height="2.1"/>
<rect x="7.8" y="35.9" class="st0" width="1" height="2.1"/>
<rect x="9.4" y="36.5" transform="matrix(6.551003e-02 -0.9979 0.9979 6.551003e-02 -27.1605 44.9352)" class="st0" width="2" height="1"/>
<rect x="11.7" y="37" transform="matrix(0.3924 -0.9198 0.9198 0.3924 -26.7722 34.495)" class="st0" width="2" height="1"/>
<rect x="13.7" y="38.3" transform="matrix(0.6687 -0.7436 0.7436 0.6687 -23.9718 23.8146)" class="st0" width="2.1" height="1"/>
<rect x="15.2" y="40.1" transform="matrix(0.877 -0.4805 0.4805 0.877 -17.5404 12.7932)" class="st0" width="2" height="1"/>
<rect x="16" y="42.4" transform="matrix(0.9855 -0.1698 0.1698 0.9855 -7.0408 3.51)" class="st0" width="2.1" height="1"/>
<rect x="16.1" y="44.6" class="st0" width="2.1" height="1"/>
<rect x="16.1" y="46.7" class="st0" width="2.1" height="1"/>
<rect x="16.1" y="48.7" class="st0" width="2.1" height="1"/>
<rect x="16.1" y="50.8" class="st0" width="2.1" height="1"/>
<rect x="16.1" y="52.8" class="st0" width="2.1" height="1"/>
<rect x="16.1" y="54.9" class="st0" width="2.1" height="1"/>
<rect x="16.1" y="56.9" class="st0" width="2.1" height="1"/>
<rect x="16.1" y="59" class="st0" width="2.1" height="1"/>
<rect x="16.1" y="61" class="st0" width="2.1" height="1"/>
<rect x="16.1" y="63.1" class="st0" width="2.1" height="1"/>
<rect x="16.1" y="65.1" class="st0" width="2.1" height="1"/>
<rect x="16.1" y="67.2" class="st0" width="2.1" height="1"/>
<rect x="16.1" y="69.2" class="st0" width="2.1" height="1"/>
<rect x="16.1" y="71.2" transform="matrix(0.9994 -3.512661e-02 3.512661e-02 0.9994 -2.5093 0.6455)" class="st0" width="2.1" height="1"/>
<rect x="16.5" y="72.8" transform="matrix(0.9058 -0.4236 0.4236 0.9058 -29.4098 14.3144)" class="st0" width="2.1" height="1"/>
<rect x="17.4" y="74.1" transform="matrix(0.6706 -0.7418 0.7418 0.6706 -49.2752 38.2867)" class="st0" width="2" height="1"/>
<rect x="18.8" y="74.9" transform="matrix(0.3253 -0.9456 0.9456 0.3253 -57.9394 69.6952)" class="st0" width="2.1" height="1"/>
<rect x="21" y="74.7" class="st0" width="1" height="2.1"/>
<rect x="48.7" y="56.4" class="st0" width="1" height="2.1"/>
<rect x="50.8" y="56.4" class="st0" width="1" height="2.1"/>
<rect x="52.9" y="56.4" class="st0" width="1" height="2.1"/>
<rect x="54.9" y="56.4" class="st0" width="1" height="2.1"/>
<rect x="57" y="56.4" transform="matrix(0.9979 -6.508113e-02 6.508113e-02 0.9979 -3.615 3.8667)" class="st0" width="1" height="2"/>
<rect x="59.2" y="56.1" transform="matrix(0.9766 -0.2152 0.2152 0.9766 -10.891 14.1917)" class="st0" width="1" height="2"/>
<rect x="61.3" y="55.4" transform="matrix(0.9308 -0.3655 0.3655 0.9308 -16.3586 26.5126)" class="st0" width="1" height="2.1"/>
<rect x="63.3" y="54.5" transform="matrix(0.8613 -0.5081 0.5081 0.8613 -19.3427 40.1318)" class="st0" width="1" height="2.1"/>
<rect x="65.1" y="53.2" transform="matrix(0.7736 -0.6337 0.6337 0.7736 -19.507 53.8823)" class="st0" width="1" height="2.1"/>
<rect x="66.7" y="51.7" transform="matrix(0.6686 -0.7436 0.7436 0.6686 -16.9111 67.4742)" class="st0" width="1" height="2"/>
<rect x="68.1" y="49.9" transform="matrix(0.5465 -0.8374 0.8374 0.5465 -11.5755 80.555)" class="st0" width="1" height="2"/>
<rect x="69.2" y="48" transform="matrix(0.4125 -0.911 0.911 0.4125 -3.7288 92.2607)" class="st0" width="1" height="2"/>
<rect x="69.9" y="45.9" transform="matrix(0.2658 -0.964 0.964 0.2658 6.4369 102.3386)" class="st0" width="1" height="2"/>
<rect x="70.3" y="43.8" transform="matrix(0.1154 -0.9933 0.9933 0.1154 18.1839 109.9751)" class="st0" width="1" height="2"/>
<rect x="69.9" y="42.1" class="st0" width="2.1" height="1"/>
<rect x="69.9" y="40" class="st0" width="2.1" height="1"/>
<rect x="69.9" y="38" class="st0" width="2.1" height="1"/>
<rect x="69.9" y="35.9" class="st0" width="2.1" height="1"/>
<rect x="69.9" y="33.9" class="st0" width="2.1" height="1"/>
<rect x="69.9" y="31.8" class="st0" width="2.1" height="1"/>
<rect x="69.9" y="29.8" class="st0" width="2.1" height="1"/>
<rect x="69.9" y="27.7" class="st0" width="2.1" height="1"/>
<rect x="69.9" y="25.7" class="st0" width="2.1" height="1"/>
<rect x="69.9" y="23.6" class="st0" width="2.1" height="1"/>
<rect x="69.9" y="21.6" class="st0" width="2.1" height="1"/>
<rect x="69.9" y="19.5" class="st0" width="2.1" height="1"/>
<rect x="69.9" y="17.4" class="st0" width="2.1" height="1"/>
<rect x="69.9" y="15.4" class="st0" width="2.1" height="1"/>
<rect x="69.9" y="13.3" class="st0" width="2.1" height="1"/>
<rect x="69.9" y="11.3" class="st0" width="2.1" height="1"/>
<rect x="69.9" y="9.2" class="st0" width="2.1" height="1"/>
<rect x="69.9" y="7.1" transform="matrix(0.9965 -8.396620e-02 8.396620e-02 0.9965 -0.3876 5.9809)" class="st0" width="2.1" height="1"/>
<rect x="69.3" y="4.8" transform="matrix(0.912 -0.4102 0.4102 0.912 4.02 29.3076)" class="st0" width="2" height="1"/>
<rect x="68" y="2.8" transform="matrix(0.7298 -0.6837 0.6837 0.7298 16.3889 48.0615)" class="st0" width="2.1" height="1"/>
<rect x="66.1" y="1.3" transform="matrix(0.465 -0.8853 0.8853 0.465 34.2559 60.3923)" class="st0" width="2.1" height="1"/>
<rect x="63.8" y="0.6" transform="matrix(0.1455 -0.9894 0.9894 0.1455 54.2973 65.0919)" class="st0" width="2" height="1"/>
<rect x="62.1" class="st0" width="1" height="2.1"/>
<rect x="59.8" y="0.2" transform="matrix(0.9718 -0.2359 0.2359 0.9718 1.4098 14.2674)" class="st0" width="1" height="2"/>
<rect x="57.6" y="1.2" transform="matrix(0.8389 -0.5443 0.5443 0.8389 8.1786 32.0026)" class="st0" width="1" height="2.1"/>
<rect x="55.9" y="2.8" transform="matrix(0.6169 -0.7871 0.7871 0.6169 18.6188 45.8316)" class="st0" width="1" height="2"/>
<rect x="54.7" y="4.9" transform="matrix(0.3251 -0.9457 0.9457 0.3251 31.7271 56.2264)" class="st0" width="1" height="2.1"/>
<rect x="53.8" y="7.7" class="st0" width="2.1" height="1"/>
<rect x="53.8" y="9.8" class="st0" width="2.1" height="1"/>
<rect x="53.8" y="11.8" class="st0" width="2.1" height="1"/>
<rect x="53.8" y="13.9" class="st0" width="2.1" height="1"/>
<rect x="53.8" y="15.9" class="st0" width="2.1" height="1"/>
<rect x="53.8" y="18" class="st0" width="2.1" height="1"/>
<rect x="53.8" y="20.1" class="st0" width="2.1" height="1"/>
<rect x="53.8" y="22.1" class="st0" width="2.1" height="1"/>
<rect x="53.8" y="24.2" class="st0" width="2.1" height="1"/>
<rect x="53.8" y="26.2" class="st0" width="2.1" height="1"/>
<rect x="53.8" y="28.3" class="st0" width="2.1" height="1"/>
<rect x="53.8" y="30.3" class="st0" width="2.1" height="1"/>
<rect x="53.8" y="32.4" class="st0" width="2.1" height="1"/>
<rect x="53.8" y="34.4" class="st0" width="2.1" height="1"/>
<rect x="54.2" y="35.7" transform="matrix(0.2555 -0.9668 0.9668 0.2555 5.2289 80.2351)" class="st0" width="1" height="2"/>
<rect x="53.5" y="37.2" transform="matrix(0.6169 -0.787 0.787 0.6169 -9.3685 57.1115)" class="st0" width="1" height="2"/>
<rect x="52.2" y="38.2" transform="matrix(0.8726 -0.4884 0.4884 0.8726 -12.4479 30.7633)" class="st0" width="1" height="2.1"/>
<rect x="50.7" y="38.7" transform="matrix(0.9945 -0.1049 0.1049 0.9945 -3.8857 5.5896)" class="st0" width="1" height="2.1"/>
<rect x="48.7" y="38.7" class="st0" width="1" height="2.1"/>
<rect x="21" y="131.4" class="st0" width="2.1" height="1"/>
<rect x="21" y="129.4" class="st0" width="2.1" height="1"/>
<rect x="21" y="127.4" class="st0" width="2.1" height="1"/>
<rect x="21" y="125.3" class="st0" width="2.1" height="1"/>
<rect x="21" y="123.3" class="st0" width="2.1" height="1"/>
<rect x="21" y="121.2" class="st0" width="2.1" height="1"/>
<rect x="21" y="119.2" class="st0" width="2.1" height="1"/>
<rect x="21" y="117.1" class="st0" width="2.1" height="1"/>
<rect x="21" y="115.1" class="st0" width="2.1" height="1"/>
<rect x="21" y="113" class="st0" width="2.1" height="1"/>
<rect x="21" y="111" class="st0" width="2.1" height="1"/>
<rect x="21" y="108.9" class="st0" width="2.1" height="1"/>
<rect x="21" y="106.9" class="st0" width="2.1" height="1"/>
<rect x="21" y="104.8" class="st0" width="2.1" height="1"/>
<rect x="21" y="102.8" class="st0" width="2.1" height="1"/>
<rect x="21" y="100.7" class="st0" width="2.1" height="1"/>
<rect x="21" y="98.7" class="st0" width="2.1" height="1"/>
<rect x="21" y="96.6" class="st0" width="2.1" height="1"/>
<rect x="21" y="72.1" class="st0" width="2.1" height="1"/>
<rect x="21" y="70" class="st0" width="2.1" height="1"/>
<rect x="21" y="68" class="st0" width="2.1" height="1"/>
<rect x="21" y="65.9" class="st0" width="2.1" height="1"/>
<rect x="21" y="63.9" class="st0" width="2.1" height="1"/>
<rect x="21" y="61.8" class="st0" width="2.1" height="1"/>
<rect x="21" y="59.8" class="st0" width="2.1" height="1"/>
<rect x="21" y="57.7" class="st0" width="2.1" height="1"/>
<rect x="21" y="55.7" class="st0" width="2.1" height="1"/>
<rect x="21" y="53.6" class="st0" width="2.1" height="1"/>
<rect x="21" y="51.6" class="st0" width="2.1" height="1"/>
<rect x="21" y="49.6" class="st0" width="2.1" height="1"/>
<rect x="21" y="47.5" class="st0" width="2.1" height="1"/>
<rect x="21" y="45.5" class="st0" width="2.1" height="1"/>
<rect x="21" y="43.4" class="st0" width="2.1" height="1"/>
<rect x="21" y="41.4" class="st0" width="2.1" height="1"/>
<rect x="21" y="39.3" class="st0" width="2.1" height="1"/>
<rect x="21" y="37.3" class="st0" width="2.1" height="1"/>
<rect x="21" y="35.2" class="st0" width="2.1" height="1"/>
<rect x="21" y="33.2" class="st0" width="2.1" height="1"/>
<rect x="21" y="31.1" class="st0" width="2.1" height="1"/>
<rect x="21" y="29.1" class="st0" width="2.1" height="1"/>
<rect x="21" y="27" class="st0" width="2.1" height="1"/>
<rect x="21.6" y="24.4" transform="matrix(3.010991e-02 -0.9995 0.9995 3.010991e-02 -4.0454 46.7716)" class="st0" width="1" height="2"/>
<rect x="21.8" y="22.2" transform="matrix(0.2059 -0.9786 0.9786 0.2059 -5.0232 40.3277)" class="st0" width="1" height="2"/>
<rect x="22.5" y="20.1" transform="matrix(0.3817 -0.9243 0.9243 0.3817 -5.31 34.321)" class="st0" width="1" height="2"/>
<rect x="23.5" y="18.1" transform="matrix(0.5465 -0.8374 0.8374 0.5465 -5.1399 28.816)" class="st0" width="1" height="2"/>
<rect x="24.9" y="16.4" transform="matrix(0.684 -0.7295 0.7295 0.684 -4.658 24.0349)" class="st0" width="1" height="2"/>
<rect x="26.6" y="14.9" transform="matrix(0.8049 -0.5935 0.5935 0.8049 -4.1613 19.177)" class="st0" width="1" height="2"/>
<rect x="28.5" y="13.8" transform="matrix(0.8984 -0.4391 0.4391 0.8984 -3.5404 14.2273)" class="st0" width="1" height="2"/>
<rect x="30.6" y="13" transform="matrix(0.9623 -0.2721 0.2721 0.9623 -2.6294 8.9831)" class="st0" width="1" height="2"/>
<rect x="32.8" y="12.5" transform="matrix(0.9959 -8.991808e-02 8.991808e-02 0.9959 -1.0855 3.0465)" class="st0" width="1" height="2.1"/>
<rect x="34.9" y="12.5" class="st0" width="1" height="2.1"/>
<rect x="36.5" y="13.1" transform="matrix(8.481696e-02 -0.9964 0.9964 8.481696e-02 20.8365 49.8284)" class="st0" width="2" height="1"/>
<rect x="38.7" y="13.5" transform="matrix(0.2663 -0.9639 0.9639 0.2663 15.684 48.5591)" class="st0" width="2" height="1"/>
<rect x="40.8" y="14.2" transform="matrix(0.4363 -0.8998 0.8998 0.4363 10.2929 45.9531)" class="st0" width="2" height="1"/>
<rect x="42.7" y="15.4" transform="matrix(0.5937 -0.8047 0.8047 0.5937 4.9569 41.6508)" class="st0" width="2" height="1"/>
<rect x="44.4" y="16.9" transform="matrix(0.7298 -0.6837 0.6837 0.7298 0.3749 35.7366)" class="st0" width="2" height="1"/>
<rect x="45.7" y="18.6" transform="matrix(0.841 -0.541 0.541 0.841 -2.9236 28.3485)" class="st0" width="2" height="1"/>
<rect x="46.8" y="20.6" transform="matrix(0.9246 -0.3811 0.3811 0.9246 -4.4442 19.8125)" class="st0" width="2" height="1"/>
<rect x="47.4" y="22.7" transform="matrix(0.9788 -0.205 0.205 0.9788 -3.7381 10.4289)" class="st0" width="2" height="1"/>
<rect x="47.7" y="25" transform="matrix(0.9997 -2.547433e-02 2.547433e-02 0.9997 -0.6332 1.2496)" class="st0" width="2" height="1"/>
<rect x="47.7" y="27" class="st0" width="2.1" height="1"/>
<rect x="47.7" y="29.1" class="st0" width="2.1" height="1"/>
<rect x="47.7" y="31.1" class="st0" width="2.1" height="1"/>
<rect x="47.7" y="33.2" class="st0" width="2.1" height="1"/>
<rect x="47.7" y="35.2" class="st0" width="2.1" height="1"/>
<rect x="47.7" y="59.8" class="st0" width="2.1" height="1"/>
<rect x="47.7" y="61.8" class="st0" width="2.1" height="1"/>
<rect x="47.7" y="63.9" class="st0" width="2.1" height="1"/>
<rect x="47.7" y="65.9" class="st0" width="2.1" height="1"/>
<rect x="47.7" y="68" class="st0" width="2.1" height="1"/>
<rect x="47.7" y="70" class="st0" width="2.1" height="1"/>
<rect x="47.7" y="72.1" class="st0" width="2.1" height="1"/>
<rect x="47.7" y="74.1" class="st0" width="2.1" height="1"/>
<rect x="47.7" y="76.2" class="st0" width="2.1" height="1"/>
<rect x="47.7" y="78.2" class="st0" width="2.1" height="1"/>
<rect x="47.7" y="80.3" class="st0" width="2.1" height="1"/>
<rect x="47.7" y="82.3" class="st0" width="2.1" height="1"/>
<rect x="47.7" y="84.4" class="st0" width="2.1" height="1"/>
<rect x="47.7" y="86.4" class="st0" width="2.1" height="1"/>
<rect x="47.7" y="88.4" class="st0" width="2.1" height="1"/>
<rect x="47.7" y="90.5" class="st0" width="2.1" height="1"/>
<rect x="47.7" y="92.5" class="st0" width="2.1" height="1"/>
<rect x="47.7" y="94.6" class="st0" width="2.1" height="1"/>
<rect x="47.7" y="96.6" class="st0" width="2.1" height="1"/>
<rect x="47.7" y="98.7" class="st0" width="2.1" height="1"/>
<rect x="47.7" y="100.7" class="st0" width="2.1" height="1"/>
<rect x="47.7" y="102.8" class="st0" width="2.1" height="1"/>
<rect x="47.7" y="104.8" class="st0" width="2.1" height="1"/>
<rect x="47.7" y="106.9" class="st0" width="2.1" height="1"/>
<rect x="47.7" y="108.9" class="st0" width="2.1" height="1"/>
<rect x="47.7" y="111" class="st0" width="2.1" height="1"/>
<rect x="47.7" y="113" class="st0" width="2.1" height="1"/>
<rect x="47.7" y="115.1" class="st0" width="2.1" height="1"/>
<rect x="47.7" y="117.1" class="st0" width="2.1" height="1"/>
<rect x="47.7" y="119.2" class="st0" width="2.1" height="1"/>
<rect x="47.7" y="121.2" class="st0" width="2.1" height="1"/>
<rect x="47.7" y="123.3" class="st0" width="2.1" height="1"/>
<rect x="47.7" y="125.3" class="st0" width="2.1" height="1"/>
<rect x="47.7" y="127.4" class="st0" width="2.1" height="1"/>
<rect x="47.7" y="129.4" class="st0" width="2.1" height="1"/>
<rect x="47.7" y="131.4" class="st0" width="2.1" height="1"/>
<path class="st0" d="M23.1,92.9h-7.7C7.8,92.9,1.5,86.7,1.5,79V44.1c0-3.7,3-6.7,6.7-6.7h1.7c3.7,0,6.7,3,6.7,6.7v27.5
	c0,2.5,2.1,4.6,4.6,4.6h1.9v1h-1.9c-3.1,0-5.6-2.5-5.6-5.6V44.1c0-3.1-2.5-5.6-5.6-5.6H8.2c-3.1,0-5.6,2.5-5.6,5.6V79
	c0,7.1,5.8,12.8,12.8,12.8h7.7V92.9z"/>
<path class="st0" d="M23.1,85.4h-1c-7.6,0-13.9-6.2-13.9-13.9V38h1v33.5c0,7.1,5.8,12.8,12.8,12.8h1V85.4z"/>
<path class="st0" d="M56.6,57h-8.9v-1h8.9c7.1,0,12.8-5.8,12.8-12.8V8.2c0-3.1-2.5-5.6-5.6-5.6H62c-3.1,0-5.6,2.5-5.6,5.6v27.5
	c0,3.1-2.5,5.6-5.6,5.6h-3v-1h3c2.5,0,4.6-2.1,4.6-4.6V8.2c0-3.7,3-6.7,6.7-6.7h1.7c3.7,0,6.7,3,6.7,6.7v34.9
	C70.4,50.7,64.2,57,56.6,57"/>
<path class="st0" d="M49.8,49.6h-2.1v-1h2.1c7.1,0,12.8-5.8,12.8-12.8V2.1h1v33.7C63.6,43.4,57.4,49.6,49.8,49.6"/>
<path class="st0" d="M48.2,133.5h-1V25.8c0-5.9-4.8-10.8-10.8-10.8h-2.1c-5.9,0-10.8,4.8-10.8,10.8v107.7h-1V25.8
	c0-6.5,5.3-11.8,11.8-11.8h2.1c6.5,0,11.8,5.3,11.8,11.8V133.5z"/>
<path class="st0" d="M30.6,133.5h-0.9V25.3c0-3.7,1-7.4,3-10.6l0.7,0.4c-1.9,3.1-2.8,6.6-2.8,10.2V133.5z"/>
<path class="st0" d="M41.1,133.5h-0.9V25.3c0-3.6-1-7.1-2.8-10.2l0.7-0.4c1.9,3.2,3,6.9,3,10.6V133.5z"/>
<rect x="15.2" y="133" class="st0" width="40.7" height="1"/>
</svg>
