<?xml version="1.0" encoding="utf-8"?>
<!-- Generator: Adobe Illustrator 21.1.0, SVG Export Plug-In . SVG Version: 6.00 Build 0)  -->
<svg version="1.1" id="Layer_1" xmlns="http://www.w3.org/2000/svg" xmlns:xlink="http://www.w3.org/1999/xlink" x="0px" y="0px"
	 viewBox="0 0 74.8 105" style="enable-background:new 0 0 74.8 105;" xml:space="preserve">
<style type="text/css">
	.st0{fill:none;stroke:#A87A3F;stroke-miterlimit:10;}
</style>
<g>
	<path class="st0" d="M44.1,60.9C44.1,60.9,44.1,60.9,44.1,60.9c-4.5-4.6-4.5-12.1-0.1-16.7c0,0,0,0,0.1-0.1l12.5-11.9
		c2.5-2.5,4.2-5.7,4.5-9.3c0.7-8.6-6-15.8-14.4-15.8h-6h-6.7h-5.5c-6.4,0-12.3,3.9-14.2,10.1c-1.7,5.3-0.2,10.9,3.6,14.7l12.9,12.2
		c0,0,0,0,0.1,0.1c4.4,4.5,4.4,12.1,0,16.6c0,0,0,0-0.1,0.1L18.2,72.8c-2.5,2.5-4.2,5.7-4.5,9.2c-0.7,8.6,6,15.8,14.4,15.8h6h6.7
		h5.5c6.4,0,12.3-3.9,14.2-10c1.7-5.3,0.2-10.9-3.6-14.7L44.1,60.9z"/>
	<polygon class="st0" points="71,97.8 74.3,101.1 74.3,104.5 0.5,104.5 0.5,101.1 3.9,97.8 	"/>
	<polygon class="st0" points="69.3,7.2 72.6,3.9 72.6,0.5 2.2,0.5 2.2,3.9 5.5,7.2 	"/>
	<line class="st0" x1="5.5" y1="62.6" x2="5.5" y2="97.8"/>
	<circle class="st0" cx="5.5" cy="52.5" r="5"/>
	<line class="st0" x1="5.5" y1="12.2" x2="5.5" y2="47.5"/>
	<line class="st0" x1="69.3" y1="57.5" x2="69.3" y2="92.8"/>
	<circle class="st0" cx="69.3" cy="52.5" r="5"/>
	<line class="st0" x1="69.3" y1="7.2" x2="69.3" y2="42.4"/>
	<polyline class="st0" points="22.3,97.8 37.4,82.7 52.5,97.8 	"/>
	<line class="st0" x1="29" y1="30.7" x2="57.5" y2="30.7"/>
	<line class="st0" x1="25.7" y1="30.7" x2="22.3" y2="30.7"/>
	<path class="st0" d="M40.8,52.5c0,1.9-1.5,3.4-3.4,3.4c-1.9,0-3.4-1.5-3.4-3.4"/>
	<line class="st0" x1="37.4" y1="65.9" x2="37.4" y2="69.3"/>
	<line class="st0" x1="37.4" y1="72.6" x2="37.4" y2="76"/>
</g>
</svg>
