<?xml version="1.0" encoding="utf-8"?>
<!-- Generator: Adobe Illustrator 21.1.0, SVG Export Plug-In . SVG Version: 6.00 Build 0)  -->
<svg version="1.1" id="Layer_1" xmlns="http://www.w3.org/2000/svg" xmlns:xlink="http://www.w3.org/1999/xlink" x="0px" y="0px"
	 viewBox="0 0 108.7 108.7" style="enable-background:new 0 0 108.7 108.7;" xml:space="preserve">
<style type="text/css">
	.st0{fill:none;stroke:#A87A3F;stroke-miterlimit:10;}
</style>
<path class="st0" d="M16.1,24.8"/>
<polyline class="st0" points="42.2,108.2 42.2,101.3 66.6,101.3 66.5,108.2 "/>
<line class="st0" x1="47.4" y1="101.3" x2="47.4" y2="23.1"/>
<line class="st0" x1="61.3" y1="101.3" x2="61.3" y2="23.1"/>
<line class="st0" x1="54.4" y1="75.2" x2="54.4" y2="23.1"/>
<line class="st0" x1="42.2" y1="16.1" x2="66.6" y2="16.1"/>
<line class="st0" x1="42.2" y1="23.1" x2="66.6" y2="23.1"/>
<line class="st0" x1="37" y1="108.2" x2="71.8" y2="108.2"/>
<line class="st0" x1="33.5" y1="108.2" x2="30" y2="108.2"/>
<line class="st0" x1="78.7" y1="108.2" x2="75.2" y2="108.2"/>
<line class="st0" x1="47.4" y1="16.1" x2="47.4" y2="23.1"/>
<line class="st0" x1="61.3" y1="16.1" x2="61.3" y2="23.1"/>
<line class="st0" x1="85.6" y1="108.2" x2="82.2" y2="108.2"/>
<line class="st0" x1="92.6" y1="108.2" x2="89.1" y2="108.2"/>
<line class="st0" x1="19.6" y1="108.2" x2="16.1" y2="108.2"/>
<line class="st0" x1="26.6" y1="108.2" x2="23.1" y2="108.2"/>
<line class="st0" x1="54.4" y1="78.7" x2="54.4" y2="82.2"/>
<line class="st0" x1="54.4" y1="85.6" x2="54.4" y2="89.1"/>
<line class="st0" x1="54.4" y1="92.6" x2="54.4" y2="96.1"/>
<polygon class="st0" points="47.3,0.5 54.7,10.9 62,0.5 "/>
<g>
	<path class="st0" d="M0.5,61.3v4.6l0,0c9.7,12.4,28.5,12.4,38.2,0l0,0v-4.6H0.5z"/>
	<g>
		<polyline class="st0" points="38.7,57.8 38.7,54.4 23.1,9.2 23.1,7.5 		"/>
		<polyline class="st0" points="0.5,57.8 0.5,54.4 17.9,4 49.5,4 		"/>
		<line class="st0" x1="17.9" y1="4" x2="5.7" y2="4"/>
	</g>
</g>
<g>
	<path class="st0" d="M108.2,61.3v4.6l0,0c-9.7,12.4-28.5,12.4-38.2,0l0,0v-4.6H108.2z"/>
	<g>
		<polyline class="st0" points="70,57.8 70,54.4 85.6,9.2 85.6,7.5 		"/>
		<polyline class="st0" points="108.2,57.8 108.2,54.4 90.9,4 59.2,4 		"/>
		<line class="st0" x1="90.9" y1="4" x2="103" y2="4"/>
	</g>
</g>
</svg>
